<?xml version="1.0" standalone="no"?>
<!DOCTYPE svg PUBLIC "-//W3C//DTD SVG 20010904//EN"
 "http://www.w3.org/TR/2001/REC-SVG-20010904/DTD/svg10.dtd">
<svg version="1.0" xmlns="http://www.w3.org/2000/svg"
 width="56.000000pt" height="59.000000pt" viewBox="0 0 56.000000 59.000000"
 preserveAspectRatio="xMidYMid meet">

<g transform="translate(0.000000,59.000000) scale(0.100000,-0.100000)"
fill="#000000" stroke="none">
<path d="M220 516 c-41 -23 -53 -56 -48 -130 5 -77 28 -116 77 -130 62 -18
121 56 121 151 0 43 -5 58 -27 83 -33 36 -85 47 -123 26z m100 -36 c26 -26 27
-110 2 -160 -20 -41 -62 -52 -92 -25 -23 21 -44 105 -35 145 12 57 85 80 125
40z"/>
<path d="M339 220 c-52 -54 -95 -56 -146 -5 -19 19 -41 35 -48 35 -41 0 -105
-89 -105 -145 l0 -25 153 0 c118 -1 156 -4 171 -15 11 -8 37 -15 59 -15 54 0
107 52 107 105 0 55 -52 105 -111 105 -36 0 -47 -6 -80 -40z m144 -11 c33 -40
21 -101 -25 -125 -97 -50 -166 89 -73 144 27 16 76 7 98 -19z m-313 -14 c27
-29 82 -49 115 -43 24 5 35 -7 35 -38 0 -11 -24 -14 -125 -14 -119 0 -125 1
-125 20 0 40 42 98 71 100 3 0 16 -11 29 -25z"/>
<path d="M432 168 c-19 -19 -25 -21 -42 -11 -13 9 -21 9 -26 2 -3 -6 -4 -11
-3 -12 2 -1 14 -11 27 -21 22 -19 23 -19 57 14 19 18 32 37 29 42 -8 13 -18
10 -42 -14z"/>
</g>
</svg>
