<?xml version="1.0" standalone="no"?>
<!DOCTYPE svg PUBLIC "-//W3C//DTD SVG 20010904//EN"
 "http://www.w3.org/TR/2001/REC-SVG-20010904/DTD/svg10.dtd">
<svg version="1.0" xmlns="http://www.w3.org/2000/svg"
 width="54.000000pt" height="55.000000pt" viewBox="0 0 54.000000 55.000000"
 preserveAspectRatio="xMidYMid meet">

<g transform="translate(0.000000,55.000000) scale(0.100000,-0.100000)"
fill="#000000" stroke="none">
<path d="M220 496 c-41 -23 -53 -56 -48 -130 5 -77 28 -116 77 -130 62 -18
121 56 121 151 0 43 -5 58 -27 83 -33 36 -85 47 -123 26z m100 -36 c26 -26 27
-110 2 -160 -20 -41 -62 -52 -92 -25 -23 21 -44 105 -35 145 12 57 85 80 125
40z"/>
<path d="M99 203 c-35 -29 -59 -78 -59 -118 l0 -25 225 0 225 0 0 38 c0 48
-31 98 -73 118 -33 16 -33 16 -69 -20 -30 -30 -43 -36 -78 -36 -35 0 -48 6
-77 35 -19 19 -41 35 -48 35 -8 0 -28 -12 -46 -27z m71 -28 c51 -54 135 -56
190 -5 18 17 35 30 39 30 17 0 61 -58 67 -88 l7 -32 -202 0 c-196 0 -201 1
-201 20 0 40 42 98 71 100 3 0 16 -11 29 -25z"/>
</g>
</svg>
