<?xml version="1.0" standalone="no"?>
<!DOCTYPE svg PUBLIC "-//W3C//DTD SVG 20010904//EN"
 "http://www.w3.org/TR/2001/REC-SVG-20010904/DTD/svg10.dtd">
<svg width="35" height="35" viewBox="0 0 30 30" fill="none" xmlns="http://www.w3.org/2000/svg">
<path fill-rule="evenodd" clip-rule="evenodd" d="M15.9975 12.9624C15.5064 13.9545 15.3333 15.1785 15.3333 16H14C14 15.0438 14.1936 13.6011 14.8025 12.3709C15.4212 11.1211 16.5276 10 18.3333 10H19V10.6667C19 10.666 19.0002 10.6669 19.0006 10.6691C19.0045 10.6885 19.0299 10.8143 19.1553 11.0343C19.282 11.2564 19.4784 11.5164 19.7422 11.7632C20.2676 12.255 21.0279 12.6667 22 12.6667C24.1232 12.6667 25 11.5021 25 10.6667V10H25.6667C26.4498 10 27.544 10.334 28.4405 11.2729C29.3481 12.2235 30 13.7357 30 16H28.6667C28.6667 13.9976 28.0963 12.8432 27.4762 12.1937C27.0693 11.7676 26.6175 11.5333 26.2302 11.4206C25.8184 12.8928 24.2066 14 22 14C20.6254 14 19.5524 13.4117 18.8311 12.7368C18.4716 12.4003 18.1913 12.0353 17.9972 11.6949C17.9398 11.5942 17.8855 11.4881 17.8382 11.3792C16.9867 11.5441 16.4043 12.1405 15.9975 12.9624Z" fill="#2C2A29"></path>
<path fill-rule="evenodd" clip-rule="evenodd" d="M3.99748 26.2958C3.5064 27.2879 3.33333 28.5118 3.33333 29.3334H2C2 28.3771 2.1936 26.9344 2.80253 25.7043C3.42121 24.4544 4.52762 23.3334 6.33333 23.3334H7V24C7 23.9994 7.00017 24.0002 7.00062 24.0025C7.00453 24.0219 7.02989 24.1477 7.15534 24.3677C7.28203 24.5898 7.4784 24.8497 7.74219 25.0966C8.26764 25.5883 9.02794 26 10 26C12.1232 26 13 24.8355 13 24V23.3334H13.6667C14.4498 23.3334 15.544 23.6674 16.4405 24.6063C17.3481 25.5569 18 27.0691 18 29.3334H16.6667C16.6667 27.331 16.0963 26.1766 15.4762 25.5271C15.0693 25.101 14.6175 24.8667 14.2302 24.754C13.8184 26.2261 12.2066 27.3334 10 27.3334C8.62539 27.3334 7.55236 26.7451 6.83114 26.0701C6.4716 25.7337 6.19131 25.3686 5.99716 25.0283C5.93976 24.9276 5.8855 24.8215 5.83818 24.7126C4.98667 24.8775 4.40433 25.4739 3.99748 26.2958Z" fill="#2C2A29"></path>
<path fill-rule="evenodd" clip-rule="evenodd" d="M20.4077 4.0562C20.1068 4.47409 20 4.99557 20 5.33333C20 6.13181 20.0061 7.18451 20.2973 8.03378C20.4392 8.44771 20.6342 8.76603 20.8879 8.97976C21.1302 9.18393 21.4734 9.33333 22 9.33333C22.5265 9.33333 22.8698 9.18393 23.1121 8.97976C23.3657 8.76603 23.5608 8.44771 23.7027 8.03378C23.9938 7.18451 24 6.13181 24 5.33333C24 4.99557 23.8932 4.47409 23.5923 4.0562C23.3159 3.67231 22.8494 3.33333 22 3.33333C21.1506 3.33333 20.6841 3.67231 20.4077 4.0562ZM19.3256 3.27713C19.8492 2.54991 20.716 2 22 2C23.2839 2 24.1507 2.54991 24.6743 3.27713C25.1734 3.97036 25.3333 4.78221 25.3333 5.33333C25.3333 5.34516 25.3333 5.3571 25.3333 5.36918C25.3334 6.13036 25.3336 7.38815 24.9639 8.46622C24.7725 9.02452 24.4675 9.5812 23.9712 9.9994C23.4635 10.4272 22.8067 10.6667 22 10.6667C21.1932 10.6667 20.5364 10.4272 20.0287 9.9994C19.5324 9.5812 19.2274 9.02452 19.036 8.46622C18.6664 7.38815 18.6665 6.13036 18.6666 5.36918C18.6666 5.3571 18.6666 5.34515 18.6666 5.33333C18.6666 4.78221 18.8265 3.97036 19.3256 3.27713Z" fill="#2C2A29"></path>
<path fill-rule="evenodd" clip-rule="evenodd" d="M8.40765 17.3896C8.10678 17.8075 7.99997 18.3289 7.99997 18.6667C7.99997 19.4652 8.00608 20.5179 8.29726 21.3672C8.43918 21.7811 8.6342 22.0994 8.88787 22.3131C9.13018 22.5173 9.47339 22.6667 9.99997 22.6667C10.5265 22.6667 10.8698 22.5173 11.1121 22.3131C11.3657 22.0994 11.5608 21.7811 11.7027 21.3672C11.9938 20.5179 12 19.4652 12 18.6667C12 18.3289 11.8932 17.8075 11.5923 17.3896C11.3159 17.0057 10.8494 16.6667 9.99997 16.6667C9.15058 16.6667 8.68406 17.0057 8.40765 17.3896ZM7.32561 16.6105C7.84921 15.8833 8.71602 15.3334 9.99997 15.3334C11.2839 15.3334 12.1507 15.8833 12.6743 16.6105C13.1734 17.3037 13.3333 18.1156 13.3333 18.6667C13.3333 18.6785 13.3333 18.6905 13.3333 18.7026C13.3334 19.4637 13.3336 20.7215 12.9639 21.7996C12.7725 22.3579 12.4675 22.9146 11.9712 23.3328C11.4635 23.7606 10.8067 24 9.99997 24C9.19321 24 8.53642 23.7606 8.02873 23.3328C7.5324 22.9146 7.22742 22.3579 7.036 21.7996C6.66638 20.7215 6.66653 19.4637 6.66663 18.7026C6.66663 18.6905 6.66663 18.6785 6.66663 18.6667C6.66663 18.1156 6.82649 17.3037 7.32561 16.6105Z" fill="#2C2A29"></path>
<path d="M23.6184 27.9965C26.7662 27.9965 29.33 25.4327 29.33 22.285C29.33 19.1372 26.7662 16.5734 23.6184 16.5734C20.4707 16.5734 17.9069 19.1372 17.9069 22.285C17.9069 25.4327 20.4707 27.9965 23.6184 27.9965ZM23.6184 17.8426C26.0681 17.8426 28.0608 19.8353 28.0608 22.285C28.0608 24.7346 26.0681 26.7273 23.6184 26.7273C21.1688 26.7273 19.1761 24.7346 19.1761 22.285C19.1761 19.8353 21.1688 17.8426 23.6184 17.8426Z" fill="#2C2A29"></path>
<path fill-rule="evenodd" clip-rule="evenodd" d="M26.604 21.1202L22.7869 24.9157L20.3359 22.5328L21.2654 21.5768L22.7764 23.0458L25.6639 20.1747L26.604 21.1202Z" fill="#2C2A29"></path>
</svg>