<svg width="92" height="92" viewBox="0 0 92 92" fill="none" xmlns="http://www.w3.org/2000/svg">
<rect x="5" y="5.00647" width="81.9871" height="81.9871" rx="40.9936" fill="#B0ECDA"/>
<path fill-rule="evenodd" clip-rule="evenodd" d="M42.5966 50.3104C42.5966 51.8989 44.0587 53.1986 45.8458 53.1986C47.6329 53.1986 49.095 51.8989 49.095 50.3104C49.095 48.7219 47.6329 47.4222 45.8458 47.4222C42.2717 47.4222 39.3474 44.8229 39.3474 41.6459C39.3474 38.9599 41.4269 36.7071 44.2212 36.0717V32.9814H47.4704V36.0717C50.2647 36.7071 52.3442 38.9599 52.3442 41.6459H49.095C49.095 40.0574 47.6329 38.7577 45.8458 38.7577C44.0587 38.7577 42.5966 40.0574 42.5966 41.6459C42.5966 43.2344 44.0587 44.534 45.8458 44.534C49.4199 44.534 52.3442 47.1334 52.3442 50.3104C52.3442 52.9964 50.2647 55.2492 47.4704 55.8846V58.9749H44.2212V55.8846C41.4269 55.2492 39.3474 52.9964 39.3474 50.3104H42.5966Z" fill="#2C2A29"/>
<path d="M54.3746 26.0262C43.3439 21.3955 30.6479 26.5837 26.0173 37.6144C24.8062 40.4993 24.2667 43.4981 24.3277 46.4367L26.3906 46.3874C26.3365 43.731 26.8247 41.0205 27.9194 38.4129C32.1091 28.4328 43.596 23.7387 53.5761 27.9284C63.5562 32.118 68.2503 43.6049 64.0606 53.585C59.8709 63.5651 48.3841 68.2592 38.404 64.0695C34.7757 62.5464 31.8461 60.0588 29.788 57.0298L33.2608 58.056L33.8828 55.9814L26.9774 53.9092L24.9062 60.8166L26.9808 61.4386L27.9902 58.0758L28.0181 58.0956C30.296 61.4866 33.5573 64.2723 37.6054 65.9717C48.6361 70.6024 61.3321 65.4142 65.9628 54.3835C70.5934 43.3529 65.4052 30.6569 54.3746 26.0262Z" fill="#2C2A29"/>
<rect x="5" y="5.00647" width="81.9871" height="81.9871" rx="40.9936" stroke="#B0ECDA" stroke-width="10"/>
</svg>
