<svg width="92" height="92" viewBox="0 0 92 92" fill="none" xmlns="http://www.w3.org/2000/svg">
<rect x="5" y="5.00647" width="81.9871" height="81.9871" rx="40.9936" fill="#FCE8F0"/>
<path fill-rule="evenodd" clip-rule="evenodd" d="M61.1565 54.6646V33.0033H26.4984V54.6646H61.1565ZM28.6643 56.8307H24.3323V30.8372H63.3226V35.1694H67.6546V61.163H28.6643V56.8307ZM63.3226 37.3355H65.4885V58.9968H30.8304V56.8307H63.3226V37.3355ZM43.8272 41.6678C42.6337 41.6678 41.6611 42.6404 41.6611 43.8339C41.6611 45.0275 42.6337 46.0001 43.8272 46.0001C45.0208 46.0001 45.9933 45.0275 45.9933 43.8339C45.9933 42.6404 45.0208 41.6678 43.8272 41.6678ZM43.8272 48.1662C41.438 48.1662 39.495 46.2232 39.495 43.8339C39.495 41.4447 41.438 39.5017 43.8272 39.5017C46.2165 39.5017 48.1595 41.4447 48.1595 43.8339C48.1595 46.2232 46.2165 48.1662 43.8272 48.1662ZM52.4917 52.4985H58.9901V35.1694H52.4917V37.3355H56.824V50.3323H52.4917V52.4985ZM35.1627 52.4985H28.6643V35.1694H35.1627V37.3355H30.8304V50.3323H35.1627V52.4985Z" fill="#2C2A29"/>
<rect x="5" y="5.00647" width="81.9871" height="81.9871" rx="40.9936" stroke="#FCE8F0" stroke-width="10"/>
</svg>
