<?xml version="1.0" standalone="no"?>
<!DOCTYPE svg PUBLIC "-//W3C//DTD SVG 20010904//EN"
 "http://www.w3.org/TR/2001/REC-SVG-20010904/DTD/svg10.dtd">
<svg version="1.0" xmlns="http://www.w3.org/2000/svg"
 width="707.000000pt" height="716.000000pt" viewBox="0 0 707.000000 716.000000"
 preserveAspectRatio="xMidYMid meet">

<g transform="translate(0.000000,716.000000) scale(0.100000,-0.100000)"
fill="#000000" stroke="none">
<path d="M3326 5829 c-267 -135 -542 -246 -810 -329 -66 -20 -124 -43 -129
-52 -14 -21 -1 -65 28 -93 l23 -24 69 19 c243 68 584 202 831 326 l183 93 187
-93 c103 -50 250 -118 327 -149 208 -86 645 -229 855 -281 164 -40 411 -90
480 -98 24 -3 26 -8 42 -120 42 -296 52 -439 52 -753 1 -396 -24 -627 -99
-920 -128 -503 -381 -937 -759 -1303 -269 -261 -652 -518 -984 -661 l-102 -44
-118 52 c-216 96 -427 218 -612 354 -692 509 -1091 1179 -1185 1992 -8 71 -15
165 -15 208 0 69 -3 81 -25 102 -31 32 -69 32 -101 0 -24 -24 -25 -29 -19
-113 32 -452 114 -788 284 -1157 233 -503 693 -994 1233 -1316 133 -79 459
-240 525 -260 41 -11 47 -10 155 36 622 264 1180 727 1510 1251 184 293 314
627 388 994 93 461 91 1084 -4 1668 -17 105 -20 112 -46 112 -40 0 -366 64
-535 105 -435 106 -844 256 -1236 452 -102 51 -192 93 -200 92 -8 0 -94 -41
-193 -90z"/>
<path d="M1789 5678 c-31 -106 -64 -175 -91 -189 -12 -7 -68 -27 -123 -44 -58
-19 -100 -38 -100 -45 0 -7 23 -19 50 -27 28 -8 81 -26 118 -40 78 -29 87 -42
132 -186 16 -50 32 -86 39 -84 6 2 19 30 28 63 10 32 30 87 44 121 l26 62 116
39 c68 22 117 44 117 51 0 8 -47 30 -108 51 -59 21 -113 43 -120 49 -13 10
-57 129 -77 209 -6 23 -15 42 -20 42 -5 0 -19 -32 -31 -72z"/>
<path d="M1505 5041 c-9 -16 -45 -194 -45 -227 0 -17 7 -38 16 -45 20 -16 89
-18 105 -2 6 6 19 59 30 118 19 113 16 135 -21 155 -23 13 -77 13 -85 1z"/>
<path d="M1125 4848 c-2 -7 -19 -58 -36 -113 -17 -55 -38 -113 -46 -128 -16
-32 -77 -62 -193 -97 -41 -12 -79 -25 -83 -29 -13 -12 14 -27 78 -45 33 -9 88
-28 123 -43 60 -24 65 -29 88 -81 14 -31 34 -90 46 -131 21 -76 33 -100 43
-89 3 3 15 39 26 79 12 41 34 104 51 140 l30 66 116 39 c122 39 148 52 135 64
-4 4 -46 20 -93 35 -135 44 -158 59 -185 118 -13 29 -35 90 -48 137 -23 80
-41 108 -52 78z"/>
<path d="M2493 4840 c-160 -42 -267 -99 -379 -203 -129 -120 -208 -267 -239
-442 -19 -110 -19 -177 0 -288 34 -190 100 -343 240 -552 108 -162 191 -260
380 -454 248 -253 482 -447 765 -636 171 -114 237 -148 274 -141 68 14 476
296 701 486 118 99 283 259 411 398 300 325 475 631 515 901 14 102 7 283 -16
366 -55 202 -205 386 -394 483 -147 76 -262 102 -448 102 -241 0 -419 -59
-666 -223 l-124 -82 -79 57 c-154 111 -337 194 -503 228 -133 27 -335 27 -438
0z m404 -136 c171 -35 327 -111 507 -247 57 -43 98 -67 115 -67 16 0 46 16 76
42 378 315 831 379 1156 163 68 -46 141 -123 187 -197 66 -106 103 -310 82
-453 -42 -290 -231 -596 -600 -966 -246 -246 -466 -425 -767 -623 -120 -79
-134 -86 -155 -75 -55 29 -263 170 -373 253 -494 370 -901 826 -1045 1174 -51
122 -72 223 -71 347 0 198 53 328 187 462 104 104 216 161 389 197 52 10 242
5 312 -10z"/>
<path d="M3234 4189 c-17 -19 -19 -40 -22 -185 l-3 -164 -165 0 -166 0 -29
-29 -29 -29 0 -236 c0 -151 4 -244 11 -259 18 -41 49 -47 219 -47 l160 0 0
-159 c0 -145 2 -161 21 -185 l20 -26 258 0 c327 0 301 -18 301 208 l0 162 160
0 c170 0 201 6 219 47 7 15 11 106 11 253 0 147 -4 238 -11 253 -18 41 -49 47
-219 47 l-160 0 0 163 c0 225 26 207 -302 207 -246 0 -256 -1 -274 -21z m436
-287 c0 -150 2 -171 18 -185 15 -14 48 -17 193 -19 l174 -3 4 -25 c1 -14 0
-85 -4 -157 l-7 -133 -171 0 c-145 0 -173 -3 -189 -17 -16 -14 -18 -34 -18
-185 l0 -168 -155 0 -155 0 0 163 c0 223 16 207 -211 207 l-179 0 0 160 0 160
177 0 c150 0 179 2 195 17 16 14 18 34 18 185 l0 168 155 0 155 0 0 -168z"/>
<path d="M6050 3473 c-7 -26 -26 -83 -42 -126 -34 -88 -32 -87 -196 -141 -46
-16 -81 -33 -79 -39 2 -6 34 -21 73 -34 174 -58 163 -48 217 -212 18 -53 36
-99 42 -102 5 -2 27 46 48 106 20 61 40 117 43 126 7 20 47 39 163 77 47 16
87 34 89 40 2 6 -22 18 -55 28 -32 9 -86 28 -120 41 -71 28 -80 43 -123 187
-14 49 -30 91 -36 93 -6 2 -17 -18 -24 -44z"/>
<path d="M5584 2803 c-3 -10 -17 -49 -32 -88 -29 -75 -24 -71 -170 -126 -41
-15 -35 -21 52 -49 38 -12 76 -30 85 -39 10 -10 28 -52 42 -94 13 -42 27 -77
30 -77 4 0 19 38 33 85 29 93 30 94 132 129 35 11 63 26 62 31 0 6 -36 23 -78
38 -75 27 -79 30 -98 75 -11 26 -25 66 -31 90 -13 46 -19 51 -27 25z"/>
</g>
</svg>
