<?xml version="1.0" standalone="no"?>
<!DOCTYPE svg PUBLIC "-//W3C//DTD SVG 20010904//EN"
 "http://www.w3.org/TR/2001/REC-SVG-20010904/DTD/svg10.dtd">
<svg version="1.0" xmlns="http://www.w3.org/2000/svg"
 width="324.000000pt" height="315.000000pt" viewBox="0 0 324.000000 315.000000"
 preserveAspectRatio="xMidYMid meet">

<g transform="translate(0.000000,315.000000) scale(0.100000,-0.100000)"
fill="#2c2a29"
stroke="#2c2a29"
stroke-width="20"
stroke-linecap="round"
stroke-linejoin="round">
<path d="M1613 2750 c-40 -20 -98 -43 -128 -50 -66 -16 -71 -26 -61 -138 12
-140 33 -194 101 -270 44 -49 148 -112 184 -112 37 0 126 53 176 104 68 70 94
137 104 270 9 108 6 136 -14 136 -26 0 -171 53 -207 76 -48 31 -67 29 -155
-16z m150 -27 c29 -14 81 -36 117 -48 l65 -22 3 -59 c9 -165 -57 -285 -193
-353 l-46 -23 -54 27 c-31 15 -75 49 -104 80 -59 65 -78 121 -83 244 l-3 84
48 13 c26 6 80 28 120 47 39 20 73 36 75 36 1 1 26 -11 55 -26z"/>
<path d="M1090 2611 c-123 -25 -200 -142 -187 -285 16 -172 96 -260 237 -259
149 1 232 98 233 274 0 71 -4 95 -25 141 -44 96 -152 150 -258 129z m130 -66
c66 -34 100 -103 100 -205 0 -79 -17 -130 -58 -173 -91 -96 -233 -63 -288 68
-25 58 -23 168 3 226 41 91 152 130 243 84z"/>
<path d="M2178 2524 c-79 -24 -110 -67 -158 -211 -23 -69 -57 -166 -76 -216
-33 -89 -33 -116 -1 -104 8 3 29 43 46 89 18 46 37 94 43 108 l11 25 14 -35
c40 -95 110 -143 208 -143 91 0 156 43 194 129 l17 38 43 -107 c24 -59 48
-110 53 -113 6 -4 16 0 24 8 12 12 11 23 -12 78 -14 36 -48 126 -74 201 -55
157 -59 165 -97 201 -58 55 -157 77 -235 52z m159 -61 c107 -50 126 -242 34
-334 -84 -84 -217 -50 -267 69 -19 46 -18 165 1 202 8 16 32 41 52 55 45 30
126 34 180 8z"/>
<path d="M895 2013 c-64 -16 -144 -48 -174 -70 -64 -49 -75 -93 -79 -314 -3
-171 -2 -197 13 -209 9 -8 19 -9 24 -4 5 5 11 99 13 209 5 253 14 274 133 316
109 38 141 40 199 11 68 -34 152 -35 216 -2 50 26 88 27 164 5 51 -16 74 -9
63 18 -6 17 -109 47 -160 47 -20 0 -55 -10 -77 -21 -66 -35 -120 -36 -183 -5
-51 25 -102 31 -152 19z"/>
<path d="M2035 1990 c-84 -17 -205 -76 -205 -101 0 -22 34 -20 78 4 48 25 146
57 178 57 10 0 38 -10 63 -22 64 -32 159 -31 223 1 l47 24 68 -18 c194 -51
223 -95 223 -339 0 -145 6 -173 34 -163 14 5 16 28 16 160 0 231 -24 290 -143
346 -34 16 -95 37 -135 47 l-73 19 -48 -28 c-65 -36 -139 -37 -196 -2 -42 26
-64 28 -130 15z"/>
<path d="M1505 1923 c-11 -3 -35 -16 -54 -30 -111 -84 -85 -294 42 -342 45
-17 114 -13 158 9 97 50 127 205 58 301 -38 54 -127 80 -204 62z m134 -62 c56
-31 76 -158 33 -219 -80 -112 -242 -50 -242 93 0 119 104 182 209 126z"/>
<path d="M1890 1803 c-38 -15 -74 -50 -91 -87 -38 -85 -16 -185 53 -236 47
-35 148 -36 197 -1 92 66 93 236 0 301 -33 24 -125 37 -159 23z m123 -55 c50
-26 73 -128 42 -188 -22 -42 -53 -60 -105 -60 -76 0 -120 49 -120 133 0 101
94 161 183 115z"/>
<path d="M260 1703 c-8 -3 -23 -12 -32 -21 -47 -41 5 -286 119 -562 64 -156
130 -262 228 -368 95 -102 192 -171 361 -256 115 -58 161 -87 193 -121 42 -46
65 -56 74 -31 7 17 -22 61 -64 96 -19 15 -104 63 -189 106 -166 84 -229 129
-328 232 -126 132 -210 289 -298 560 -61 186 -80 304 -50 315 50 19 110 -46
169 -184 40 -93 110 -155 132 -119 4 6 -8 27 -25 47 -18 20 -51 77 -74 127
-48 102 -99 160 -154 176 -41 11 -40 11 -62 3z"/>
<path d="M3083 1696 c-51 -23 -93 -75 -138 -171 -23 -49 -57 -107 -74 -129
-17 -21 -28 -42 -25 -47 23 -37 100 38 136 133 41 105 119 188 162 172 65 -25
-96 -527 -239 -743 -60 -91 -188 -220 -275 -276 -36 -24 -120 -70 -187 -103
-67 -34 -136 -71 -154 -84 -40 -29 -79 -86 -72 -104 9 -25 32 -15 74 31 32 34
79 64 200 125 356 180 516 381 656 825 67 215 81 325 45 358 -26 24 -72 29
-109 13z"/>
<path d="M837 1673 c-4 -3 -7 -79 -7 -168 0 -130 3 -165 15 -175 30 -25 35 0
35 176 0 162 -1 174 -18 174 -10 0 -22 -3 -25 -7z"/>
<path d="M2525 1668 c-3 -8 -4 -86 -3 -173 3 -158 3 -160 26 -163 l22 -3 -2
173 c-3 155 -5 173 -21 176 -9 2 -19 -3 -22 -10z"/>
<path d="M1368 1506 c-104 -28 -141 -85 -136 -213 3 -70 5 -78 23 -78 18 0 20
8 25 85 7 118 30 150 116 164 32 6 48 3 78 -15 47 -27 119 -29 166 -4 19 10
55 21 80 24 57 8 61 32 7 44 -33 8 -47 5 -93 -18 -60 -31 -106 -29 -155 6 -31
22 -46 23 -111 5z"/>
<path d="M1750 1408 c-60 -31 -81 -63 -87 -136 -7 -76 2 -114 25 -110 14 3 18
18 22 80 5 62 10 82 29 102 34 36 89 42 140 17 51 -27 99 -27 156 0 57 27 110
21 143 -16 17 -20 22 -38 22 -83 0 -65 10 -88 35 -78 15 5 17 18 14 85 -4 68
-8 83 -29 107 -51 55 -127 69 -195 34 -50 -25 -102 -25 -140 0 -39 26 -81 25
-135 -2z"/>
<path d="M1382 1338 c-14 -14 -16 -106 -3 -127 5 -8 16 -11 25 -8 14 6 16 19
14 74 -3 66 -13 84 -36 61z"/>
<path d="M630 1300 c-19 -5 -47 -22 -62 -39 -67 -75 -19 -145 207 -294 55 -37
129 -93 165 -126 36 -33 68 -61 71 -61 4 0 13 7 20 16 12 15 6 24 -56 81 -39
35 -117 96 -175 135 -58 39 -124 86 -146 105 -87 71 -78 133 19 133 55 0 96
-16 177 -70 108 -73 186 -100 288 -100 132 -1 280 -59 372 -145 103 -99 130
-191 130 -449 0 -146 6 -170 35 -146 12 10 15 43 15 159 0 187 -13 270 -50
348 -81 164 -248 259 -499 283 -130 12 -150 19 -258 89 -120 77 -183 97 -253
81z"/>
<path d="M2674 1292 c-28 -10 -86 -40 -130 -68 -108 -69 -149 -83 -272 -95
-59 -6 -130 -17 -159 -24 -169 -44 -297 -153 -353 -300 -21 -53 -24 -82 -27
-255 -4 -197 0 -228 31 -217 14 6 16 29 16 169 0 192 15 278 62 356 74 124
268 222 437 222 85 0 167 25 251 77 126 78 161 93 216 93 38 0 55 -5 68 -19
37 -41 -5 -89 -184 -210 -63 -44 -147 -108 -185 -144 -66 -62 -69 -66 -53 -83
16 -16 20 -14 85 46 37 34 106 87 153 118 230 151 286 224 229 296 -40 51
-107 65 -185 38z"/>
</g>
</svg>
