<svg version="1.2" xmlns="http://www.w3.org/2000/svg" viewBox="0 0 1565 2295" width="1565" height="2295"><defs><clipPath clipPathUnits="userSpaceOnUse" id="cp1"><path d="m542.4 1635.8c-0.7-3.4-1.7-6.2-1.9-10.2-7-40.4-5.5-82.2 3.8-122.2 5.5-23.8 13.7-47.1 24.4-69.1 5.7-11.7 12.2-23.1 19.2-34.1 19.2-29.7 43-56.4 70.1-79.1 15.8-13.2 23.7-15.3 41.4-25.6-11.9-5.5-8.8-31.8-5.1-44.3 17.9-6.3 35.2-10.8 50.9-16.7 11.4-4.3 18.2-6.1 22.4-15.8 5.2-11.8 2.1-25.3-7.2-34.2-13.3-12.7-31.7-13.3-48.8-12-11.9 0.9-23.6 3.8-35.4 5.9-2.3-14.3-2.1-15.6-2.8-31-0.5-10.2-7.2-18.2-16-21.2 31.1-13.7 65.6-19.9 99.4-25.7 5.2-0.9 10.4-1.8 15.7-1.4 7.3 0.5 14.2 3.3 21.1 5.7 21.7 7.5 44.8 11 67.7 10.1 11.7-0.4 23.6-2.1 34.1-7.2 11.9-5.8 21.3-15.5 30.5-25.1 11.1-11.6 22.2-23.2 34.8-34 0.6 3.1 1.4 6.2 2.5 9.2 3.1 8.2 9.3 16.6 21 12.5 1.3 0.7 1.8 1 3.1 1.7 3.8 20.3 9.2 40.4 16.1 59.8 4.1 11.4 11 24.2 21 29.4-2.4 2.9-4.7 5.7-7.1 8.6l-1.6 11.1c-1.2 25-10.8 49-24.1 70.1-13.3 21.2-30 39.9-46.8 58.4 21 13.4 39.5 29.8 54.5 48.9 6.7 8.6 12.8 17.7 18 27.4 13.2 24.4 20.8 52.6 19.2 80.1-0.5 7.5-1.6 15-3.5 22.4-5.5 21.2-17.1 40.3-29.8 58.2-19.6 27.7-41.6 54.1-67.5 76-28.3 24-60.1 38.3-90 46.8-5.2 1.5-10.4 2.6-15.7 3.4-27.2 4.3-51 9.4-75 12.3 0 1.7-3.2-25-3.9-40.1-1.7-36-2.6-71.6-20.5-104.2-9.5-17.2-27.6-34-47.1-25.4-4.7 2-8.6 5.4-11.7 9.5-8.3 11.3-9.6 25.1-9.3 38.5 0.4 18.9 2.9 36.4 5.5 53.4 3.6 24.2 7.3 47.3 4.9 71.5 0-0.1 0-0.3 0-0.4-9.4-1.9-27.9-0.9-28-0.9-30 4.6-38.5 10.4-51 15.9-12.3 5.4-24.9 11.3-33.8 21.4-1.8-33.6-11.7-61-17.5-88.7z"/></clipPath></defs><style>.a{fill:#fff}.b{fill:#2c2a29}.c{fill:#fdda24}.d{fill:#1d1d1b}</style><path class="a" d="m675.4 1135.7l24 132c0 0-25.7 35.5-68.4 51.8-42.7 16.3-132.5-25.1-161.9-74.6-29.4-49.5 206.3-109.1 206.3-109.1z"/><path class="b" d="m608.6 1331.5c9.4 0 18-1.3 25.4-4.2 44.6-17 71.2-53.2 72.3-54.7l2.1-2.9-26.3-144.4-8.8 2.2c-19.7 5-193.1 50.1-213 98.1-3.3 8.1-2.8 16.2 1.6 23.5 26.8 45.2 97.1 82.4 146.7 82.4zm81.9-66c-6.8 8.3-29.4 33.5-62.5 46.1-39.3 14.9-124.2-24.9-151.6-71.1-1.6-2.8-1.8-5.3-0.5-8.5 12.1-29.1 121.1-67 192.8-86l21.7 119.3z"/><path class="c" d="m542.4 1635.8c-0.7-3.4-1.7-6.2-1.9-10.2-7-40.4-5.5-82.2 3.8-122.2 5.5-23.8 13.7-47.1 24.4-69.1 5.7-11.7 12.2-23.1 19.2-34.1 19.2-29.7 43-56.4 70.1-79.1 15.8-13.2 23.7-15.3 41.4-25.6-11.9-5.5-8.8-31.8-5.1-44.3 17.9-6.3 35.2-10.8 50.9-16.7 11.4-4.3 18.2-6.1 22.4-15.8 5.2-11.8 2.1-25.3-7.2-34.2-13.3-12.7-31.7-13.3-48.8-12-11.9 0.9-23.6 3.8-35.4 5.9-2.3-14.3-2.1-15.6-2.8-31-0.5-10.2-7.2-18.2-16-21.2 31.1-13.7 65.6-19.9 99.4-25.7 5.2-0.9 10.4-1.8 15.7-1.4 7.3 0.5 14.2 3.3 21.1 5.7 21.7 7.5 44.8 11 67.7 10.1 11.7-0.4 23.6-2.1 34.1-7.2 11.9-5.8 21.3-15.5 30.5-25.1 11.1-11.6 22.2-23.2 34.8-34 0.6 3.1 1.4 6.2 2.5 9.2 3.1 8.2 9.3 16.6 21 12.5 1.3 0.7 1.8 1 3.1 1.7 3.8 20.3 9.2 40.4 16.1 59.8 4.1 11.4 11 24.2 21 29.4-2.4 2.9-4.7 5.7-7.1 8.6l-1.6 11.1c-1.2 25-10.8 49-24.1 70.1-13.3 21.2-30 39.9-46.8 58.4 21 13.4 39.5 29.8 54.5 48.9 6.7 8.6 12.8 17.7 18 27.4 13.2 24.4 20.8 52.6 19.2 80.1-0.5 7.5-1.6 15-3.5 22.4-5.5 21.2-17.1 40.3-29.8 58.2-19.6 27.7-41.6 54.1-67.5 76-28.3 24-60.1 38.3-90 46.8-5.2 1.5-10.4 2.6-15.7 3.4-27.2 4.3-51 9.4-75 12.3 0 1.7-3.2-25-3.9-40.1-1.7-36-2.6-71.6-20.5-104.2-9.5-17.2-27.6-34-47.1-25.4-4.7 2-8.6 5.4-11.7 9.5-8.3 11.3-9.6 25.1-9.3 38.5 0.4 18.9 2.9 36.4 5.5 53.4 3.6 24.2 7.3 47.3 4.9 71.5 0-0.1 0-0.3 0-0.4-9.4-1.9-27.9-0.9-28-0.9-30 4.6-38.5 10.4-51 15.9-12.3 5.4-24.9 11.3-33.8 21.4-1.8-33.6-11.7-61-17.5-88.7z"/><path class="b" d="m559.9 1734.6c2.8 0 5.6-1.2 7.6-3.4 7.3-8.3 18.1-13.4 30.3-18.8 2.1-0.9 4.2-1.9 6.2-2.8 9.6-4.5 18.6-8.8 42.3-12.3 3.4-0.2 15.9-0.5 23 0.6 1.1 0.4 2.5 0.9 3.6 0.6 5.1 0 9.4-3.8 10-8.9 2.5-24.7-0.9-47.5-4.6-71.7l-0.3-2.3c-2.7-18.1-5-34.5-5.4-52.1-0.2-10.8 0.5-23.1 7.3-32.3 2.1-2.8 4.8-5 7.6-6.3 14.4-6.3 28.2 10.2 34.2 21 16 29 17.5 61 19.1 94.8l0.2 5c2.4 50.4 5.6 50.2 14.4 49.8 0.7 0 1.4-0.1 2-0.3 14.5-1.8 28.7-4.4 43.7-7 9.8-1.7 19.8-3.5 30.4-5.2 5.7-0.9 11.4-2.1 16.9-3.7 36.1-10.2 67.6-26.7 93.7-48.8 23.6-20 46.2-45.5 69.2-77.9 11.2-15.9 25-37.2 31.3-61.5 2-7.7 3.3-15.8 3.8-24.3 1.7-28.2-5.3-57.7-20.4-85.5-5.5-10.1-11.8-19.8-18.9-28.8-13.1-16.7-29-31.7-47.1-44.5 13.7-15.3 28.2-32.3 40.1-51.2 15.8-25.4 24.5-50.6 25.6-75l1.1-7.4 5.2-6.4c2-2.4 2.7-5.5 2.1-8.5-0.6-3-2.5-5.6-5.2-7-5.9-3.1-11.9-12-16.1-23.8-6.7-18.9-12-38.5-15.7-58.3-0.5-2.9-2.4-5.5-5-7l-3.1-1.7c-2.7-1.5-5.8-1.7-8.6-0.6-2.3 0.8-5 1.4-7.9-6.5-0.9-2.5-1.6-5-2-7.5-0.7-3.6-3.2-6.5-6.6-7.7-3.4-1.2-7.2-0.5-9.9 1.8-13.1 11.2-24.5 23.2-35.6 34.7-8.4 8.8-17.1 17.9-27.6 23-7.7 3.7-17.3 5.7-30.1 6.2-21.4 0.9-43.7-2.5-64-9.6l-3.1-1.1c-6.1-2.2-13.1-4.7-20.7-5.2-6.5-0.4-12.7 0.6-18.1 1.6-32.3 5.6-68.9 11.9-101.7 26.4-3.8 1.7-6.2 5.5-6 9.7 0.2 4.2 2.9 7.8 6.8 9.1 5.3 1.8 8.9 6.6 9.2 12.2l0.3 5.8c0.5 10.4 0.6 13.5 2.7 26.4 0.4 2.7 1.9 5.1 4.2 6.6 2.2 1.6 5 2.2 7.6 1.7 3.3-0.6 6.7-1.3 10-1.9 8.4-1.7 16.3-3.3 24.4-3.9 15-1.2 30.4-0.9 41 9.2 6.4 6.1 8.4 15 5 22.8-2.1 4.6-4 5.7-14.1 9.4l-2.6 1c-8.4 3.1-17.2 5.9-26.3 8.7-7.9 2.5-16.1 5-24.4 7.9-3.1 1.1-5.4 3.6-6.3 6.7-3.3 11.2-6.2 30.8-0.6 44.2-1.1 0.6-2.2 1.2-3.3 1.7-9.4 5-17.5 9.3-29.2 19.1-28.4 23.8-52.6 51.1-72.1 81.4-7.3 11.3-14 23.1-19.8 35.1-11 22.6-19.5 46.6-25.2 71.2-9.6 41.7-11 85.4-3.9 126.2 0.1 2.5 0.8 5.3 1.5 8.1l0.5 2.4c1.8 8.4 3.9 16.8 6.1 25.3 4.9 19.3 10 39.2 11.2 61.8 0.2 4.1 2.9 7.6 6.8 9q1.7 0.6 3.3 0.6zm95.5-57.9c-6.5 0-11.8 0.3-12.6 0.5-26.1 3.9-36.9 9-47.4 13.9l-5.8 2.6c-7.5 3.3-14.8 6.7-21.5 10.9-2.3-16.6-6.2-31.7-9.9-46.5-2.1-8.3-4.2-16.4-5.9-24.5l-0.7-2.9c-0.4-1.8-0.9-3.7-1.1-5.9-6.8-39.2-5.5-80 3.5-119.2 5.3-23.2 13.3-45.7 23.6-66.9 5.5-11.2 11.8-22.3 18.6-33 18.4-28.5 41.3-54.4 68.1-76.8 10.2-8.5 16.7-12 25.7-16.8 4.2-2.2 8.8-4.7 14.3-7.9 3.3-1.9 5.2-5.5 5-9.2-0.2-3.8-2.4-7.1-5.9-8.7-2.6-1.6-3.6-14.5-0.9-27.3 6.3-2.1 12.5-4 18.6-5.9 9.5-3 18.7-5.8 27.4-9.1l2.6-1c10.7-4 19.9-7.4 25.6-20.2 6.8-15.4 2.9-33.7-9.5-45.6-16.4-15.6-37.8-16.2-56.6-14.8-9 0.7-17.7 2.4-26.1 4.1-0.5-4.3-0.7-7.6-0.9-13.7l-0.3-5.8c-0.3-6.5-2.5-12.7-6.1-17.8 26.5-9.3 55.2-14.2 81-18.7 4.7-0.8 9.2-1.7 13.3-1.3 4.8 0.3 9.8 2.1 15.2 4l3.2 1.1c23 8 47 11.6 71.4 10.7 15.7-0.6 27.8-3.2 38.1-8.2 13.7-6.6 24.2-17.6 33.4-27.2 7.3-7.7 14.9-15.6 22.9-23.1 5.1 9.7 13.1 14.9 22.3 14.9 9.2 0 0.3 0 0.5 0 3.8 18.3 8.8 36.3 15 53.8 3.1 8.8 8.2 19.7 16.1 27.7l-0.5 0.5c-1.2 1.4-1.9 3.2-2.2 5l-1.6 11.1c-1 21.8-8.6 43.8-22.6 66.2-13.2 21-30.5 40.2-45.7 57-2 2.2-2.9 5.2-2.5 8.1 0.4 3 2.1 5.6 4.6 7.2 20.4 13 37.9 28.7 52 46.6 6.4 8.2 12.2 16.9 17.1 26 13 24.1 19.4 50.6 18 74.7-0.4 7.2-1.5 14-3.1 20.4-5.5 21.1-18 40.4-28.2 54.9-22 31.1-43.5 55.3-65.8 74.2-23.9 20.3-52.9 35.3-86.2 44.8-4.8 1.4-9.7 2.4-14.6 3.2-10.7 1.7-20.9 3.5-30.8 5.3-11.6 2.1-22.8 4.1-33.8 5.7-0.9-8.5-2.1-20.7-2.6-29.2l-0.2-5c-1.6-34.7-3.3-70.5-21.6-103.6-12.4-22.5-35.7-40.4-60.1-29.8-6.1 2.7-11.5 7.1-15.7 12.8-10.5 14.2-11.6 31.4-11.3 44.7 0.4 18.8 2.8 35.9 5.6 54.7l0.4 2.3c2.9 19.3 5.7 37.6 5.1 56.2-2.7-0.1-5.4-0.2-8-0.2z"/><g clip-path="url(#cp1)"><path class="b" d="m1046.6 1187.3c-0.3 16.2-13.8 27.8-30.8 26.4-138.1-8.3-273.6-4.1-411.4 8.4-15.7 1.6-27.9-12-26-29 3.9-35.9 5.9-53.8 10-89.6 1.8-15.2 13.4-27.7 28-29.6 133.9-15.4 264.6-25.3 399.2-19.5 17.6 1.2 32.7 20.1 32.5 37.2-0.5 38.2-0.9 57.3-1.5 95.6z"/><path class="b" d="m532.1 1330.4c1.4-15.4 12.2-28.1 25.5-29.6 202.7-22.5 405.8-20.4 606.6 15.6 14.7 3 26.7 17.6 27.4 32.9 1.9 39 2.7 58.5 4.5 97.5 0.7 16.7-12.5 27.7-29.1 24.1-204.6-39.4-412.4-45.8-620.1-29.4-13.2 1-23.2-11.9-21.9-27.9 2.7-33.3 4.1-49.9 7-83.1z"/><path class="b" d="m521.3 1534.5c1.2-16.4 13.1-29.8 27.3-30.3 129.2-3.2 318.3 3.5 447 15.4 16.4 1.9 28.7 15.6 28.2 31.1-1.1 36.8-1.7 55.3-2.9 92.3-0.6 17.4-17 30.1-35.5 27.8-129-13.6-319.4-25.3-449.2-25.3-12.5 0-21.5-12.3-20.6-27.5 2.2-33.5 3.3-50.2 5.8-83.6z"/></g><path class="c" d="m753.5 1635.9c0.7 15 2.5 30.8 1.5 54.2 0.6 50.1-12.5 99.6-31.1 146.2-19.2 48.1-44.1 93.8-66.7 140.4-13.6 28.2-26.7 57.5-29.3 88.7-1.6 18.6 0.6 37.3 3.8 55.6 8.3 47.4 23.9 93.5 46 136.3-71.8-29.8-120.1-108.3-114.5-185.8 1.2-16.5 4.6-32.9 4.9-49.5 0.2-16.6-3.2-34-13.9-46.7 40.3-4.2 74.3-34.9 92.5-71.2 18.2-36.3 23-77.7 25.4-118.2 1.9-32.6 2.5-59.9 0.8-97.6-1.7-24.9-1.2-47.3-4.9-71.5-2.6-17-5.1-34.6-5.5-53.4-0.2-10.2 0.4-20.7 4.5-30.1 4-9.4 11.9-17.6 22-19.7 17.4-3.7 33.1 11.6 41.6 27.2 17.9 32.6 21.2 59.1 23 95.1z"/><path class="b" d="m699.5 2277.3l-12.8-24.6c-21.7-42-36.9-86.9-45-133.4-2.6-14.6-5.3-33.8-3.7-53 2.5-29.7 15.4-58.3 28.3-85.1 6.5-13.3 13.1-26.6 19.7-39.8 16.4-32.7 33.4-66.6 47.2-101.3 22-55.1 32.4-104.2 31.8-150.1 0.8-17.9-0.1-31.8-0.9-44-0.2-3.6-0.5-7.1-0.6-10.6-1.7-34.4-4.5-63.6-24.2-99.5-10.3-18.7-29.6-37-52.6-32.2-12.5 2.6-23.4 12.2-29.2 25.6-5.1 11.9-5.5 24.6-5.3 34.3 0.4 20 3.1 38.4 5.6 54.7 2.3 15.3 2.9 29.9 3.5 45.3 0.3 8.3 0.7 16.7 1.3 25.4 1.8 38.8 1 65.7-0.8 96.3-2.2 38.6-6.7 79.2-24.3 114.2-18.5 37-50.9 62.1-84.5 65.6l-19 2 12.3 14.6c9.8 11.6 11.7 28.2 11.5 40-0.1 9.3-1.3 18.5-2.6 28.3-0.9 6.9-1.8 13.7-2.3 20.6-6 82 44.8 164.4 120.7 195.9l25.6 10.6zm-5.5-754c10.5 0 21.3 10.8 27.6 22.4 16.2 29.4 19.9 52.7 21.8 90.7 0.2 3.6 0.4 7.2 0.7 10.9 0.7 11.7 1.6 25 0.9 42.4 0.5 43.7-9.4 90.3-30.4 142.9-13.5 33.9-30.3 67.4-46.5 99.7-6.7 13.3-13.4 26.6-19.9 40.1-13.8 28.5-27.5 59.1-30.3 92.2-1.8 21.5 1.1 42.4 3.9 58.2 6.7 38.4 18.1 75.8 33.7 111.4-53.3-34.3-86.8-98.3-82.1-162 0.5-6.5 1.3-13 2.2-19.5 1.3-9.9 2.6-20.2 2.7-30.6 0.2-15.1-2.4-28.5-7.6-39.6 34.6-9.2 66.2-36.3 85-73.9 19.2-38.4 24.1-81.4 26.4-122.1 1.8-30.4 2.6-58.8 0.8-98.6-0.6-8.8-0.9-17-1.3-25-0.7-16-1.3-31.2-3.7-47.5-2.3-15.7-5-33.4-5.4-52.1-0.2-7.7 0.1-17.6 3.7-25.9 3.1-7.2 8.7-12.5 14.7-13.8 1-0.2 2-0.3 3.1-0.3z"/><path class="c" d="m836.9 1671.7c15 51.1 26.5 104.7 18.8 157.4-7.6 52.7-37.7 104.7-86.4 126.3 19 12.4 21.1 38.8 23 61.4 3.8 43.2 14.8 86.6 38.5 122.9 23.7 36.3 61.5 64.8 104.4 71-38-42.2-59-97-73.3-151.9-5-19.3-9.3-38.9-9.4-58.9-0.5-52.3 26.7-100.2 45.2-149.1 26.6-70.5 35.7-147.4 23.5-215.5-33.4-20.9-92.9 2.7-84.3 36.5z"/><path class="b" d="m961.4 2224.6l-18.7-20.7c-31.4-34.9-54-81.9-71-147.7-4.6-17.9-8.9-37.1-9.1-56.4-0.4-37.8 14.5-73.1 30.3-110.4 4.9-11.7 9.8-23.3 14.2-35 27.8-73.7 36.3-152.1 24-220.9l-0.8-4.4-3.8-2.4c-26.1-16.4-61.5-9.6-81.5 5-15.4 11.2-22 26.8-17.9 42.6v0.4c13.6 45.9 26.3 100.1 18.6 153-7.9 54.6-38.8 100-80.5 118.5l-17 7.5 15.5 10.2c14.6 9.6 16.6 32.6 18.4 52.9 4.5 51.7 18 94.6 40.2 128.5 26.9 41.1 68.5 69.3 111.4 75.4l27.6 4zm-49.4-582.9c10.5 64.1 2.1 136.8-23.8 205.5-4.3 11.5-9.1 22.9-14 34.3-15.8 37.6-32.2 76.5-31.8 118.5 0.2 21.5 4.8 42.1 9.7 61.3 14.2 54.9 32.3 97.5 56 131.5-26.7-11-51.2-31.7-68.8-58.6-20.3-31.1-32.7-70.8-36.9-118.2-1.7-19.5-3.7-42.1-15.8-58.1 41.2-24.2 71-71.6 79.1-127.3 8.2-56.8-5-113.5-19.1-161.5-2.3-9.5 4.3-16.7 10.3-21.1 13.5-9.9 37.6-14.6 55.1-6.3z"/><path class="c" d="m1488 759.5c-26.8-6.9-54.9-4.1-82.4-1.8-27.5 2.3-55.9 4.1-82.2-4.6-5.5-1.8-11.1-4.3-14.4-9-4.1-5.7-4-13.5-3-20.5 2.1-14.8 7.1-29.1 9.5-43.9 2.9-18.1 1.4-38.3-13.3-51.3-7.1-6.3-17-9.2-26.2-6.6-16.9 4.6-21.8 23.2-21 39.1 0.6 13.9 4.3 27.9 1.9 41.6-4.1 23.2-24.8 40.4-30.9 63.2-5.2 19.5 0.9 40 2.9 60 0.3 2.6 0.4 5.2-0.5 7.6-1 2.7-3.4 4.8-5.6 6.7-81.1 69.2-157.5 143.8-228.6 223.2-2.1 2.4-4.6 4.4-7.4 5.8q0.3 1.5 0.6 3c3.8 20.3 9.2 40.2 16 59.7 4.1 11.4 11 24.2 21 29.4 80.5-98 162.5-194.7 246.1-287.3 55.9 28.6 126 27.6 181.1-2.5 3.5-1.9 6.9-3.9 10.8-4.8 4.8-1.1 9.9-0.4 14.8 0.2 22.6 2.9 45.5 4 68.3 3.1 5.2-0.2 11.1-0.8 13.4-6.1 1.4-3.2 0.8-6.9-1.2-9.8-4.1-5.9-11-7.6-17.6-9.1l10.9-5.6c5-2.6 6.6-9.1 3.2-13.7-4.3-5.7-12.3-8.4-20.9-12.4l2.9-0.3c5.9-0.5 9.4-6.7 6.9-12-10-20.9-32.1-35.5-55-41.4z"/><path class="b" d="m1024.3 1171.4c2.9 0 5.8-1.3 7.8-3.7 88.7-107.9 167.5-200 240.7-281.3 57.8 26.7 127.4 24.6 183.5-6 3.6-2 6.1-3.4 8.3-3.9 2.9-0.7 6.7-0.2 10.7 0.3 23.6 3.1 47.2 4.1 70.5 3.2 4.7-0.2 17.2-0.7 22.3-12.2 2.8-6.4 2-13.7-2.1-19.6-1.3-1.9-2.8-3.6-4.4-4.9 1.9-2.3 3.2-5 3.9-8 1.3-5.5 0-11.3-3.3-15.9-2.6-3.5-6-6.1-9.6-8.3 1.8-4.7 1.7-10-0.5-14.7-10.6-22.1-33.7-39.6-61.6-46.8-27.4-7-55.5-4.7-82.7-2.3l-3.1 0.3c-27.6 2.3-54.3 3.8-78.1-4.2-3.4-1.1-7.6-2.8-9.4-5.3-1.7-2.4-2.1-6.7-1.2-13.2 1-7.3 2.8-14.5 4.7-22.1 1.8-7.1 3.6-14.3 4.7-21.6 4.2-26.2-1.5-47.1-16.5-60.5-10-8.9-23.3-12.2-35.6-8.8-18.7 5.1-29.6 24.1-28.5 49.4 0.2 4.9 0.8 9.7 1.4 14.6 1 8.8 2 17.1 0.6 24.8-1.8 10.3-7.9 19.8-14.4 29.8-6.4 10-13 20.3-16.3 32.5-4.4 16.4-1.9 32.6 0.5 48.3 0.8 5.2 1.6 10.3 2.1 15.4 0 0.7 0.3 2.5 0.1 3.1-0.3 0.4-1.8 1.8-2.7 2.5-81.1 69.2-158.4 144.6-229.6 224.2-1.4 1.5-2.9 2.7-4.4 3.5-4 2-6.3 6.5-5.4 10.9l0.6 3c3.9 20.8 9.4 41.4 16.5 61.2 4.3 12.1 12.2 27.9 25.8 35 1.5 0.8 3.1 1.1 4.7 1.1zm246.1-307.6c-2.8 0-5.5 1.2-7.5 3.3-73.1 81-151.7 172.6-240 279.9-3.7-4.4-7.3-10.9-10-18.6-6.3-17.7-11.3-36.1-15-54.6 1.3-1.1 2.6-2.4 3.8-3.7 70.6-78.9 147.2-153.7 227.6-222.3 2.6-2.2 6.5-5.6 8.5-10.7 1.7-4.4 1.5-8.6 1.1-12.3-0.6-5.5-1.4-11-2.2-16.5-2.2-14.2-4.3-27.7-1-40 2.5-9.2 8-17.8 13.8-26.9 7.2-11.3 14.7-22.9 17.3-37.2 1.9-10.7 0.7-20.9-0.5-30.7-0.5-4.4-1-8.8-1.3-13.1-0.3-5.8 0-25.1 13.6-28.9 5.6-1.5 11.9 0 16.8 4.4 9.7 8.6 13.1 22.8 10 42.1-1.1 6.7-2.7 13.3-4.4 19.9-2 7.8-4 15.9-5.1 24.2-1 7.6-1.7 18.7 4.8 27.8 5.2 7.2 13.1 10.6 19.5 12.7 27.5 9.1 56.5 7.6 86.2 5.1l3.1-0.3c25.5-2.2 51.9-4.4 76 1.8 21 5.4 38.9 18.3 47.4 33.9l-0.5-0.2c-4.6 0.4-8.3 3.8-9.1 8.4-0.8 4.5 1.6 9 5.7 10.9l4.9 2.2c5.5 2.4 10.3 4.5 12.2 7l-10.6 4.2c-3.8 2-5.9 6.1-5.4 10.3 0.5 4.2 3.7 7.6 7.8 8.6 5.5 1.3 9.6 2.3 11.4 4.8-0.5 0-1.8 0.2-4.2 0.3-22.2 0.9-44.7-0.1-66.7-3-5.9-0.8-12-1.5-18.5 0-4.8 1.1-8.8 3.3-12.4 5.3-53.5 29.2-119.2 30.1-172.6 2.9-1.5-0.8-3-1.1-4.6-1.1zm217.6-104.3h-0.2z"/><path class="c" d="m1274.7 817.6c6.1-12.1 18.1-21.1 31.5-23.6 13.3-2.5 27.8 1.5 37.9 10.5"/><path class="b" d="m1274.7 817.6c15.8-23 46.3-28.7 69.4-13.1-18.3-23-60.7-15-69.4 13.1z"/><path class="b" d="m1546.9 820.8c2 0 3.7-1.3 4.1-3.3 0.5-2.3-1-4.5-3.2-5-28.8-6.2-59.3-9.5-88.1-9.6-2.3 0-4.2 1.9-4.2 4.2 0 2.3 1.9 4.2 4.2 4.2 28.2 0.1 58.1 3.4 86.4 9.4q0.5 0 0.9 0z"/><path class="b" d="m1547.1 853.5c1.9 0 3.7-1.3 4.1-3.3 0.5-2.3-0.9-4.5-3.1-5.1-33-7.8-60.7-12.7-87.1-12-2.8-10.3-6.5-22.4-14.8-31.1-3-3.2-6.7-6.1-11.7-9.2-5.8-3.6-11.8-6.5-17.8-8.6-2.2-0.8-4.6 0.4-5.4 2.6-0.8 2.2 0.4 4.6 2.6 5.4 5.5 1.9 10.9 4.6 16.2 7.8 4.4 2.7 7.6 5.2 10 7.8 7.8 8.1 10.9 20.1 13.6 30.7l0.9 3.3 3.4-0.2c26.4-1.3 54.5 3.8 88.2 11.7 0.3 0 0.6 0.1 1 0.1z"/><path class="c" d="m769.4 1213.8c2.5-8.5 0.7-17.8-4.8-24.7-13.5-17.1-34-18.1-53-16.6-11.9 0.9-23.8 2.7-35.6 4.8 0 0.4 0.1 0.7 0.2 1.1-97.6 30.5-193 67.9-285.3 111.9-6.5 3.1-13.1 6.2-20.3 6.6-6.1 0.3-12-1.4-18-2.6-32.3-7-67-1.6-95.7 14.8-28.6 16.4-50.9 43.6-61.3 74.9-21.2-3.5-46.9-12.9-63.7-10.4-5.9 0.9-13.3 7.2-12.1 15.6 2.1 14.5 18.4 25.9 31.5 32.5 11 5.7 23.5 7.6 35.9 8.8 44.2 4.3 89.3-0.2 132.6-10.5 6.3-1.5 12.7 2.5 14 8.8 3.1 14.6 5.7 29.3 11.6 42.9 8.4 19.2 25.8 36.5 47.6 34.8 2.6-0.2 5.2-0.9 7.5-2.2 12.4-6.7 10.1-20.5 6.6-31.6-2.7-8.6-6-17.1-9.7-25.4-2.4-5.3-5.1-10.8-4.9-16.7 0.2-9.2 7.1-16.5 12-24.3 10.8-17 12.8-39.3 6.1-53.6 86.4-54 187-79.6 283.7-101.6-0.2 0.6-0.4 1.2-0.6 1.7 17.9-6.3 35.8-12.6 51.5-18.5 13.1-4.9 20.1-6.6 24.2-20.7z"/><path class="b" d="m390.1 1516.8c1.2 0 2.5 0 3.8-0.1 4-0.3 8-1.5 11.5-3.4 14.3-7.8 18.1-22.4 11.4-43.5-2.9-9-6.3-18-10.1-26.5-2.3-5.1-4.1-9.1-4-12.2 0-4.1 3.4-8.8 6.8-13.7 1.3-1.8 2.5-3.6 3.7-5.4 10.5-16.5 14-37.7 9.7-54.7 78.4-47.1 169.1-71.9 256.8-92.2l-1.2 4 23.1-8c16.4-5.8 32.8-11.5 47.3-17l2.6-0.9c12.1-4.5 22.5-8.3 27.8-26.4 3.4-11.7 0.9-24.3-6.6-33.8-16.6-21.1-41.7-22-61.7-20.4-11 0.9-22.6 2.4-36.6 5l-9.8 1.8 0.4 2.3c-94.9 30.1-188.5 67-278.2 109.8-5.8 2.8-11.3 5.4-16.5 5.7-3.6 0.2-7.8-0.7-12.2-1.7l-3.1-0.7c-34.6-7.4-72.1-1.7-102.8 15.9-28.2 16.1-50.7 42.1-62.8 72.2-4.4-0.9-8.9-2-13.3-3.1-15.8-3.8-32.2-7.8-45.3-5.8-11.4 1.7-22.6 13.2-20.6 27.1 2.7 18.9 21.6 32.3 36.9 40.1 12.8 6.5 26.5 8.6 39.5 9.9 42.7 4.2 88.5 0.5 135.9-10.8l1.8 1.1 1.2 5.7c2.7 12.9 5.5 26.3 11.1 39.1 8.5 19.3 27.5 41 53.9 41zm310.4-276.9l-8.4 1.5c-97.1 22.1-199.2 48.2-286.8 102.9l-7.6 4.8 3.8 8.1c5.5 11.6 3.1 30.5-5.4 43.9-1 1.6-2.1 3.1-3.2 4.7-4.8 6.8-10.2 14.6-10.4 24.8-0.2 7.8 2.8 14.3 5.4 20.1 4 8.8 7.1 17 9.7 25.3 5 15.9 0.6 18.3-1.8 19.6-1 0.5-2.1 0.9-3.4 1-17.9 1.1-31.4-14.7-37.6-28.8-4.7-10.8-7.2-22.6-9.8-35l-1.2-5.8c-1.2-5.7-4.6-10.6-9.6-13.8-5-3.1-10.9-4.1-16.7-2.8-45.2 10.8-88.7 14.3-129.2 10.3-11-1.1-22.5-2.8-32.2-7.7-15.2-7.8-24.9-17.1-26.1-25-0.3-2.1 2.5-4 3.5-4.1 9.3-1.3 23.7 2.1 37.6 5.5 7.8 1.9 15.7 3.7 23 5l8.5 1.4 2.7-8.2c9.6-28.9 30.3-54.2 56.7-69.3 26.5-15.1 58.8-20.1 88.5-13.7l2.9 0.7c5.3 1.2 11.2 2.6 17.7 2.2 9.2-0.5 17.1-4.3 24.1-7.6 91.6-43.6 187.1-81.1 284-111.3l7.4-2.3c9.5-1.5 17.8-2.6 25.8-3.2 16.7-1.3 33.6-0.6 44.2 12.8 3.5 4.4 4.6 10.2 3 15.6-2.4 8.2-4.7 9.1-15.4 13l-2.6 1c-12.7 4.8-26.8 9.8-41.2 14.9z"/><path class="c" d="m207.6 1359.4c14.1-4.7 28.7-8.3 43.4-10.5"/><path class="c" d="m193.3 1388.9c11.8 4.5 25.7 4.5 27.5 4.3 12.4-1.3 31.4-4.4 51-15.8"/><path class="d" d="m207.6 1363.6c0.4 0 0.9 0 1.3-0.2 13.8-4.6 28.2-8.1 42.7-10.3 2.3-0.3 3.9-2.5 3.5-4.8-0.3-2.3-2.6-3.9-4.8-3.5-15 2.3-29.8 5.9-44.1 10.7-2.2 0.7-3.4 3.1-2.6 5.3 0.6 1.8 2.2 2.9 4 2.9z"/><path class="d" d="m218.7 1397.5c1.2 0 2.1 0 2.6 0 13-1.4 32.7-4.7 52.7-16.3 2-1.2 2.7-3.8 1.5-5.8-1.2-2-3.8-2.7-5.8-1.5-18.6 10.9-37.1 13.9-49.4 15.2-1.6 0.2-14.6 0.2-25.5-4-2.2-0.8-4.6 0.2-5.5 2.4-0.8 2.2 0.2 4.6 2.4 5.5 9.8 3.8 21.4 4.7 26.9 4.7z"/><path class="c" d="m756.8 1100.5c5.2-0.9 10.4-1.8 15.7-1.4 7.3 0.5 14.2 3.3 21.1 5.7 21.7 7.5 44.8 11 67.7 10.1 11.7-0.4 23.6-2.1 34.1-7.2 11.9-5.8 25.8-16.7 34.9-26.3 0.6-0.6 32.9-40.1 43.3-62.4 8.8-18.9 17.5-40 23-51.9 15.6-33.9 34.8-66.1 57.9-95.4 61-77.4 105.3-133.2 143.4-226.8 24.8-63.9 24.7-137.7-3.1-200.3-27.8-62.7-83.5-112.9-149.6-131.4-12.3-3.4-24.9-5.8-36.6-10.8-12-5.1-22.7-12.7-33.5-20.1-35.1-24.3-71.9-47.2-112.9-59.1-36.8-10.7-75.7-12-113.9-10-97.4 5.2-187.5 44.4-278.8 81.6-114.2 46.5-209.4 110.2-293.5 200.2-19.5 20.9-39.6 57.9-56.2 83.5-19.8 30.6-37.1 62.9-51.1 96.5-39.3 94.6-61.6 199.7-40 299.8 21.7 100.8 102.1 195.6 202.1 220.9 74.2 18.7 154.5 7.2 228.5-12.3 62.8-16.6 107.6-31.2 167.6-48.9 3.7-1.1 16.5-6 24.6-7.8 5.6-1.2 11.2-2.8 16.6-4.8 28.2-10.8 58.8-16.1 88.7-21.3z"/><path class="b" d="m311.9 1215.5c44.4 0 93.6-7.4 150-22.2 44.4-11.7 80.1-22.6 117.9-34 15.9-4.8 32.2-9.8 49.9-15 1.2-0.4 3.3-1.1 5.8-2 5.2-1.8 13-4.6 18.1-5.7 6.8-1.5 12.7-3.2 18-5.2 28-10.6 59.2-16 86.9-20.8 4.7-0.8 9.1-1.7 13.3-1.3 4.8 0.3 9.9 2.1 15.3 4.1l3 1.1c23.1 8 47.2 11.6 71.4 10.7 9.9-0.4 24.6-1.7 38.1-8.2 12.1-5.8 26.9-17 37.9-28.4 0.4-0.4 34-41.3 45.2-65.1 5.3-11.3 10.6-23.5 15.1-34 3-7 5.8-13.2 7.9-18 15.7-34.3 34.8-65.7 56.6-93.4l1.6-2.1c60.9-77.2 104.8-133.1 143.2-227.2 26.5-68.1 25.3-144-3.2-208.3-29.6-66.7-87.9-117.9-156.1-137-3.6-1-7.2-1.9-10.9-2.9-8.7-2.2-16.9-4.3-24.5-7.5-10.3-4.4-19.7-10.9-29.6-17.7l-2-1.4c-34.7-24-72.8-48-115.8-60.5-33-9.6-70.3-12.9-117.2-10.4-92.9 4.9-180.3 40.6-264.7 75.2l-17.4 7.1c-118.6 48.3-213 112.7-297.1 202.7-14.9 16-30 40.6-43.4 62.4-4.9 7.9-9.5 15.6-14 22.5-20.7 32-38.2 65-52 98.2-46.5 111.9-60.1 214.7-40.5 305.8 23.5 109.3 109.7 203.3 209.5 228.5 26.1 6.6 53.7 9.9 83.5 9.9zm443.2-124.9c-28.5 4.9-60.8 10.5-90.6 21.8-4.4 1.7-9.3 3.1-15.2 4.4-6.3 1.4-14.4 4.2-20.4 6.3-2.2 0.8-3.9 1.4-4.9 1.7-17.7 5.2-34.1 10.2-50 15-37.6 11.4-73.1 22.2-117.2 33.8-90.8 24-161.8 27.8-223.4 12.3-92.6-23.4-172.7-111.1-194.6-213.2-18.7-86.9-5.5-185.8 39.5-293.7 13.3-32 30.2-64 50.2-94.9 4.5-7 9.3-14.8 14.3-22.9 12.8-20.9 27.3-44.7 40.9-59.2 82-87.8 174.1-150.6 290-197.8l17.4-7.1c86.7-35.5 168.6-69 258.1-73.7 44.6-2.4 79.8 0.7 110.5 9.6 40.2 11.7 76.6 34.6 109.9 57.7l2 1.4c10.3 7.2 21 14.6 33.3 19.7 9.1 3.8 18.4 6.2 27.4 8.5 3.5 0.9 7 1.8 10.4 2.7 62.4 17.4 115.8 64.4 143 125.7 26.4 59.4 27.4 129.6 2.9 192.6-37.2 91.4-80.5 146.2-140.3 222.2l-1.6 2.1c-22.8 29-42.7 61.8-59.1 97.5-2.2 4.9-5 11.2-8.1 18.4-4.5 10.3-9.7 22.3-14.9 33.4-9.1 19.4-38 55.6-41.8 60.1-8.9 9.3-21.8 19-31.7 23.8-7.7 3.7-17.3 5.7-30.1 6.2-21.6 0.9-43.6-2.5-64-9.6l-2.9-1c-6.2-2.2-13.2-4.7-20.8-5.3-6.4-0.4-12.6 0.6-18 1.6l1.7 10-1.7-10z"/><path class="b" d="m1192.7 533.4c-20.2 13-26.8-20.9-30.3-5.6 0 10.1 12.4 11.5 8.3 21.4-16.4 39.3-48.3 73.1-84.6 95.9q-3.9 2.4-8.1 4.2c-149.3 65.6-321.6 188.8-490.2 256.7-84 23.5-158.5 23.5-235.6-8.7-14.4-7.2-6.3-33.7-18.8-28.8-3.6 7.5-3.5 17.6-12.5 22.2-2.6 1.7-5.9 3.2-6.5 6.3 0.7 11.2 14.6 4.5 21 2.4 5.6-1 14.1 3.2 19.1 6.1 3.8 2.2 7.8 4 11.8 5.6 10.8 4.2 31.3 9.7 42.6 12.3 12.3 2.8 28.7 3.8 35.4 4.6h0.2c23.6 2.2 43.6 3.1 66 1.9 13-0.7 27.4-3.9 39.2 0.6 1.2 0.5 4.1 1.5 4.4 1.4 116.2 36.9 88.8 39.2 258 123.5 114.6 55.8 141-76.4 148.5-97.9 7.5-21.4 44.5-125.3 44.5-125.3l42.6-96.1c0 0 10.5-46.2 32.2-73.2 2.3-2.8 4.4-5.8 6.4-8.9 1-1.5 1.9-2.8 3.5-4.4 30.8-21.2 43-30.5 73.7-74.4 8.2-11.7 12.5-26.6 18.9-31 3-2.1 8.4-2.6 10-3.6 4-2.5 7.9-9.5 0-7.2z"/><path class="a" d="m1017.6 681c8.1 19.5 12.6 38.5 19.2 63 0.9 3.4 2.7 6.9 1.6 10.3-0.8 2.5-2.9 4.4-4.9 6.2-9.6 8.4-14.2 12.5-23.8 20.9-44.5 38.9-95.6 69.2-139 90.8-32.1 15.9-61.4 28.2-84.4 34.3-26.8 7.1-42.9 11.4-70 17.6-54.8 12.6-116.3 24.8-166.4 6.5 164.8-60.8 320.8-145.2 467.7-249.5z"/><path class="c" d="m833.2 981.2c-0.2 0.7 8.9 8.4 10.5 11.1 1 1.7 5.2 9.7 2.1 11-24.4-29.8-82.1-32.1-106.6-0.7 44.3 28.1 101.5 47.4 152.7 25.4 60.2-26-29.1-75.5-58.6-46.7z"/><path class="b" d="m855.1 339.3c8.3-17.2 18.1-29.9 30.1-38.7 13-9.6 29.2-14.7 46.6-14.7 24.8 0 50.7 10.4 69.3 27.8 24.2 22.7 40 56.2 48.3 102.4 11 61.1 7.9 125-9 184.7-1.6 5.6-6.2 9.8-11.9 10.8-10.7 1.9-21.4 5-31.9 9.1-28.5 11.3-54.1 30-74.1 54.2-2.9 3.5-7.2 5.5-11.7 5.5-4.5 0-2.5-0.1-3.7-0.5-5.7-1.4-10-6-11.2-11.7-6.1-29.8-16.1-59.6-25.8-88.5-7.5-22.3-15.2-45.4-21.3-68.7-1.9-7.4-3.7-15.1-5.3-22.9-11.7-58.3-7.8-108.4 11.6-149zm21-6.5q1.2-1.8 2.4-3.6-1.2 1.8-2.4 3.6zm-4.2 7.1c0.8-1.4 1.6-2.9 2.4-4.3-0.8 1.4-1.7 2.8-2.4 4.3zm22.4-27.1c0.8-0.6 1.6-1.1 2.4-1.7-0.8 0.5-1.6 1.1-2.4 1.7zm3.2-2.2c0.6-0.4 1.2-0.7 1.8-1.1-0.6 0.4-1.2 0.7-1.8 1.1zm2.6-1.6c0.7-0.4 1.3-0.7 2-1.1-0.7 0.3-1.3 0.7-2 1.1zm2.6-1.4c0.9-0.4 1.7-0.8 2.6-1.2-0.9 0.4-1.8 0.8-2.6 1.2zm3.3-1.5c0.7-0.3 1.4-0.6 2-0.8-0.7 0.3-1.4 0.5-2 0.8zm3-1.1c0.6-0.2 1.3-0.5 1.9-0.7-0.6 0.2-1.3 0.4-1.9 0.7zm2.8-1c0.9-0.3 1.8-0.6 2.8-0.8-0.9 0.2-1.9 0.5-2.8 0.8zm2.9-0.8q1.3-0.3 2.7-0.6-1.4 0.3-2.7 0.6zm3.6-0.8c0.7-0.1 1.3-0.3 2-0.4-0.7 0.1-1.3 0.2-2 0.4zm3-0.5c0.7-0.1 1.5-0.2 2.2-0.3-0.8 0-1.5 0.2-2.2 0.3zm2.9-0.4c1-0.1 1.9-0.2 2.9-0.2-1 0-1.9 0.1-2.9 0.2zm3.6-0.3c0.7 0 1.5 0 2.2 0-0.7 0-1.5 0-2.2 0zm3.2-0.1c0.5 0 1.1 0 1.6 0-0.2 0-0.5 0-0.7 0-0.2 0-0.6 0-0.9 0zm4.1 0.1c0.4 0 0.9 0 1.3 0-0.4 0-0.9 0-1.3 0zm4 0.2q0.4 0 0.9 0-0.5 0-0.9 0zm4.6 0.6c0.3 0 0.6 0 0.8 0.1-0.3 0-0.6 0-0.8-0.1zm3.7 0.6c0.4 0 0.9 0.2 1.3 0.3-0.4 0-0.8-0.2-1.3-0.3zm3.7 0.8c0.4 0.1 0.9 0.2 1.3 0.3-0.4-0.1-0.9-0.2-1.3-0.3zm3.7 1.1q0.6 0.1 1.2 0.3-0.6-0.2-1.2-0.3zm4.6 1.4c0 0 0.1 0 0.2 0 0 0-0.1 0-0.2 0zm3.7 1.4c0.4 0.2 0.7 0.3 1.1 0.5-0.4-0.2-0.7-0.3-1.1-0.5zm3.5 1.5c0.4 0.2 0.8 0.4 1.3 0.6-0.4-0.2-0.8-0.4-1.3-0.6zm3.5 1.6q0.6 0.3 1.2 0.6-0.6-0.3-1.2-0.6zm3.6 2c0.3 0.2 0.6 0.3 0.8 0.5-0.3-0.2-0.6-0.3-0.8-0.5zm4.1 2.4c0.3 0.2 0.5 0.3 0.8 0.5-0.3-0.2-0.5-0.3-0.8-0.5zm3.1 2.1c0.4 0.2 0.7 0.5 1.1 0.8-0.4-0.3-0.7-0.5-1.1-0.8zm3.1 2.2c0.4 0.3 0.7 0.5 1.1 0.8-0.4-0.3-0.7-0.6-1.1-0.8zm3.1 2.4c0.3 0.3 0.6 0.5 0.9 0.8-0.3-0.3-0.6-0.5-0.9-0.8zm12.7 12.8c1.4 1.7 2.7 3.4 4 5.1-1.3-1.7-2.6-3.4-4-5.1zm24.9 45.9q1 3.1 2.1 6.3c-0.7-2.1-1.3-4.2-2.1-6.3zm5 16.6c-0.3-1.3-0.7-2.6-1-3.9 0.4 1.3 0.7 2.6 1 3.9zm3 12.8c0-0.4-0.2-0.8-0.3-1.3 0 0.4 0.2 0.8 0.3 1.3zm-1.4-6.3c-0.1-0.5-0.2-0.9-0.3-1.4 0.1 0.5 0.2 0.9 0.3 1.4zm6.5 37.7c0.9 7.4 1.6 14.9 2.1 22.4-0.5-7.5-1.2-14.9-2.1-22.4zm2.4 28c0.2 3.7 0.3 7.5 0.4 11.2 0-3.7-0.2-7.5-0.4-11.2zm-49.2 137.7c11.3-4.5 22.9-7.8 34.8-10-11.9 2.1-23.5 5.5-34.8 10-23.1 9.2-44.5 22.9-62.6 40 18.2-17 39.6-30.8 62.6-40zm-63.2 40.5c-6 5.7-11.7 11.8-17 18.1 5.3-6.4 11-12.4 17-18.1zm-47.8-85.6c-1.1-3.3-2.2-6.5-3.2-9.8 1.1 3.3 2.1 6.5 3.2 9.8zm-21.6-76.3c1.5 7.4 3.2 14.8 5.1 22.1 3 11.6 6.5 23.2 10.1 34.7-3.6-11.5-7.1-23-10.1-34.7-1.9-7.3-3.6-14.6-5.1-22.1-5.6-27.9-8.1-56.7-5-84.5q0.4-4.4 1.2-8.7-0.8 4.4-1.2 8.7c-3.2 27.8-0.7 56.6 5 84.5z"/><path class="b" d="m970.1 309.6c1.4 0.3 7-2.3 8.6-3.1 17.9-8.5 32.6-25.4 39.7-43.7 3-7.7 6.3-19.1 7.9-25.1 0.3-1.2 2-1.2 2.4 0 9.3 32.4-15.4 71.4-46.4 81.6-4.8-2.7-9.6-6.2-13.6-10.4 0.6 0.4 1.1 0.6 1.4 0.7z"/><path class="b" d="m943.1 289.4c9-19.1 4.1-56.6 3.1-67.3-0.1-1.2 1.4-1.8 2.2-0.9 4.1 4.8 9.1 16 10.9 23.1 5.3 20.8 1.6 43.7-9.9 61.6-5.3 0.5-10.2-1-15.2-2.6 2-0.7 7.8-11.6 8.9-14z"/><path class="b" d="m889 299.6c8.4-19.4 2.2-56.7 0.8-67.3-0.2-1.2 1.3-1.9 2.1-1 4.3 4.6 9.6 15.7 11.7 22.7 6 20.6 3 43.6-7.8 61.9-5.3 0.6-10.3-0.6-15.2-2.1 2-0.8 7.4-11.9 8.5-14.3z"/><path class="b" d="m972.8 501.7c-4.7-9.2-10.3-18.2-18.3-24.7-14.9-12-35.8-13.6-54.7-10.5-15.2 2.5-30.5 8.2-41.4 18.8 1.5 7.4 3.2 14.8 5.1 22.1 13.8 53.2 36.3 104.1 47.2 158 21.3-25.7 49.2-46.4 80.2-58.7 4.4-35.8-1.9-72.8-18.2-105z"/><path class="a" d="m990.8 324.8c-25.7-24.1-68.2-32.8-96.5-12-11.3 8.3-19.4 20.4-25.4 33.1-20.5 42.8-19.9 92.4-10.4 139.4 10.8-10.6 26.2-16.3 41.4-18.8 18.9-3.1 39.8-1.5 54.7 10.5 8 6.5 13.6 15.5 18.3 24.7 16.3 32.2 22.7 69.2 18.2 105 11.2-4.5 22.9-7.8 34.8-9.9 16.3-57.6 19.3-119 8.7-177.9-6.2-34.6-18.1-70-43.7-94z"/><path class="b" d="m469 569.7c-0.6 1.3-6.1 4-7.7 4.8-17.7 8.8-40.1 10-58.9 4.3-7.9-2.4-18.9-6.8-24.7-9.2-5.8-2.4-2.2 0.9-1.5 1.9 19.8 27.3 65.7 31.9 92.8 13.8 0.8-5.5 1-11.4 0.2-17.1 0 0.7-0.2 1.3-0.3 1.5z"/><path class="b" d="m469.6 535.9c-20.9-3.3-49.1-28.4-57.4-35.3-0.9-0.8-2.3 0-2 1.3 1.6 6.1 8.1 16.5 13 22 14.2 16.1 35.2 25.9 56.6 26.5 3.4-4.1 5-9 6.4-14-1.7 1.3-14 0-16.6-0.5z"/><path class="b" d="m511.7 506.1c-20.5-5.2-46.3-32.8-53.9-40.4-0.8-0.8-2.3-0.1-2.1 1.1 1.1 6.2 6.6 17.1 10.9 23.1 12.6 17.3 32.7 29 53.9 31.5 3.7-3.8 5.8-8.5 7.6-13.4-1.8 1.1-13.9-1.4-16.5-2z"/><path class="a" d="m792.4 731.7c-20 3.1-40.1 8.1-59.4 15.7-4.3 1.7-8.5 3.4-12.6 5.4-23 10.6-44.5 25.7-59.5 46.1-33.4-18.7-67.2-39-99.9-61.2-6.6-4.5-13.2-9.1-19.6-13.9-24.2-17.9-46.6-38.3-61.4-64.3-18.7-32.9-22.4-76.9 0-107.4 18.1-24.6 50.2-36.1 80.7-35.1 30.5 1 59.7 13.1 86.2 28.2 70.5 40.3 128.5 107 145.4 186.5z"/><path class="b" d="m557.1 501.7q2.1 0 4.2 0c28.9 1 59.3 10.9 93.2 30.2 80.3 45.9 136 117.5 152.8 196.5l3.3 15.7-15.8 2.5c-20.4 3.2-39.4 8.2-56.2 14.8-3.9 1.5-7.9 3.2-11.8 5-23.4 10.8-41.5 24.7-53.6 41.3l-7.9 10.8-11.7-6.6c-37.8-21.2-70.9-41.4-101-61.9-6.8-4.6-13.5-9.4-20.1-14.3-19.5-14.5-47.6-37.3-65.5-69-19.6-34.5-26.8-86.1 1-123.9 19.1-25.9 52.5-41.3 89.3-41.3zm0 15.2c-29.4 0-59.7 11.6-77.1 35.2-22.5 30.5-18.7 74.5 0 107.4 14.7 26 37.2 46.4 61.4 64.3 6.5 4.8 13 9.4 19.6 13.9 32.6 22.2 66.5 42.5 99.9 61.2 15-20.5 36.5-35.5 59.5-46.1q6.3-2.8 12.6-5.4c19.3-7.5 39.4-12.5 59.4-15.7-16.9-79.4-74.9-146.2-145.4-186.5-26.5-15.2-55.7-27.2-86.2-28.2-1.2 0-2.4 0-3.7 0"/><path class="a" d="m647 545.2c-26.5-15.2-55.6-27.2-86.2-28.2-30.5-1-62.6 10.5-80.7 35.1-22.5 30.5-18.7 74.5 0 107.4 14.8 26 37.2 46.4 61.4 64.3 0.8-12 2.4-24 5.5-35.6 5.7-21.6 17.3-42.3 35.9-54.7 22.8-15.2 53.7-15.5 78.6-3.9 24.9 11.5 43.9 33.5 55.5 58.3 8.8 18.7 13.6 39 16.2 59.5 19.3-7.5 39.4-12.5 59.4-15.7-16.9-79.4-74.9-146.2-145.5-186.5z"/><path class="b" d="m716.8 687.8c-11.6-24.8-30.6-46.8-55.5-58.3-24.9-11.5-55.8-11.3-78.6 3.9-18.5 12.4-30.1 33.2-35.9 54.7-3.1 11.6-4.6 23.6-5.5 35.6 6.5 4.8 13 9.4 19.6 13.9 32.6 22.2 66.5 42.5 99.9 61.2 15-20.5 36.5-35.5 59.5-46.1 4.2-1.9 8.4-3.7 12.7-5.4-2.6-20.6-7.5-40.8-16.2-59.5z"/><path fill-rule="evenodd" class="a" d="m630.2 636.8c12 0 21.7 9.7 21.7 21.7 0 12-9.7 21.7-21.7 21.7-12 0-21.7-9.7-21.7-21.7 0-12 9.7-21.7 21.7-21.7z"/><path fill-rule="evenodd" class="a" d="m929.9 486.4c9.2 0 16.7 7.5 16.7 16.7 0 9.2-7.5 16.7-16.7 16.7-9.2 0-16.7-7.5-16.7-16.7 0-9.2 7.5-16.7 16.7-16.7z"/><path class="b" d="m68.4 675.9c14.1-34.1 31.6-66.7 51.6-97.7 16.5-25.6 36.6-62.4 56-83.2 84.2-90.1 179.4-153.7 293.5-200.2 91.3-37.2 181.4-76.4 278.8-81.6 38.2-2 77.1-0.7 113.9 10 41 11.9 77.8 34.8 112.9 59.1-7.6 0.5-88.7-34.3-108.4-36.1-17.4-1.6-47.2-2.9-64.7-0.5l-37.7 5.3c-50.4 4.8-67.5 33.3-67.3 74.1 0 16.5 5.3 33.3 16.5 48 0.3 0.3 0.5 0.7 0.8 1 13 16.9 25.7 33.3 32.4 42.1 3 3.9 3.3 9.2 0.7 13.4-3.5 5.7-11.1 7.3-16.6 3.5l-129.7-61.3c-8.3-3.9-17.1-6.9-26.1-8.7-25.3-5-78-10.5-144.9 9.6-50.2 15.1-89.5 49.6-138.4 92.2-49.2 42.8-76.9 105.5-74.5 170.7 1.1 29.1 3.6 51.3 3.6 51.3 1.2 6.9-0.9 11.6-7.9 12 0 0-63.5-9.5-92 1.9-19.9 8-41.6 25.4-49.7 45.3-4.4 10.8-8.6 21.7-12 30.8-3.6 9.6-6.1 19.4-7.8 29.4l-25.9 157.2c-21-72.9 5.7-197.8 42.9-287.5z"/><path class="c" d="m734.5 257.1c-12.3-62.4-9.6-127.7 7.8-188.9-11.5-4.9-21.6-18.3-16-29.5 5.1-10.1 18.8-11.4 30.1-10.1 15.1 1.8 31.2 6.7 39.6 19.4 2.2 3.4 3.7 8 1.5 11.4-1.1 1.6-2.9 2.7-4.6 3.6-6.9 3.6-14.3 6.4-21.9 8.2-2.8 0.7-5.9 1.3-7.9 3.4-2.1 2.1-2.7 5.4-3.1 8.4-5.1 39.7 2.3 79.7 9.6 119 3 16.4 6.2 33.1 14.7 47.5"/><path class="b" d="m734.5 264.8c0.5 0 1 0 1.5-0.2 4.1-0.8 6.8-4.8 6-8.9-12-61.2-9.4-125.3 7.7-185.3 1-3.7-0.8-7.6-4.3-9.1-5.6-2.4-10.5-7.3-12.3-12.2-0.9-2.6-0.9-4.9 0.1-6.9 3.8-7.5 18.1-6.4 22.4-5.9 16.9 2 28.4 7.4 34.1 16 1.1 1.7 1.4 3 1.4 3.4 0-0.2-1.3 0.5-1.7 0.7-6.4 3.3-13.1 5.9-20.1 7.5-3.7 0.9-8.1 1.9-11.6 5.4-4.1 4.1-4.8 9.7-5.2 12.7-5.2 41.2 2.3 82 9.7 121.4 3 16.1 6.4 34.3 15.6 50 2.1 3.6 6.8 4.8 10.4 2.7 3.6-2.1 4.8-6.8 2.7-10.4-7.8-13.3-10.9-29.4-13.8-45-7.1-38.3-14.5-77.9-9.5-116.7 0.3-2.2 0.6-3.6 0.9-4 0.5-0.4 2.6-0.9 3.8-1.2 8.7-2 16.7-5 24.2-9 2.5-1.3 5.4-3 7.4-6.1 3.6-5.4 3-12.8-1.5-19.7-8.3-12.6-23.4-20.2-45-22.8-18.4-2.1-32.1 3-37.7 14.2-2.9 5.8-3.2 12.4-0.8 18.9 2.5 6.9 7.9 13.3 14.7 17.7-16.3 60.6-18.5 125-6.3 186.6 0.7 3.6 3.9 6.1 7.4 6.1z"/><path class="c" d="m360 412.6c-45.1-44.3-100.8-77.8-161-97.1 1.4-6.5 0.6-13.7-3.3-19.2-3.9-5.5-11.1-8.7-17.5-6.9-5.5 1.6-9.5 6.3-12.5 11.2-4 6.5-7 13.7-8.8 21.1-1.8 7.8-1.5 17.5 5.3 21.7 8.5 5.2 18.8-2.5 25.7-9.7 54.5 22.3 108 55.6 135.7 107.6"/><path class="b" d="m323.6 448.9q1.8 0 3.6-0.9c3.7-2 5.1-6.6 3.1-10.3-24.4-45.8-71.4-83.2-139.5-111-2.8-1.2-6.2-0.5-8.3 1.8-5.4 5.6-12.6 10.8-16.3 8.5-3-1.8-3.1-8.3-1.9-13.5 1.5-6.7 4.2-13 7.8-18.8 2.9-4.5 5.5-7.1 8.2-7.9 3-0.8 7 0.8 9.2 4 2.3 3.3 3.1 8.3 2.1 13.3-0.8 3.8 1.4 7.6 5.1 8.8 59.1 18.8 113.7 51.8 158 95.2 3 2.9 7.8 2.9 10.7-0.1 2.9-3 2.9-7.8-0.1-10.7-44.5-43.7-99.1-77.1-158.1-96.9 0.1-6.8-1.7-13.2-5.3-18.3-5.9-8.4-16.5-12.4-25.8-9.8-6.4 1.8-12 6.5-16.9 14.5-4.5 7.3-7.8 15.2-9.7 23.4-3.1 13.4 0.2 24.6 8.8 29.9 5.3 3.3 16.2 6.3 31.4-7.3 62.3 26.2 105.1 60.6 127.3 102.2 1.4 2.6 4 4 6.7 4z"/><path class="c" d="m888.3 688.1c-5.2-25.8 7.1-51.5 19.1-74.9-32.4-1.9-63.1-22.6-77-52 0 0-20.1-5.1-21.1 10.8-1 15.8 43.9 133.2 79 116.1z"/><path class="b" d="m888.3 693.2c0.3 0 0.7 0 1 0 2.7-0.6 4.5-3.2 4-6-4.7-23.3 6.1-47.1 18.6-71.6l3.5-6.9-7.7-0.4c-30.5-1.8-59.7-21.5-72.7-49.1-1.2-2.5-4.2-3.6-6.7-2.4-2.5 1.2-3.6 4.2-2.4 6.7 13.5 28.6 42.5 49.6 73.7 54.1-11.8 23.9-21.1 47.4-16.2 71.6 0.5 2.4 2.6 4.1 5 4.1z"/></svg>