<svg width="173" height="48" viewBox="0 0 173 48" fill="none" xmlns="http://www.w3.org/2000/svg"><path d="M20.4979 21.1185C20.5969 21.5025 20.9854 21.699 21.3799 21.57C24.6154 20.583 27.8569 19.908 31.2034 19.416C31.5874 19.365 31.7974 18.972 31.6564 18.5775C31.3594 17.7465 31.2094 17.3325 30.9049 16.506C30.7759 16.155 30.4279 15.9255 30.0709 15.963C26.8009 16.3635 23.6419 16.953 20.4754 17.862C20.0629 17.991 19.8094 18.4485 19.9144 18.855C20.1454 19.7595 20.2624 20.2125 20.4979 21.1185Z" fill="white"></path><path d="M33.6077 21.5731C33.4817 21.2011 33.1412 20.9536 32.8052 20.9971C27.6857 21.6436 22.7012 22.8991 17.9747 24.9736C17.6297 25.1356 17.4227 25.5661 17.4947 25.9441C17.6807 26.9131 17.7737 27.3991 17.9627 28.3696C18.0437 28.7851 18.4352 28.9756 18.8207 28.7896C23.6222 26.6086 28.6952 25.2211 33.9002 24.3931C34.2317 24.3391 34.3997 23.9641 34.2737 23.5756C34.0112 22.7731 33.8777 22.3726 33.6077 21.5731Z" fill="white"></path><path d="M33.5925 26.9861C33.465 26.5901 33.0945 26.3306 32.742 26.4026C29.5455 27.0896 26.421 27.9191 23.3265 28.9736C22.9335 29.1161 22.713 29.5271 22.8165 29.9051C23.0625 30.8051 23.187 31.2551 23.436 32.1581C23.553 32.5826 24.033 32.7986 24.4755 32.6321C27.57 31.5341 30.6945 30.5741 33.888 29.8046C34.194 29.7311 34.3455 29.3741 34.2315 29.0066C33.9795 28.1966 33.852 27.7916 33.594 26.9846L33.5925 26.9861Z" fill="white"></path><path d="M45.7963 26.0992C45.7963 25.0087 45.0973 24.5557 43.7188 24.5557H42.0733V27.6412H43.6978C45.0343 27.6412 45.7963 27.1072 45.7963 26.0992ZM43.3903 19.1467C42.9583 19.1467 42.5053 19.1872 42.0733 19.2502V21.9862H43.4728C44.7073 21.9862 45.2833 21.4717 45.2833 20.5882C45.2833 19.7452 44.6863 19.1482 43.3903 19.1482V19.1467ZM49.1698 26.2432C49.1698 28.6492 46.7428 30.2542 43.9858 30.2542H38.9248V16.9657C40.6123 16.7182 41.8873 16.5547 43.3888 16.5547C46.1653 16.5547 48.3883 17.8507 48.3883 20.1127C48.3883 21.4087 47.7088 22.2727 46.4953 22.7452C48.3673 23.2807 49.1698 24.4132 49.1698 26.2432Z" fill="white"></path><path d="M56.4176 27.6217V25.8533H55.8206C54.4226 25.8533 53.1461 26.1622 53.1461 27.1282C53.1461 27.8692 53.6396 28.1362 54.6476 28.1362C55.4501 28.1362 56.1086 27.8887 56.4176 27.6217ZM59.4416 23.7742V29.1847C58.3301 30.0277 56.5406 30.4807 54.1136 30.4807C51.9536 30.4807 50.1641 29.5957 50.1641 27.6412C50.1641 24.6997 53.0231 23.9797 56.4176 23.8762C56.3561 22.6012 55.8416 22.2712 54.7106 22.2712C54.1151 22.2712 52.5311 22.5382 52.3241 22.5382C51.8306 22.5382 51.4391 22.2292 51.1106 21.3247L50.8631 20.5837C52.1381 20.1112 53.3936 19.7812 54.7511 19.7812C57.7136 19.7812 59.4416 20.8927 59.4416 23.7712V23.7742Z" fill="white"></path><path d="M70.7697 22.9302V30.2532H67.6842V24.0207C67.6842 22.9302 66.9642 22.3752 65.7087 22.3752C65.2362 22.3752 64.7832 22.4367 64.3917 22.5402V30.2547H61.2852L61.3062 21.1002C62.6022 20.2362 64.7007 19.7637 66.4077 19.7637C68.7732 19.7637 70.7682 20.9367 70.7682 22.9317L70.7697 22.9302Z" fill="white"></path><path d="M72.1079 25.2352C72.1079 21.6352 74.6174 19.7422 77.8679 19.7422C78.7724 19.7422 79.5959 19.8652 80.5829 20.0917C80.4599 21.1207 80.0279 22.0252 79.5539 22.5397C79.2044 22.4362 78.6284 22.3552 78.2984 22.3552C76.2209 22.3552 75.3779 23.4247 75.3779 25.0507C75.3779 26.6962 76.1594 27.7042 78.1139 27.7042C78.6494 27.7042 79.2659 27.6007 80.0264 27.3337L80.5814 29.8027C79.4504 30.2557 78.2774 30.4612 77.3519 30.4612C74.1839 30.4612 72.1064 28.5682 72.1064 25.2367L72.1079 25.2352Z" fill="white"></path><path d="M88.8102 25.0912C88.8102 23.4037 87.9867 22.4167 86.5482 22.4167C85.1487 22.4167 84.2847 23.4037 84.2847 25.0912C84.2847 26.8597 85.1277 27.7852 86.5482 27.7852C87.9882 27.7852 88.8102 26.8597 88.8102 25.0912ZM81.1797 25.0912C81.1797 21.8002 83.4012 19.7422 86.5482 19.7422C89.8182 19.7422 91.9167 21.8812 91.9167 25.0912C91.9167 28.4032 89.7972 30.4597 86.5482 30.4597C83.2767 30.4597 81.1797 28.3417 81.1797 25.0912Z" fill="white"></path><path d="M93.666 17.0475C94.386 16.512 95.949 16.0605 96.7725 16.0605V30.255H93.666V17.049V17.0475Z" fill="white"></path><path d="M106.152 25.0912C106.152 23.4037 105.328 22.4167 103.888 22.4167C102.489 22.4167 101.625 23.4037 101.625 25.0912C101.625 26.8597 102.468 27.7852 103.888 27.7852C105.328 27.7852 106.152 26.8597 106.152 25.0912ZM98.5195 25.0912C98.5195 21.8002 100.741 19.7422 103.888 19.7422C107.16 19.7422 109.257 21.8812 109.257 25.0912C109.257 28.4032 107.137 30.4597 103.888 30.4597C100.617 30.4597 98.5195 28.3417 98.5195 25.0912Z" fill="white"></path><path d="M126.56 22.9302V30.2532H123.495V24.0207C123.495 22.9302 122.796 22.3752 121.562 22.3752C120.986 22.3752 120.431 22.4982 119.978 22.6842C120.143 23.1372 120.225 23.6307 120.225 24.1647V30.2532H117.161V24.0207C117.161 22.9302 116.462 22.3752 115.227 22.3752C114.755 22.3752 114.302 22.4367 113.91 22.5402V30.2547H110.804L110.825 21.1002C112.059 20.2362 113.993 19.7637 115.617 19.7637C116.913 19.7637 118.025 20.1957 118.826 20.8947C119.874 20.2152 121.335 19.7637 122.57 19.7637C124.812 19.7637 126.561 20.9562 126.561 22.9317L126.56 22.9302Z" fill="white"></path><path d="M135.96 24.9461C135.96 23.0531 134.971 22.3751 133.389 22.3751C132.751 22.3751 132.237 22.4981 131.784 22.7036V27.8666C132.339 27.9491 132.874 27.9896 133.368 27.9896C135.178 27.9896 135.96 26.5931 135.96 24.9461ZM139.026 24.5546C139.026 28.2986 136.804 30.4586 133.183 30.4586C131.415 30.4586 129.706 30.1301 128.679 29.6561V17.0456C129.399 16.5101 130.983 16.0586 131.785 16.0586V20.9336C132.67 20.1731 133.74 19.7606 134.706 19.7606C137.77 19.7606 139.026 21.8801 139.026 24.5546Z" fill="white"></path><path d="M140.775 20.0513C141.207 19.8668 141.743 19.7633 142.338 19.7633C142.934 19.7633 143.45 19.8668 143.882 20.0513V30.2543H140.775V20.0513ZM140.733 16.8008C140.733 15.9368 141.453 15.2168 142.317 15.2168C143.202 15.2168 143.921 15.9158 143.921 16.8008C143.921 17.6438 143.201 18.3848 142.317 18.3848C141.453 18.3848 140.733 17.6858 140.733 16.8008Z" fill="white"></path><path d="M151.677 27.6217V25.8533H151.08C149.681 25.8533 148.406 26.1622 148.406 27.1282C148.406 27.8692 148.899 28.1362 149.907 28.1362C150.71 28.1362 151.37 27.8887 151.677 27.6217ZM154.701 23.7742V29.1847C153.59 30.0277 151.8 30.4807 149.373 30.4807C147.213 30.4807 145.424 29.5957 145.424 27.6412C145.424 24.6997 148.283 23.9797 151.677 23.8762C151.616 22.6012 151.101 22.2712 149.97 22.2712C149.373 22.2712 147.789 22.5382 147.584 22.5382C147.09 22.5382 146.699 22.2292 146.37 21.3247L146.123 20.5837C147.398 20.1112 148.653 19.7812 150.011 19.7812C152.973 19.7812 154.701 20.8927 154.701 23.7712V23.7742Z" fill="white"></path></svg>