<svg width="115" height="32" viewBox="0 0 115 32" fill="none" xmlns="http://www.w3.org/2000/svg">
<path d="M13.665 14.0791C13.731 14.3351 13.99 14.4661 14.253 14.3801C16.41 13.7221 18.571 13.2721 20.802 12.9441C21.058 12.9101 21.198 12.6481 21.104 12.3851C20.906 11.8311 20.806 11.5551 20.603 11.0041C20.517 10.7701 20.285 10.6171 20.047 10.6421C17.867 10.9091 15.761 11.3021 13.65 11.9081C13.375 11.9941 13.206 12.2991 13.276 12.5701C13.43 13.1731 13.508 13.4751 13.665 14.0791Z" fill="white"/>
<path d="M22.405 14.3819C22.321 14.1339 22.094 13.9689 21.87 13.9979C18.457 14.4289 15.134 15.2659 11.983 16.6489C11.753 16.7569 11.615 17.0439 11.663 17.2959C11.787 17.9419 11.849 18.2659 11.975 18.9129C12.029 19.1899 12.29 19.3169 12.547 19.1929C15.748 17.7389 19.13 16.8139 22.6 16.2619C22.821 16.2259 22.933 15.9759 22.849 15.7169C22.674 15.1819 22.585 14.9149 22.405 14.3819Z" fill="white"/>
<path d="M22.395 17.991C22.31 17.727 22.063 17.554 21.828 17.602C19.697 18.06 17.614 18.613 15.551 19.316C15.289 19.411 15.142 19.685 15.211 19.937C15.375 20.537 15.458 20.837 15.624 21.439C15.702 21.722 16.022 21.866 16.317 21.755C18.38 21.023 20.463 20.383 22.592 19.87C22.796 19.821 22.897 19.583 22.821 19.338C22.653 18.798 22.568 18.528 22.396 17.99L22.395 17.991Z" fill="white"/>
<path d="M30.531 17.3989C30.531 16.6719 30.065 16.3699 29.146 16.3699H28.049V18.4269H29.132C30.023 18.4269 30.531 18.0709 30.531 17.3989ZM28.927 12.7639C28.639 12.7639 28.337 12.7909 28.049 12.8329V14.6569H28.982C29.805 14.6569 30.189 14.3139 30.189 13.7249C30.189 13.1629 29.791 12.7649 28.927 12.7649V12.7639ZM32.78 17.4949C32.78 19.0989 31.162 20.1689 29.324 20.1689H25.95V11.3099C27.075 11.1449 27.925 11.0359 28.926 11.0359C30.777 11.0359 32.259 11.8999 32.259 13.4079C32.259 14.2719 31.806 14.8479 30.997 15.1629C32.245 15.5199 32.78 16.2739 32.78 17.4939V17.4949Z" fill="white"/>
<path d="M37.612 18.414V17.235H37.214C36.282 17.235 35.431 17.441 35.431 18.085C35.431 18.579 35.76 18.757 36.432 18.757C36.967 18.757 37.406 18.592 37.612 18.414ZM39.628 15.849V19.456C38.887 20.018 37.694 20.32 36.076 20.32C34.636 20.32 33.443 19.73 33.443 18.427C33.443 16.466 35.349 15.986 37.612 15.917C37.571 15.067 37.228 14.847 36.474 14.847C36.077 14.847 35.021 15.025 34.883 15.025C34.554 15.025 34.293 14.819 34.074 14.216L33.909 13.722C34.759 13.407 35.596 13.187 36.501 13.187C38.476 13.187 39.628 13.928 39.628 15.847V15.849Z" fill="white"/>
<path d="M47.18 15.287V20.169H45.123V16.014C45.123 15.287 44.643 14.917 43.806 14.917C43.491 14.917 43.189 14.958 42.928 15.027V20.17H40.857L40.871 14.067C41.735 13.491 43.134 13.176 44.272 13.176C45.849 13.176 47.179 13.958 47.179 15.288L47.18 15.287Z" fill="white"/>
<path d="M48.072 16.8229C48.072 14.4229 49.745 13.1609 51.912 13.1609C52.515 13.1609 53.064 13.2429 53.722 13.3939C53.64 14.0799 53.352 14.6829 53.036 15.0259C52.803 14.9569 52.419 14.9029 52.199 14.9029C50.814 14.9029 50.252 15.6159 50.252 16.6999C50.252 17.7969 50.773 18.4689 52.076 18.4689C52.433 18.4689 52.844 18.3999 53.351 18.2219L53.721 19.8679C52.967 20.1699 52.185 20.3069 51.568 20.3069C49.456 20.3069 48.071 19.0449 48.071 16.8239L48.072 16.8229Z" fill="white"/>
<path d="M59.207 16.7269C59.207 15.6019 58.658 14.9439 57.699 14.9439C56.766 14.9439 56.19 15.6019 56.19 16.7269C56.19 17.9059 56.752 18.5229 57.699 18.5229C58.659 18.5229 59.207 17.9059 59.207 16.7269ZM54.12 16.7269C54.12 14.5329 55.601 13.1609 57.699 13.1609C59.879 13.1609 61.278 14.5869 61.278 16.7269C61.278 18.9349 59.865 20.3059 57.699 20.3059C55.518 20.3059 54.12 18.8939 54.12 16.7269Z" fill="white"/>
<path d="M62.444 11.365C62.924 11.008 63.966 10.707 64.515 10.707V20.17H62.444V11.366V11.365Z" fill="white"/>
<path d="M70.768 16.7269C70.768 15.6019 70.219 14.9439 69.259 14.9439C68.326 14.9439 67.75 15.6019 67.75 16.7269C67.75 17.9059 68.312 18.5229 69.259 18.5229C70.219 18.5229 70.768 17.9059 70.768 16.7269ZM65.68 16.7269C65.68 14.5329 67.161 13.1609 69.259 13.1609C71.44 13.1609 72.838 14.5869 72.838 16.7269C72.838 18.9349 71.425 20.3059 69.259 20.3059C67.078 20.3059 65.68 18.8939 65.68 16.7269Z" fill="white"/>
<path d="M84.373 15.287V20.169H82.33V16.014C82.33 15.287 81.864 14.917 81.041 14.917C80.657 14.917 80.287 14.999 79.985 15.123C80.095 15.425 80.15 15.754 80.15 16.11V20.169H78.107V16.014C78.107 15.287 77.641 14.917 76.818 14.917C76.503 14.917 76.201 14.958 75.94 15.027V20.17H73.869L73.883 14.067C74.706 13.491 75.995 13.176 77.078 13.176C77.942 13.176 78.683 13.464 79.217 13.93C79.916 13.477 80.89 13.176 81.713 13.176C83.208 13.176 84.374 13.971 84.374 15.288L84.373 15.287Z" fill="white"/>
<path d="M90.64 16.6311C90.64 15.3691 89.981 14.9171 88.926 14.9171C88.501 14.9171 88.158 14.9991 87.856 15.1361V18.5781C88.226 18.6331 88.583 18.6601 88.912 18.6601C90.119 18.6601 90.64 17.7281 90.64 16.6301V16.6311ZM92.684 16.3701C92.684 18.8661 91.203 20.3061 88.789 20.3061C87.61 20.3061 86.471 20.0871 85.786 19.7711V11.3641C86.266 11.0071 87.322 10.7061 87.857 10.7061V13.9561C88.447 13.4491 89.16 13.1741 89.804 13.1741C91.847 13.1741 92.684 14.5861 92.684 16.3691V16.3701Z" fill="white"/>
<path d="M93.85 13.367C94.138 13.244 94.495 13.175 94.892 13.175C95.289 13.175 95.633 13.244 95.921 13.367V20.169H93.85V13.367ZM93.822 11.2C93.822 10.624 94.302 10.144 94.878 10.144C95.468 10.144 95.947 10.61 95.947 11.2C95.947 11.762 95.467 12.256 94.878 12.256C94.302 12.256 93.822 11.79 93.822 11.2Z" fill="white"/>
<path d="M101.118 18.414V17.235H100.72C99.787 17.235 98.937 17.441 98.937 18.085C98.937 18.579 99.266 18.757 99.938 18.757C100.473 18.757 100.913 18.592 101.118 18.414ZM103.134 15.849V19.456C102.393 20.018 101.2 20.32 99.582 20.32C98.142 20.32 96.949 19.73 96.949 18.427C96.949 16.466 98.855 15.986 101.118 15.917C101.077 15.067 100.734 14.847 99.98 14.847C99.582 14.847 98.526 15.025 98.389 15.025C98.06 15.025 97.799 14.819 97.58 14.216L97.415 13.722C98.265 13.407 99.102 13.187 100.007 13.187C101.982 13.187 103.134 13.928 103.134 15.847V15.849Z" fill="white"/>
</svg>
