<svg width="110" height="15" viewBox="0 0 110 15" fill="none" xmlns="http://www.w3.org/2000/svg">
<path fill-rule="evenodd" clip-rule="evenodd" d="M2.41814 4.80495C2.49796 5.1171 2.8093 5.27808 3.12559 5.17225C5.71869 4.36877 8.31817 3.81893 11.0003 3.41892C11.3077 3.3775 11.4759 3.05743 11.3629 2.73635C11.1248 2.0598 11.0044 1.72242 10.761 1.04979C10.6576 0.764209 10.3782 0.576875 10.0921 0.608134C7.47088 0.933568 4.93846 1.41418 2.40044 2.15448C2.06997 2.25897 1.86702 2.63163 1.95036 2.9622C2.13582 3.69825 2.22938 4.06666 2.41814 4.80495" fill="#2C2A29"/>
<path fill-rule="evenodd" clip-rule="evenodd" d="M12.9281 5.17475C12.8275 4.87242 12.5543 4.67035 12.2842 4.70597C8.18065 5.23269 4.18486 6.25421 0.395744 7.94244C0.11936 8.07407 -0.0464258 8.42417 0.0115114 8.73264C0.160037 9.52172 0.235015 9.91659 0.386619 10.7071C0.451372 11.0452 0.764915 11.2008 1.07417 11.049C4.92298 9.27399 8.99024 8.14384 13.1627 7.46998C13.4279 7.42621 13.5631 7.12021 13.4616 6.80493C13.2514 6.15127 13.1447 5.82528 12.9281 5.17475" fill="#2C2A29"/>
<path fill-rule="evenodd" clip-rule="evenodd" d="M12.9163 9.581C12.8146 9.25824 12.5173 9.04769 12.2349 9.10619C9.6727 9.66596 7.16821 10.3406 4.68725 11.199C4.37261 11.3153 4.19539 11.6496 4.27806 11.9571C4.47529 12.6896 4.57456 13.0565 4.77421 13.7913C4.86799 14.1365 5.25277 14.3131 5.60721 14.1772C8.08729 13.2828 10.5923 12.5019 13.1521 11.8758C13.3976 11.8157 13.5184 11.5258 13.4272 11.2267C13.2257 10.567 13.1235 10.2378 12.9163 9.581" fill="#2C2A29"/>
<path fill-rule="evenodd" clip-rule="evenodd" d="M22.6994 8.85828C22.6994 7.97073 22.1387 7.60232 21.0339 7.60232H19.7146V10.1141H21.0174C22.0893 10.1141 22.6994 9.67884 22.6994 8.85828ZM20.77 3.1983C20.4237 3.1983 20.061 3.2318 19.7146 3.28204V5.50916H20.836C21.8253 5.50916 22.2871 5.09051 22.2871 4.37054C22.2871 3.68394 21.8089 3.1983 20.77 3.1983ZM25.4034 8.97573C25.4034 10.9349 23.4576 12.2411 21.2479 12.2411H17.1914V1.42355C18.5436 1.22259 19.5661 1.08862 20.7698 1.08862C22.9959 1.08862 24.7769 2.14352 24.7769 3.9856C24.7769 5.04049 24.2327 5.74383 23.2597 6.129C24.7604 6.5644 25.4034 7.48543 25.4034 8.97573V8.97573Z" fill="#2C2A29"/>
<path fill-rule="evenodd" clip-rule="evenodd" d="M31.2145 10.0975V8.65748H30.7363C29.6151 8.65748 28.5926 8.90868 28.5926 9.69563C28.5926 10.2985 28.9884 10.5162 29.7965 10.5162C30.4396 10.5162 30.9672 10.3151 31.2145 10.0975ZM33.6381 6.96617V11.3702C32.7477 12.0568 31.3131 12.4252 29.3673 12.4252C27.6359 12.4252 26.2012 11.7051 26.2012 10.1142C26.2012 7.71964 28.4933 7.13364 31.2141 7.0499C31.1646 6.01164 30.7524 5.7437 29.8454 5.7437C29.3673 5.7437 28.0975 5.9614 27.9327 5.9614C27.5368 5.9614 27.2236 5.71021 26.9597 4.97349L26.7617 4.37063C27.7842 3.98547 28.7901 3.71753 29.8785 3.71753C32.253 3.71753 33.6381 4.62182 33.6381 6.96617V6.96617Z" fill="#2C2A29"/>
<path fill-rule="evenodd" clip-rule="evenodd" d="M42.7189 6.27973V12.2411H40.2455V7.16716C40.2455 6.27973 39.6684 5.82758 38.6625 5.82758C38.2833 5.82758 37.9205 5.87782 37.6071 5.96155V12.2411H35.1172L35.1336 4.78943C36.1725 4.08609 37.8544 3.70093 39.2231 3.70093C41.1196 3.70093 42.7189 4.65535 42.7189 6.27973" fill="#2C2A29"/>
<path fill-rule="evenodd" clip-rule="evenodd" d="M43.791 8.1552C43.791 5.22462 45.8028 3.68408 48.4082 3.68408C49.1338 3.68408 49.7934 3.78456 50.5848 3.96877C50.486 4.80608 50.1396 5.54279 49.7604 5.96145C49.4801 5.87772 49.0183 5.81073 48.7546 5.81073C47.089 5.81073 46.4129 6.68153 46.4129 8.00448C46.4129 9.34406 47.0396 10.1646 48.6061 10.1646C49.0349 10.1646 49.5295 10.0809 50.1396 9.86308L50.5848 11.8726C49.678 12.241 48.738 12.4085 47.9959 12.4085C45.4566 12.4085 43.791 10.8679 43.791 8.1552Z" fill="#2C2A29"/>
<path fill-rule="evenodd" clip-rule="evenodd" d="M57.1812 8.0379C57.1812 6.66471 56.5215 5.86089 55.3673 5.86089C54.2459 5.86089 53.5534 6.66471 53.5534 8.0379C53.5534 9.47796 54.2296 10.2315 55.3673 10.2315C56.5215 10.2315 57.1812 9.47796 57.1812 8.0379ZM51.0635 8.03797C51.0635 5.35859 52.8444 3.68408 55.3673 3.68408C57.9891 3.68408 59.6712 5.42557 59.6712 8.03797C59.6712 10.7339 57.9727 12.4085 55.3673 12.4085C52.7454 12.4085 51.0635 10.6838 51.0635 8.03797V8.03797Z" fill="#2C2A29"/>
<path fill-rule="evenodd" clip-rule="evenodd" d="M61.0732 1.49034C61.6503 1.05494 62.9036 0.686523 63.5631 0.686523V12.2409H61.0732V1.49034" fill="#2C2A29"/>
<path fill-rule="evenodd" clip-rule="evenodd" d="M71.0824 8.0379C71.0824 6.66471 70.4227 5.86089 69.2685 5.86089C68.1471 5.86089 67.4545 6.66471 67.4545 8.0379C67.4545 9.47796 68.1306 10.2315 69.2685 10.2315C70.4227 10.2315 71.0824 9.47796 71.0824 8.0379ZM64.9648 8.03797C64.9648 5.35859 66.7458 3.68408 69.2688 3.68408C71.8907 3.68408 73.5726 5.42557 73.5726 8.03797C73.5726 10.7339 71.8742 12.4085 69.2688 12.4085C66.6468 12.4085 64.9648 10.6838 64.9648 8.03797V8.03797Z" fill="#2C2A29"/>
<path fill-rule="evenodd" clip-rule="evenodd" d="M87.4399 6.27973V12.2411H84.9829V7.16716C84.9829 6.27973 84.4223 5.82758 83.4329 5.82758C82.9711 5.82758 82.5259 5.92806 82.1631 6.07877C82.295 6.44719 82.3611 6.8491 82.3611 7.2845V12.2411H79.904V7.16716C79.904 6.27973 79.3433 5.82758 78.3539 5.82758C77.9747 5.82758 77.6119 5.87782 77.2986 5.96155V12.2411H74.8086L74.8251 4.78943C75.8145 4.08609 77.3645 3.70093 78.6673 3.70093C79.7061 3.70093 80.5966 4.0526 81.2396 4.62197C82.0806 4.06923 83.2515 3.70093 84.2408 3.70093C86.0383 3.70093 87.4399 4.67209 87.4399 6.27973" fill="#2C2A29"/>
<path fill-rule="evenodd" clip-rule="evenodd" d="M94.9774 7.92053C94.9774 6.37988 94.1857 5.82725 92.916 5.82725C92.4048 5.82725 91.9926 5.92773 91.6298 6.09519V10.2984C92.075 10.3652 92.5039 10.3987 92.8996 10.3987C94.3506 10.3987 94.9774 9.26011 94.9774 7.92053ZM97.4341 7.60236C97.4341 10.65 95.6532 12.4084 92.751 12.4084C91.3328 12.4084 89.9642 12.1405 89.1396 11.7554V1.49034C89.7168 1.05494 90.9866 0.686523 91.6296 0.686523V4.65514C92.3388 4.03564 93.1962 3.70072 93.9712 3.70072C96.4283 3.70072 97.4341 5.42547 97.4341 7.60236V7.60236Z" fill="#2C2A29"/>
<path fill-rule="evenodd" clip-rule="evenodd" d="M98.836 3.93511C99.1823 3.78439 99.611 3.70066 100.089 3.70066C100.567 3.70066 100.98 3.78439 101.326 3.93511V12.2409H98.836V3.93511ZM98.8027 1.28934C98.8027 0.586116 99.3799 0 100.073 0C100.782 0 101.359 0.56937 101.359 1.28934C101.359 1.97594 100.782 2.5788 100.073 2.5788C99.3799 2.5788 98.8027 2.00943 98.8027 1.28934V1.28934Z" fill="#2C2A29"/>
<path fill-rule="evenodd" clip-rule="evenodd" d="M107.576 10.0975V8.65748H107.098C105.976 8.65748 104.954 8.90868 104.954 9.69563C104.954 10.2985 105.35 10.5162 106.158 10.5162C106.801 10.5162 107.329 10.3151 107.576 10.0975ZM110 6.96617V11.3702C109.109 12.0568 107.675 12.4252 105.729 12.4252C103.997 12.4252 102.562 11.7051 102.562 10.1142C102.562 7.71964 104.855 7.13364 107.576 7.0499C107.526 6.01164 107.114 5.7437 106.207 5.7437C105.729 5.7437 104.459 5.9614 104.294 5.9614C103.898 5.9614 103.585 5.71021 103.321 4.97349L103.123 4.37063C104.146 3.98547 105.152 3.71753 106.24 3.71753C108.615 3.71753 110 4.62182 110 6.96617V6.96617Z" fill="#2C2A29"/>
</svg>
