<?xml version="1.0" encoding="UTF-8"?>
<svg xmlns="http://www.w3.org/2000/svg" xmlns:xlink="http://www.w3.org/1999/xlink" width="150pt" height="150pt" viewBox="0 0 150 150" version="1.1">
<defs>
<clipPath id="clip1">
  <path d="M 108 3.75 L 137 3.75 L 137 27 L 108 27 Z M 108 3.75 "/>
</clipPath>
<clipPath id="clip2">
  <path d="M 89 102 L 137.886719 102 L 137.886719 127 L 89 127 Z M 89 102 "/>
</clipPath>
<clipPath id="clip3">
  <path d="M 12.222656 82 L 100 82 L 100 127 L 12.222656 127 Z M 12.222656 82 "/>
</clipPath>
<clipPath id="clip4">
  <path d="M 49 68 L 72 68 L 72 146.25 L 49 146.25 Z M 49 68 "/>
</clipPath>
</defs>
<g id="surface1">
<path style=" stroke:none;fill-rule:nonzero;fill:rgb(96.078431%,71.372549%,80.392157%);fill-opacity:1;" d="M 123.191406 31.121094 L 111.835938 31.121094 C 109.933594 31.117188 108.105469 30.359375 106.757812 29.011719 C 105.414062 27.667969 104.65625 25.839844 104.652344 23.933594 L 104.652344 12.585938 C 104.65625 10.679688 105.414062 8.855469 106.757812 7.507812 C 108.105469 6.160156 109.933594 5.402344 111.835938 5.398438 L 123.1875 5.398438 C 125.09375 5.402344 126.917969 6.160156 128.265625 7.507812 C 129.613281 8.855469 130.371094 10.679688 130.375 12.585938 L 130.375 23.933594 C 130.371094 25.839844 129.613281 27.664062 128.265625 29.011719 C 126.921875 30.359375 125.097656 31.117188 123.191406 31.121094 Z M 111.835938 11.5 C 111.550781 11.5 111.273438 11.613281 111.070312 11.816406 C 110.867188 12.023438 110.75 12.296875 110.75 12.585938 L 110.75 23.933594 C 110.75 24.222656 110.867188 24.5 111.070312 24.703125 C 111.273438 24.90625 111.550781 25.019531 111.835938 25.023438 L 123.1875 25.023438 C 123.476562 25.019531 123.75 24.90625 123.957031 24.703125 C 124.160156 24.5 124.273438 24.222656 124.273438 23.933594 L 124.273438 12.585938 C 124.273438 12.296875 124.160156 12.023438 123.957031 11.816406 C 123.75 11.613281 123.476562 11.5 123.1875 11.5 Z M 111.835938 11.5 "/>
<path style=" stroke:none;fill-rule:nonzero;fill:rgb(96.078431%,71.372549%,80.392157%);fill-opacity:1;" d="M 123.191406 63.328125 L 111.835938 63.328125 C 109.933594 63.324219 108.105469 62.566406 106.757812 61.21875 C 105.414062 59.875 104.65625 58.046875 104.652344 56.140625 L 104.652344 44.792969 C 104.65625 42.886719 105.414062 41.0625 106.757812 39.714844 C 108.105469 38.367188 109.933594 37.609375 111.835938 37.605469 L 123.1875 37.605469 C 125.09375 37.609375 126.917969 38.367188 128.265625 39.714844 C 129.613281 41.0625 130.371094 42.886719 130.375 44.792969 L 130.375 56.140625 C 130.371094 58.046875 129.613281 59.871094 128.265625 61.21875 C 126.921875 62.566406 125.097656 63.324219 123.191406 63.328125 Z M 111.835938 43.707031 C 111.550781 43.707031 111.273438 43.820312 111.070312 44.023438 C 110.867188 44.226562 110.75 44.503906 110.75 44.792969 L 110.75 56.140625 C 110.75 56.429688 110.867188 56.707031 111.070312 56.910156 C 111.273438 57.113281 111.550781 57.226562 111.835938 57.226562 L 123.1875 57.226562 C 123.476562 57.226562 123.75 57.113281 123.957031 56.910156 C 124.160156 56.707031 124.273438 56.429688 124.273438 56.140625 L 124.273438 44.792969 C 124.273438 44.503906 124.160156 44.226562 123.957031 44.023438 C 123.75 43.820312 123.476562 43.707031 123.1875 43.707031 Z M 111.835938 43.707031 "/>
<path style=" stroke:none;fill-rule:nonzero;fill:rgb(96.078431%,71.372549%,80.392157%);fill-opacity:1;" d="M 123.191406 94.394531 L 111.835938 94.394531 C 109.933594 94.390625 108.105469 93.632812 106.757812 92.285156 C 105.414062 90.9375 104.65625 89.113281 104.652344 87.207031 L 104.652344 75.859375 C 104.652344 73.957031 105.410156 72.128906 106.757812 70.78125 C 108.105469 69.433594 109.933594 68.675781 111.835938 68.671875 L 123.1875 68.671875 C 125.09375 68.671875 126.921875 69.433594 128.269531 70.78125 C 129.617188 72.128906 130.375 73.953125 130.378906 75.859375 L 130.378906 87.207031 C 130.375 89.113281 129.617188 90.9375 128.269531 92.285156 C 126.921875 93.632812 125.097656 94.390625 123.191406 94.394531 Z M 111.835938 74.773438 C 111.550781 74.773438 111.273438 74.890625 111.070312 75.09375 C 110.867188 75.296875 110.753906 75.574219 110.753906 75.859375 L 110.753906 87.207031 C 110.757812 87.496094 110.871094 87.769531 111.074219 87.972656 C 111.277344 88.175781 111.550781 88.292969 111.835938 88.292969 L 123.1875 88.292969 C 123.476562 88.292969 123.75 88.179688 123.953125 87.976562 C 124.160156 87.773438 124.273438 87.496094 124.273438 87.207031 L 124.273438 75.859375 C 124.273438 75.574219 124.160156 75.296875 123.957031 75.09375 C 123.75 74.890625 123.476562 74.773438 123.1875 74.773438 Z M 111.835938 74.773438 "/>
<g clip-path="url(#clip1)" clip-rule="nonzero">
<path style=" stroke:none;fill-rule:nonzero;fill:rgb(0%,76.470588%,53.72549%);fill-opacity:1;" d="M 117.234375 26.269531 C 116.832031 26.269531 116.433594 26.191406 116.066406 26.039062 C 115.695312 25.886719 115.359375 25.660156 115.074219 25.375 L 109.804688 20.109375 C 109.523438 19.824219 109.296875 19.488281 109.144531 19.117188 C 108.992188 18.746094 108.914062 18.351562 108.914062 17.949219 C 108.914062 17.550781 108.992188 17.152344 109.144531 16.78125 C 109.300781 16.414062 109.523438 16.078125 109.808594 15.792969 C 110.089844 15.511719 110.425781 15.285156 110.796875 15.132812 C 111.167969 14.980469 111.5625 14.898438 111.964844 14.898438 C 112.363281 14.898438 112.761719 14.980469 113.132812 15.132812 C 113.5 15.285156 113.839844 15.511719 114.121094 15.792969 L 117.234375 18.90625 L 131.496094 4.644531 C 131.777344 4.359375 132.113281 4.136719 132.484375 3.980469 C 132.855469 3.828125 133.25 3.75 133.652344 3.75 C 134.050781 3.75 134.449219 3.828125 134.820312 3.980469 C 135.191406 4.136719 135.527344 4.359375 135.808594 4.644531 C 136.09375 4.925781 136.316406 5.261719 136.46875 5.632812 C 136.625 6.003906 136.703125 6.398438 136.703125 6.800781 C 136.703125 7.203125 136.625 7.597656 136.46875 7.96875 C 136.316406 8.339844 136.09375 8.675781 135.808594 8.957031 L 119.390625 25.375 C 119.105469 25.660156 118.769531 25.886719 118.398438 26.039062 C 118.03125 26.191406 117.632812 26.269531 117.234375 26.269531 Z M 117.234375 26.269531 "/>
</g>
<path style=" stroke:none;fill-rule:nonzero;fill:rgb(0%,76.470588%,53.72549%);fill-opacity:1;" d="M 117.234375 57.945312 C 116.832031 57.945312 116.433594 57.867188 116.066406 57.710938 C 115.695312 57.558594 115.359375 57.335938 115.074219 57.050781 L 109.804688 51.78125 C 109.523438 51.5 109.296875 51.160156 109.144531 50.792969 C 108.992188 50.421875 108.914062 50.023438 108.914062 49.625 C 108.914062 49.222656 108.992188 48.828125 109.144531 48.457031 C 109.300781 48.085938 109.523438 47.75 109.808594 47.46875 C 110.089844 47.183594 110.425781 46.960938 110.796875 46.804688 C 111.167969 46.652344 111.5625 46.574219 111.964844 46.574219 C 112.363281 46.574219 112.761719 46.652344 113.132812 46.804688 C 113.5 46.960938 113.839844 47.183594 114.121094 47.46875 L 117.234375 50.578125 L 131.496094 36.316406 C 132.070312 35.757812 132.839844 35.445312 133.644531 35.449219 C 134.445312 35.457031 135.214844 35.777344 135.78125 36.34375 C 136.347656 36.910156 136.667969 37.679688 136.675781 38.480469 C 136.679688 39.285156 136.367188 40.054688 135.808594 40.628906 L 119.390625 57.050781 C 119.105469 57.335938 118.769531 57.558594 118.398438 57.710938 C 118.03125 57.867188 117.632812 57.945312 117.234375 57.945312 Z M 117.234375 57.945312 "/>
<g clip-path="url(#clip2)" clip-rule="nonzero">
<path style=" stroke:none;fill-rule:nonzero;fill:rgb(0%,76.470588%,53.72549%);fill-opacity:1;" d="M 89 126.5625 C 89 113.0625 99.941406 102.121094 113.441406 102.121094 C 126.941406 102.121094 137.886719 113.0625 137.886719 126.5625 Z M 89 126.5625 "/>
</g>
<g clip-path="url(#clip3)" clip-rule="nonzero">
<path style=" stroke:none;fill-rule:nonzero;fill:rgb(0%,76.470588%,53.72549%);fill-opacity:1;" d="M 12.222656 126.5625 C 12.222656 102.367188 31.839844 82.746094 56.039062 82.746094 C 80.242188 82.746094 99.859375 102.367188 99.859375 126.5625 Z M 12.222656 126.5625 "/>
</g>
<path style=" stroke:none;fill-rule:nonzero;fill:rgb(17.254902%,16.470588%,16.078431%);fill-opacity:1;" d="M 36.148438 145.328125 C 34.859375 145.328125 33.589844 145.042969 32.425781 144.492188 C 31.261719 143.941406 30.234375 143.140625 29.414062 142.144531 C 28.597656 141.152344 28.011719 139.988281 27.695312 138.738281 C 27.378906 137.492188 27.34375 136.1875 27.59375 134.925781 L 34.152344 101.820312 L 36.671875 67.640625 C 36.746094 66.492188 37.042969 65.367188 37.554688 64.335938 C 38.0625 63.300781 38.773438 62.382812 39.640625 61.625 C 40.507812 60.867188 41.519531 60.289062 42.613281 59.925781 C 43.703125 59.5625 44.859375 59.417969 46.007812 59.503906 C 47.15625 59.589844 48.273438 59.898438 49.300781 60.417969 C 50.328125 60.941406 51.242188 61.660156 51.992188 62.535156 C 52.738281 63.410156 53.304688 64.425781 53.65625 65.519531 C 54.011719 66.617188 54.144531 67.773438 54.046875 68.921875 L 51.488281 103.625 C 51.464844 103.980469 51.414062 104.332031 51.347656 104.679688 L 44.683594 138.308594 C 44.292969 140.285156 43.226562 142.0625 41.671875 143.34375 C 40.113281 144.625 38.164062 145.324219 36.148438 145.328125 Z M 36.148438 145.328125 "/>
<g clip-path="url(#clip4)" clip-rule="nonzero">
<path style=" stroke:none;fill-rule:nonzero;fill:rgb(17.254902%,16.470588%,16.078431%);fill-opacity:1;" d="M 62.402344 146.25 C 60.199219 146.246094 58.082031 145.410156 56.46875 143.90625 C 54.859375 142.402344 53.878906 140.347656 53.722656 138.148438 L 49.445312 77.589844 C 49.285156 75.285156 50.042969 73.007812 51.558594 71.265625 C 53.074219 69.519531 55.21875 68.445312 57.523438 68.285156 C 59.832031 68.121094 62.105469 68.878906 63.851562 70.394531 C 65.597656 71.910156 66.667969 74.054688 66.832031 76.363281 L 71.109375 136.925781 C 71.269531 139.230469 70.511719 141.503906 68.996094 143.246094 C 67.480469 144.992188 65.335938 146.0625 63.03125 146.226562 C 62.820312 146.242188 62.609375 146.25 62.402344 146.25 Z M 62.402344 146.25 "/>
</g>
<path style=" stroke:none;fill-rule:nonzero;fill:rgb(34.901961%,79.607843%,90.980392%);fill-opacity:1;" d="M 59.988281 53.128906 C 68.839844 53.964844 79.273438 50.503906 86.78125 44.246094 Z M 59.988281 53.128906 "/>
<path style=" stroke:none;fill-rule:nonzero;fill:rgb(34.901961%,79.607843%,90.980392%);fill-opacity:1;" d="M 62.695312 53.023438 C 61.648438 53.023438 60.617188 52.976562 59.59375 52.878906 C 59.039062 52.84375 58.496094 52.691406 57.996094 52.441406 C 57.496094 52.191406 57.054688 51.839844 56.691406 51.414062 C 56.328125 50.992188 56.058594 50.496094 55.890625 49.964844 C 55.722656 49.429688 55.660156 48.871094 55.714844 48.3125 C 55.765625 47.757812 55.929688 47.21875 56.195312 46.726562 C 56.460938 46.234375 56.820312 45.800781 57.253906 45.449219 C 57.691406 45.101562 58.191406 44.839844 58.726562 44.6875 C 59.265625 44.535156 59.828125 44.488281 60.382812 44.554688 C 68.132812 45.289062 77.445312 42.175781 84.105469 36.625 C 84.960938 35.933594 86.050781 35.605469 87.144531 35.714844 C 88.238281 35.820312 89.246094 36.355469 89.949219 37.199219 C 90.652344 38.042969 90.996094 39.128906 90.90625 40.226562 C 90.8125 41.320312 90.292969 42.335938 89.460938 43.050781 C 81.90625 49.34375 71.90625 53.023438 62.695312 53.023438 Z M 62.695312 53.023438 "/>
<path style=" stroke:none;fill-rule:nonzero;fill:rgb(100%,49.803922%,25.490196%);fill-opacity:1;" d="M 67.8125 54.894531 C 67.199219 54.894531 66.605469 54.660156 66.15625 54.242188 C 65.703125 53.824219 65.429688 53.253906 65.378906 52.640625 C 65.332031 52.027344 65.519531 51.417969 65.898438 50.9375 C 66.28125 50.457031 66.832031 50.136719 67.4375 50.042969 C 72.742188 49.191406 77.90625 47.640625 82.796875 45.425781 C 83.089844 45.289062 83.40625 45.214844 83.730469 45.203125 C 84.050781 45.1875 84.375 45.242188 84.675781 45.355469 C 84.976562 45.46875 85.253906 45.640625 85.492188 45.859375 C 85.726562 46.082031 85.914062 46.34375 86.046875 46.640625 C 86.179688 46.933594 86.253906 47.25 86.261719 47.574219 C 86.269531 47.898438 86.214844 48.21875 86.097656 48.519531 C 85.980469 48.820312 85.808594 49.09375 85.582031 49.328125 C 85.359375 49.5625 85.09375 49.75 84.796875 49.878906 C 79.507812 52.269531 73.925781 53.949219 68.195312 54.863281 C 68.070312 54.882812 67.941406 54.894531 67.8125 54.894531 Z M 67.8125 54.894531 "/>
<path style=" stroke:none;fill-rule:nonzero;fill:rgb(90.196078%,86.27451%,79.607843%);fill-opacity:1;" d="M 37.027344 35.65625 L 31.925781 80.445312 L 69.324219 79.410156 C 69.871094 68.800781 68.972656 52.269531 62.425781 42.960938 C 52.792969 29.269531 37.027344 35.65625 37.027344 35.65625 Z M 37.027344 35.65625 "/>
<path style=" stroke:none;fill-rule:nonzero;fill:rgb(56.470588%,38.823529%,80.392157%);fill-opacity:1;" d="M 43.816406 53.257812 C 43.308594 53.480469 42.742188 53.523438 42.210938 53.378906 C 41.675781 53.238281 41.207031 52.917969 40.882812 52.472656 C 40.554688 52.027344 40.390625 51.484375 40.414062 50.933594 C 40.4375 50.378906 40.648438 49.851562 41.011719 49.4375 C 41.203125 49.214844 41.429688 48.964844 41.675781 48.6875 C 42.421875 47.863281 44.164062 45.925781 44.433594 45.136719 C 44.523438 44.871094 44.664062 44.46875 43.898438 43.9375 C 43.605469 43.738281 43.332031 43.546875 42.386719 44.460938 C 41.921875 44.90625 41.300781 45.152344 40.65625 45.140625 C 40.011719 45.125 39.398438 44.859375 38.949219 44.394531 C 38.503906 43.929688 38.261719 43.308594 38.273438 42.664062 C 38.285156 42.019531 38.550781 41.40625 39.015625 40.960938 C 41.445312 38.621094 44.234375 38.253906 46.667969 39.949219 C 49 41.5625 49.902344 44.15625 49.027344 46.707031 C 48.480469 48.308594 47.011719 50.019531 45.289062 51.933594 C 45.058594 52.1875 44.847656 52.421875 44.667969 52.628906 C 44.433594 52.898438 44.144531 53.113281 43.816406 53.257812 Z M 43.816406 53.257812 "/>
<path style=" stroke:none;fill-rule:nonzero;fill:rgb(34.901961%,79.607843%,90.980392%);fill-opacity:1;" d="M 30.898438 86.023438 C 30.285156 86.292969 29.617188 86.410156 28.949219 86.367188 C 28.28125 86.324219 27.636719 86.121094 27.0625 85.777344 C 26.488281 85.433594 26.007812 84.957031 25.65625 84.386719 C 25.304688 83.816406 25.097656 83.171875 25.046875 82.507812 C 24.800781 79.265625 24.863281 76.011719 25.230469 72.785156 C 26.542969 61.558594 31.453125 51.058594 39.226562 42.855469 C 39.601562 42.449219 40.054688 42.121094 40.558594 41.894531 C 41.0625 41.664062 41.609375 41.535156 42.160156 41.519531 C 42.714844 41.5 43.265625 41.59375 43.785156 41.792969 C 44.300781 41.988281 44.773438 42.289062 45.175781 42.667969 C 45.578125 43.050781 45.898438 43.507812 46.121094 44.015625 C 46.34375 44.523438 46.464844 45.070312 46.472656 45.621094 C 46.484375 46.175781 46.382812 46.726562 46.179688 47.242188 C 45.976562 47.757812 45.671875 48.226562 45.285156 48.621094 C 38.761719 55.503906 34.640625 64.316406 33.539062 73.738281 C 33.234375 76.441406 33.179688 79.167969 33.386719 81.878906 C 33.449219 82.742188 33.246094 83.605469 32.800781 84.347656 C 32.355469 85.089844 31.691406 85.675781 30.898438 86.023438 Z M 30.898438 86.023438 "/>
<path style=" stroke:none;fill-rule:nonzero;fill:rgb(100%,49.803922%,25.490196%);fill-opacity:1;" d="M 27.695312 69.660156 C 27.292969 69.835938 26.847656 69.902344 26.410156 69.84375 C 25.96875 69.785156 25.554688 69.613281 25.210938 69.335938 C 24.863281 69.0625 24.601562 68.695312 24.445312 68.28125 C 24.292969 67.867188 24.253906 67.421875 24.335938 66.988281 C 26.175781 57.214844 31.402344 47.765625 38.683594 41.054688 C 38.914062 40.832031 39.191406 40.660156 39.492188 40.546875 C 39.792969 40.429688 40.113281 40.378906 40.433594 40.386719 C 40.757812 40.398438 41.074219 40.472656 41.367188 40.605469 C 41.660156 40.742188 41.921875 40.933594 42.140625 41.167969 C 42.359375 41.40625 42.527344 41.683594 42.636719 41.984375 C 42.75 42.289062 42.796875 42.609375 42.78125 42.933594 C 42.765625 43.253906 42.6875 43.570312 42.546875 43.859375 C 42.410156 44.152344 42.214844 44.410156 41.972656 44.625 C 35.449219 50.644531 30.757812 59.128906 29.109375 67.886719 C 29.035156 68.273438 28.871094 68.640625 28.625 68.949219 C 28.375 69.257812 28.058594 69.5 27.695312 69.660156 Z M 27.695312 69.660156 "/>
<path style=" stroke:none;fill-rule:nonzero;fill:rgb(89.411765%,67.45098%,48.235294%);fill-opacity:1;" d="M 57.992188 27.796875 C 61.582031 24.363281 61.449219 18.398438 57.699219 14.480469 C 53.949219 10.5625 48 10.171875 44.410156 13.609375 C 40.820312 17.046875 40.949219 23.007812 44.699219 26.925781 C 48.449219 30.84375 54.402344 31.234375 57.992188 27.796875 Z M 57.992188 27.796875 "/>
<path style=" stroke:none;fill-rule:nonzero;fill:rgb(56.470588%,38.823529%,80.392157%);fill-opacity:1;" d="M 86.386719 51.089844 L 75.238281 44.0625 L 91.839844 30.683594 L 104.457031 36.898438 Z M 86.386719 51.089844 "/>
<path style=" stroke:none;fill-rule:nonzero;fill:rgb(99.215686%,85.490196%,14.117647%);fill-opacity:1;" d="M 89.039062 51.710938 L 76.164062 46.574219 L 91.097656 29.085938 L 103.765625 33.6875 Z M 89.039062 51.710938 "/>
</g>
</svg>
