<svg width="1080" height="1080" viewBox="0 0 1080 1080" fill="none" xmlns="http://www.w3.org/2000/svg">
<path d="M567.99 379.737C567.29 384.337 563.89 388.337 559.19 389.637C552.59 391.537 545.79 387.737 543.89 381.137C543.49 379.737 542.99 378.037 542.49 376.237C540.89 370.337 537.59 357.937 534.89 354.637C533.99 353.537 532.69 351.837 528.29 353.637C526.59 354.337 525.09 354.937 526.29 361.537C527.59 368.237 523.19 374.737 516.49 376.037C509.79 377.337 503.29 372.937 501.99 366.237C498.69 349.337 504.89 336.437 518.89 330.637C532.29 325.137 545.89 328.437 554.39 339.237C559.69 346.037 562.99 357.037 566.39 369.737C566.89 371.437 567.29 372.937 567.69 374.337C568.19 376.237 568.19 378.037 567.99 379.737Z" fill="#9063CD"/>
<path d="M663.291 517.937C663.091 519.237 662.591 520.637 661.891 521.837C658.591 527.837 651.091 530.037 645.091 526.737C630.991 519.037 617.591 510.037 605.391 499.937C562.591 464.737 531.891 415.737 518.991 361.937C517.391 355.337 521.491 348.637 528.091 347.037C534.791 345.437 541.391 349.537 542.991 356.137C554.691 404.737 582.391 449.037 621.091 480.837C632.091 489.937 644.191 498.037 656.891 505.037C661.691 507.637 664.091 512.837 663.291 517.937Z" fill="#FF7F41"/>
<path d="M593.191 487.737C592.791 490.137 591.691 492.437 589.991 494.237C585.291 499.237 577.391 499.437 572.491 494.637C535.791 459.737 509.791 411.137 501.191 361.337C499.991 354.637 504.59 348.237 511.29 347.037C517.99 345.837 524.391 350.437 525.591 357.137C533.291 401.737 556.59 445.337 589.59 476.637C592.59 479.637 593.791 483.837 593.191 487.737Z" fill="#59CBE8"/>
<path d="M690.291 596.136C688.891 596.136 687.391 595.736 686.191 594.836C676.991 588.436 662.091 564.536 660.891 547.336C660.191 537.636 663.891 532.136 667.091 529.136C675.991 520.836 683.991 520.336 688.991 521.436C701.491 524.036 707.691 537.636 708.291 539.236C709.891 542.936 708.191 547.136 704.491 548.736C700.891 550.336 696.591 548.636 694.991 545.036C693.991 542.836 690.291 536.536 685.891 535.636C683.391 535.136 680.291 536.536 676.791 539.836C675.491 541.036 674.991 543.236 675.191 546.436C676.091 560.036 689.491 579.636 694.391 583.136C697.691 585.436 698.391 589.936 696.191 593.236C694.891 595.136 692.591 596.136 690.291 596.136Z" fill="#F5B6CD"/>
<path d="M768.09 607.936C743.49 607.936 724.79 597.036 712.09 585.836C692.39 568.436 682.99 547.136 682.59 546.236C680.99 542.536 682.69 538.336 686.39 536.736C690.09 535.136 694.29 536.836 695.89 540.436C695.99 540.736 704.59 560.136 722.09 575.336C744.69 595.036 771.19 598.736 800.89 586.436C804.59 584.936 808.79 586.636 810.29 590.336C811.79 594.036 810.09 598.236 806.39 599.736C792.29 605.636 779.49 607.936 768.09 607.936Z" fill="#00C389"/>
<path d="M770.99 623.636C770.59 623.636 770.19 623.636 769.79 623.636C765.79 623.536 762.59 620.336 762.69 616.336C762.79 612.336 766.09 609.136 769.99 609.236C787.79 609.436 806.39 603.236 825.39 590.636C828.69 588.436 833.19 589.336 835.39 592.636C837.59 595.936 836.69 600.436 833.39 602.636C812.39 616.636 791.39 623.636 770.99 623.636Z" fill="#9063CD"/>
<path d="M718.091 609.137C716.591 609.137 715.091 608.637 713.891 607.737C687.991 588.837 674.091 563.137 673.491 562.037C671.591 558.537 672.891 554.137 676.391 552.237C679.891 550.337 684.291 551.637 686.191 555.137C686.291 555.337 699.291 579.137 722.391 595.937C725.591 598.337 726.291 602.837 723.991 606.037C722.491 608.037 720.291 609.137 718.091 609.137Z" fill="#9063CD"/>
<path d="M899.292 690.736C833.892 690.736 776.592 743.736 771.092 809.036C765.592 874.336 814.192 927.336 879.592 927.336C944.992 927.336 1002.29 874.336 1007.79 809.036C1013.29 743.736 964.692 690.736 899.292 690.736ZM882.492 893.336C835.992 893.336 801.492 855.636 805.292 809.136C809.192 762.636 849.992 724.936 896.492 724.936C942.992 724.936 977.492 762.636 973.692 809.136C969.792 855.636 928.992 893.336 882.492 893.336Z" fill="#2C2A29"/>
<path d="M886.892 816.837C883.492 816.837 880.392 814.537 879.492 811.137L825.492 609.537C824.692 606.737 825.692 603.637 827.892 601.737C830.092 599.837 833.192 599.337 835.892 600.437L865.992 613.037L867.892 602.537C868.592 598.337 872.592 595.537 876.792 596.337C880.992 597.037 883.792 601.037 882.992 605.237L879.492 625.237C879.092 627.537 877.692 629.537 875.592 630.637C873.492 631.737 871.092 631.837 868.892 630.937L844.392 620.637L894.292 807.037C895.392 811.137 892.992 815.337 888.892 816.437C888.192 816.737 887.492 816.837 886.892 816.837Z" fill="#FF7F41"/>
<path d="M530.47 905.755C549.954 887.455 552.661 858.686 536.517 841.496C520.372 824.307 491.489 825.207 472.005 843.507C452.521 861.807 449.814 890.576 465.959 907.766C482.104 924.955 510.986 924.055 530.47 905.755Z" fill="#2C2A29"/>
<path d="M516.915 891.322C527.382 881.492 528.848 866.049 520.189 856.831C511.531 847.612 496.027 848.108 485.561 857.939C475.094 867.769 473.628 883.211 482.287 892.43C490.945 901.649 506.449 901.153 516.915 891.322Z" fill="#FF7F41"/>
<path d="M886.89 824.736L597.59 850.236L600.69 809.036H886.89C891.19 809.036 894.69 812.536 894.69 816.836C894.69 821.236 891.19 824.736 886.89 824.736Z" fill="#00C389"/>
<path d="M779.702 535.826C812.62 522.654 827.031 481.3 811.889 443.46C796.747 405.62 757.787 385.622 724.869 398.794C691.951 411.966 677.541 453.32 692.682 491.16C707.824 529.001 746.784 548.998 779.702 535.826Z" fill="#E4AC7B"/>
<path d="M687.192 497.736C687.192 497.736 764.092 584.136 708.992 705.136C689.592 747.736 521.992 705.136 521.992 705.136C521.992 705.136 538.192 530.036 687.192 497.736Z" fill="#E6DCCB"/>
<path d="M534.59 694.036V708.136C573.89 717.036 692.89 740.636 708.99 705.136C719.29 682.636 722.79 674.536 725.29 654.736L534.59 694.036Z" fill="#9063CD"/>
<path d="M811.392 809.236L739.492 741.636L608.692 782.736C560.792 782.736 521.992 743.936 521.992 696.036L728.992 664.136C754.792 660.136 780.692 670.236 796.992 690.536L857.992 766.136C868.592 779.336 867.092 798.536 854.392 809.736C842.092 820.736 823.392 820.536 811.392 809.236Z" fill="#59CBE8"/>
<path d="M797.089 415.337L775.789 422.137L682.589 451.937L681.489 449.537C669.189 421.837 684.79 391.237 716.39 381.137C747.99 371.037 783.689 385.237 795.989 412.937L797.089 415.337Z" fill="#FF7F41"/>
<path d="M761.891 427.036L802.691 413.936L824.291 386.236L761.891 427.036Z" fill="#59CBE8"/>
<path d="M682.691 778.237L552.891 829.137L465.891 676.737C476.791 672.537 489.191 676.337 495.891 686.037L569.791 792.737L664.791 764.937C673.691 762.237 682.691 768.937 682.691 778.237Z" fill="#FF7F41"/>
<path d="M905.993 820.036L869.193 841.336C861.593 845.736 851.893 843.136 847.493 835.536C843.093 827.936 845.693 818.236 853.293 813.836L890.093 792.536C897.693 788.136 907.393 790.736 911.793 798.336C916.193 805.936 913.593 815.736 905.993 820.036Z" fill="#FDDA24"/>
<path d="M861.193 843.937C855.493 843.937 849.993 841.037 846.993 835.737C844.793 831.937 844.193 827.537 845.393 823.337C846.493 819.137 849.193 815.537 852.993 813.337L889.793 792.037C893.593 789.837 897.993 789.237 902.193 790.437C906.393 791.537 909.993 794.237 912.193 798.037C916.693 805.837 913.993 815.937 906.193 820.437L869.393 841.737C866.793 843.237 863.993 843.937 861.193 843.937ZM897.993 790.937C895.293 790.937 892.693 791.637 890.293 793.037L853.493 814.337C849.893 816.437 847.393 819.737 846.293 823.737C845.193 827.737 845.793 831.837 847.793 835.437C851.993 842.837 861.493 845.337 868.793 841.037L905.593 819.737C912.993 815.537 915.493 806.037 911.193 798.737C909.093 795.137 905.793 792.637 901.793 791.537C900.693 791.037 899.393 790.937 897.993 790.937Z" fill="#FDDA24"/>
<path d="M604.492 808.236L493.392 869.136C490.792 870.536 489.392 873.336 489.692 876.336C490.292 881.436 495.892 884.336 500.392 881.836L597.692 850.236L604.492 808.236Z" fill="#00C389"/>
<path d="M671.292 638.837C669.892 638.837 668.592 638.537 667.192 637.937C654.792 632.237 628.992 605.537 624.792 582.437C622.492 569.737 627.192 561.837 631.592 557.437C641.292 547.737 651.592 543.337 662.292 544.537C679.192 546.437 689.292 561.537 690.392 563.337C693.292 567.837 691.892 573.837 687.392 576.737C682.892 579.637 676.892 578.237 673.992 573.737C672.392 571.237 666.692 564.537 660.092 563.837C655.592 563.337 650.692 565.837 645.392 571.137C644.692 571.837 642.992 573.537 643.992 578.937C646.792 594.337 666.992 616.337 675.392 620.237C680.292 622.437 682.392 628.237 680.192 633.137C678.492 636.737 674.992 638.837 671.292 638.837Z" fill="#F5B6CD"/>
<path d="M769.388 640.537C741.988 640.537 719.788 631.837 703.488 622.037C672.988 603.837 656.788 578.637 656.188 577.537C653.288 573.037 654.688 567.037 659.188 564.137C663.688 561.237 669.688 562.637 672.588 567.137C672.788 567.337 687.288 589.937 714.088 605.737C749.288 626.437 788.288 626.337 830.188 605.337C834.988 602.937 840.788 604.837 843.188 609.637C845.588 614.437 843.688 620.237 838.888 622.637C813.088 635.737 789.788 640.537 769.388 640.537Z" fill="#00C389"/>
<path d="M788.889 658.937C783.989 658.937 779.789 655.237 779.289 650.337C778.689 645.037 782.489 640.237 787.889 639.637C813.889 636.737 840.389 625.437 866.389 606.137C870.689 602.937 876.789 603.837 879.989 608.137C883.189 612.437 882.289 618.537 877.989 621.737C849.189 643.137 819.589 655.637 790.089 658.937C789.689 658.937 789.289 658.937 788.889 658.937Z" fill="#9063CD"/>
<path d="M712.69 650.036C711.29 650.036 709.89 649.736 708.49 649.036C669.09 630.036 645.79 600.336 644.79 599.136C641.49 594.936 642.29 588.736 646.49 585.536C650.69 582.236 656.79 583.036 660.09 587.236C660.29 587.536 681.69 614.636 716.79 631.536C721.59 633.836 723.69 639.636 721.29 644.536C719.79 647.936 716.39 650.036 712.69 650.036Z" fill="#9063CD"/>
<path d="M317.893 905.537C310.593 905.537 303.093 904.137 295.793 901.337C264.993 889.137 249.893 854.337 262.093 823.437L296.693 736.037C311.193 699.437 309.093 658.437 290.893 623.537L229.093 504.737C213.793 475.337 225.193 439.137 254.593 423.837C283.993 408.537 320.193 419.937 335.493 449.337L397.293 568.137C431.493 633.937 435.493 711.237 408.293 780.237L373.693 867.637C364.393 891.137 341.793 905.537 317.893 905.537Z" fill="#2C2A29"/>
<path d="M132.991 889.737C121.891 889.737 110.591 886.637 100.491 880.137C72.691 862.137 64.591 825.037 82.591 797.237L316.391 434.837C334.391 407.037 371.491 398.937 399.291 416.937C427.091 434.937 435.191 472.037 417.191 499.837L183.391 862.237C171.891 880.037 152.691 889.737 132.991 889.737Z" fill="#2C2A29"/>
<path d="M584.791 312.536L422.391 566.936L216.191 435.436L242.391 397.436C318.691 286.736 465.591 250.236 584.791 312.536Z" fill="#00C389"/>
<path d="M567.29 566.937C564.79 566.937 562.39 566.137 560.39 564.337C546.69 552.637 534.19 539.537 523.09 525.637C484.39 477.037 462.19 416.037 460.69 353.937C460.49 348.037 465.19 343.137 471.09 343.037C476.99 342.937 481.89 347.537 481.99 353.437C483.49 410.937 503.99 467.437 539.79 512.437C549.99 525.337 561.69 537.337 574.29 548.237C578.79 552.037 579.29 558.737 575.39 563.237C573.19 565.737 570.29 566.937 567.29 566.937Z" fill="#59CBE8"/>
<path d="M597.59 614.337C595.89 614.337 594.09 613.937 592.49 613.037C563.59 597.037 537.49 574.937 516.99 548.937C513.39 544.337 514.09 537.637 518.79 534.037C523.39 530.437 530.09 531.137 533.69 535.837C552.39 559.537 576.29 579.837 602.79 594.437C607.89 597.237 609.79 603.737 606.99 608.937C604.99 612.337 601.39 614.337 597.59 614.337Z" fill="#00C389"/>
<path d="M494.191 391.037C488.691 391.037 483.991 386.737 483.591 381.137C483.491 379.437 483.391 377.537 483.291 375.437C482.891 367.637 482.091 353.237 479.691 348.337C478.391 345.737 475.891 342.437 468.891 343.737C466.191 344.237 462.191 344.937 461.991 355.337C461.891 361.137 457.191 365.737 451.391 365.737C451.291 365.737 451.291 365.737 451.191 365.737C445.291 365.637 440.691 360.837 440.791 354.937C441.091 336.937 449.791 325.537 465.091 322.737C479.891 320.037 492.491 326.137 498.791 338.837C502.791 347.037 503.791 359.737 504.591 374.237C504.691 376.237 504.791 378.037 504.891 379.637C505.291 385.537 500.891 390.537 494.991 390.937C494.691 391.037 494.391 391.037 494.191 391.037Z" fill="#9063CD"/>
<path d="M496.59 516.837C493.19 516.837 489.89 515.237 487.79 512.237C455.69 465.337 438.59 406.037 440.79 349.437C440.99 343.537 445.99 339.037 451.79 339.237C457.69 339.437 462.19 344.437 461.99 350.237C459.89 402.337 475.69 456.937 505.29 500.137C508.59 504.937 507.39 511.637 502.49 514.937C500.79 516.237 498.69 516.837 496.59 516.837Z" fill="#FF7F41"/>
<path d="M625.762 304.559C653.412 275.673 650.276 227.799 618.757 197.629C587.239 167.458 539.273 166.416 511.623 195.302C483.973 224.187 487.11 272.062 518.628 302.232C550.147 332.403 598.112 333.444 625.762 304.559Z" fill="#E4AC7B"/>
<path d="M495.291 273.736H573.291C580.891 273.736 586.991 267.636 586.991 260.036V214.036C586.991 206.436 580.891 200.336 573.291 200.336H502.791C492.991 213.936 487.991 231.136 489.591 249.936C490.291 258.236 492.291 266.236 495.291 273.736Z" fill="#E6DCCB"/>
<path d="M646.99 291.936H603.59L606.79 284.036C609.29 277.836 615.39 273.736 622.09 273.736H647.09V291.936H646.99Z" fill="#E6DCCB"/>
</svg>
