<svg width="20" height="20" viewBox="0 0 20 20" fill="none" xmlns="http://www.w3.org/2000/svg">
<g clip-path="url(#clip0_2353_12774)">
<path d="M10 20C15.5228 20 20 15.5228 20 10C20 4.47715 15.5228 0 10 0C4.47715 0 0 4.47715 0 10C0 15.5228 4.47715 20 10 20Z" fill="white"/>
<path d="M5.02677 5L9.27374 10.6785L5 15.2954H5.96192L9.70366 11.2531L12.7268 15.2954H16L11.514 9.29755L15.492 5H14.5301L11.0842 8.72272L8.3 5H5.02677ZM6.44132 5.70847H7.94502L14.5853 14.5869H13.0816L6.44132 5.70847Z" fill="#2C2A29"/>
</g>
<defs>
<clipPath id="clip0_2353_12774">
<rect width="20" height="20" fill="white"/>
</clipPath>
</defs>
</svg>
