<?xml version="1.0" encoding="UTF-8"?>
<svg xmlns="http://www.w3.org/2000/svg" xmlns:xlink="http://www.w3.org/1999/xlink" width="150pt" height="150pt" viewBox="0 0 150 150" version="1.1">
<g id="surface1">
<path style=" stroke:none;fill-rule:nonzero;fill:rgb(87.45098%,87.45098%,87.45098%);fill-opacity:1;" d="M 60.195312 102.777344 L 30.417969 86.765625 L 30.417969 52.277344 L 60.21875 36.25 L 85.222656 51.621094 L 84.480469 52.828125 L 60.171875 37.886719 L 31.835938 53.125 L 31.835938 85.914062 L 60.191406 101.164062 L 88.628906 85.714844 L 89.304688 86.960938 Z M 60.195312 102.777344 "/>
<path style=" stroke:none;fill-rule:nonzero;fill:rgb(56.470588%,38.823529%,80.392157%);fill-opacity:1;" d="M 60.207031 44.859375 C 64.542969 44.859375 68.054688 41.378906 68.054688 37.082031 C 68.054688 32.789062 64.542969 29.304688 60.207031 29.304688 C 55.875 29.304688 52.359375 32.789062 52.359375 37.082031 C 52.359375 41.378906 55.875 44.859375 60.207031 44.859375 Z M 60.207031 44.859375 "/>
<path style=" stroke:none;fill-rule:nonzero;fill:rgb(34.901961%,79.607843%,90.980392%);fill-opacity:1;" d="M 60.207031 109.859375 C 64.542969 109.859375 68.054688 106.347656 68.054688 102.015625 C 68.054688 97.679688 64.542969 94.167969 60.207031 94.167969 C 55.875 94.167969 52.359375 97.679688 52.359375 102.015625 C 52.359375 106.347656 55.875 109.859375 60.207031 109.859375 Z M 60.207031 109.859375 "/>
<path style=" stroke:none;fill-rule:nonzero;fill:rgb(96.078431%,71.372549%,80.392157%);fill-opacity:1;" d="M 88.957031 94.167969 C 93.292969 94.167969 96.804688 90.683594 96.804688 86.390625 C 96.804688 82.09375 93.292969 78.609375 88.957031 78.609375 C 84.625 78.609375 81.109375 82.09375 81.109375 86.390625 C 81.109375 90.683594 84.625 94.167969 88.957031 94.167969 Z M 88.957031 94.167969 "/>
<path style=" stroke:none;fill-rule:nonzero;fill:rgb(100%,49.803922%,25.490196%);fill-opacity:1;" d="M 31.109375 60.554688 C 35.40625 60.554688 38.890625 57.042969 38.890625 52.707031 C 38.890625 48.375 35.40625 44.859375 31.109375 44.859375 C 26.816406 44.859375 23.332031 48.375 23.332031 52.707031 C 23.332031 57.042969 26.816406 60.554688 31.109375 60.554688 Z M 31.109375 60.554688 "/>
<path style=" stroke:none;fill-rule:nonzero;fill:rgb(99.215686%,85.490196%,14.117647%);fill-opacity:1;" d="M 31.109375 94.167969 C 35.40625 94.167969 38.890625 90.683594 38.890625 86.390625 C 38.890625 82.09375 35.40625 78.609375 31.109375 78.609375 C 26.816406 78.609375 23.332031 82.09375 23.332031 86.390625 C 23.332031 90.683594 26.816406 94.167969 31.109375 94.167969 Z M 31.109375 94.167969 "/>
<path style=" stroke:none;fill-rule:nonzero;fill:rgb(0%,76.470588%,53.72549%);fill-opacity:1;" d="M 87.996094 60.496094 C 87.996094 60.496094 76.25 58.847656 81.230469 46.695312 C 86.210938 34.546875 93.691406 33.472656 93.691406 33.472656 C 93.691406 33.472656 99.582031 38.65625 99.582031 48.125 C 99.582031 57.597656 96.386719 61.070312 87.996094 60.496094 Z M 87.996094 60.496094 "/>
<path style=" stroke:none;fill-rule:nonzero;fill:rgb(87.45098%,87.45098%,87.45098%);fill-opacity:1;" d="M 89.042969 87.082031 C 88.871094 87.082031 88.703125 87.019531 88.574219 86.90625 C 88.445312 86.789062 88.363281 86.628906 88.34375 86.457031 C 88.175781 85.050781 84.300781 51.910156 92.011719 41.199219 C 92.058594 41.113281 92.125 41.035156 92.207031 40.976562 C 92.285156 40.914062 92.378906 40.871094 92.476562 40.851562 C 92.574219 40.828125 92.675781 40.828125 92.773438 40.847656 C 92.871094 40.871094 92.964844 40.910156 93.042969 40.96875 C 93.125 41.03125 93.191406 41.105469 93.242188 41.195312 C 93.292969 41.28125 93.320312 41.378906 93.332031 41.480469 C 93.339844 41.582031 93.328125 41.683594 93.292969 41.777344 C 93.261719 41.875 93.207031 41.960938 93.136719 42.035156 C 90.105469 46.25 88.546875 55.21875 88.625 67.96875 C 88.691406 77.679688 89.707031 86.203125 89.714844 86.289062 C 89.726562 86.378906 89.71875 86.472656 89.695312 86.5625 C 89.667969 86.652344 89.628906 86.738281 89.570312 86.8125 C 89.511719 86.886719 89.441406 86.945312 89.359375 86.992188 C 89.28125 87.039062 89.191406 87.066406 89.097656 87.078125 Z M 89.042969 87.082031 "/>
<path style=" stroke:none;fill-rule:nonzero;fill:rgb(0%,76.470588%,53.72549%);fill-opacity:1;" d="M 86.257812 119.703125 C 85.855469 119.296875 85.582031 118.78125 85.46875 118.222656 C 85.359375 117.664062 85.417969 117.082031 85.640625 116.554688 C 85.859375 116.03125 86.234375 115.582031 86.710938 115.265625 C 87.1875 114.949219 87.746094 114.78125 88.320312 114.78125 C 104.496094 114.761719 115.878906 99.25 115.992188 99.089844 C 116.464844 98.53125 117.128906 98.167969 117.855469 98.078125 C 118.582031 97.988281 119.316406 98.175781 119.910156 98.601562 C 120.503906 99.027344 120.914062 99.664062 121.054688 100.378906 C 121.199219 101.097656 121.0625 101.839844 120.675781 102.460938 C 118.109375 105.8125 115.136719 108.835938 111.824219 111.460938 C 104.40625 117.402344 96.273438 120.542969 88.308594 120.554688 C 87.925781 120.554688 87.550781 120.480469 87.195312 120.332031 C 86.84375 120.1875 86.527344 119.972656 86.257812 119.703125 Z M 86.257812 119.703125 "/>
<path style=" stroke:none;fill-rule:nonzero;fill:rgb(96.078431%,71.372549%,80.392157%);fill-opacity:1;" d="M 119.386719 76.664062 C 119.074219 76.347656 118.828125 75.96875 118.664062 75.554688 C 118.5 75.140625 118.421875 74.699219 118.433594 74.25 C 118.609375 67.035156 116.820312 59.90625 113.257812 53.644531 C 113.03125 53.265625 112.878906 52.847656 112.8125 52.410156 C 112.75 51.972656 112.773438 51.527344 112.878906 51.097656 C 112.988281 50.671875 113.179688 50.269531 113.445312 49.917969 C 113.710938 49.566406 114.042969 49.273438 114.421875 49.050781 C 114.800781 48.832031 115.222656 48.691406 115.65625 48.636719 C 116.089844 48.582031 116.53125 48.617188 116.953125 48.738281 C 117.375 48.859375 117.769531 49.0625 118.109375 49.339844 C 118.453125 49.617188 118.734375 49.957031 118.941406 50.347656 C 123.101562 57.660156 125.191406 65.980469 124.984375 74.40625 C 124.972656 75.054688 124.765625 75.6875 124.402344 76.21875 C 124.035156 76.75 123.519531 77.164062 122.921875 77.402344 C 122.324219 77.644531 121.671875 77.703125 121.039062 77.570312 C 120.410156 77.4375 119.832031 77.121094 119.378906 76.664062 Z M 119.386719 76.664062 "/>
<path style=" stroke:none;fill-rule:nonzero;fill:rgb(99.215686%,85.490196%,14.117647%);fill-opacity:1;" d="M 90.875 115.921875 C 90.667969 115.714844 90.523438 115.453125 90.457031 115.167969 C 90.363281 114.757812 90.4375 114.332031 90.65625 113.976562 C 90.878906 113.621094 91.230469 113.371094 91.640625 113.277344 C 99.707031 111.40625 107.023438 107.148438 112.632812 101.054688 C 118.242188 94.964844 121.886719 87.320312 123.089844 79.125 C 124.332031 70.5 122.828125 61.703125 118.792969 53.980469 C 118.597656 53.609375 118.558594 53.175781 118.679688 52.777344 C 118.804688 52.378906 119.082031 52.042969 119.453125 51.847656 C 119.820312 51.652344 120.253906 51.613281 120.652344 51.738281 C 121.050781 51.859375 121.386719 52.136719 121.582031 52.507812 C 123.765625 56.65625 125.273438 61.128906 126.046875 65.753906 C 126.816406 70.328125 126.871094 74.992188 126.203125 79.578125 C 124.90625 88.40625 120.984375 96.632812 114.945312 103.195312 C 108.902344 109.753906 101.027344 114.339844 92.339844 116.351562 C 92.082031 116.410156 91.808594 116.402344 91.550781 116.324219 C 91.296875 116.25 91.0625 116.113281 90.875 115.921875 Z M 90.875 115.921875 "/>
</g>
</svg>
