<?xml version="1.0" encoding="UTF-8"?>
<svg xmlns="http://www.w3.org/2000/svg" xmlns:xlink="http://www.w3.org/1999/xlink" width="150pt" height="150pt" viewBox="0 0 150 150" version="1.1">
<g id="surface1">
<path style=" stroke:none;fill-rule:nonzero;fill:rgb(0%,76.470588%,53.72549%);fill-opacity:1;" d="M 86.695312 91.027344 C 86.929688 89.25 87.359375 87.484375 87.984375 85.765625 C 89.75 80.902344 93.042969 76.402344 97.636719 72.527344 L 114.320312 72.527344 L 116.945312 76.609375 C 113.625 77.609375 111.652344 82.679688 111.695312 88.472656 L 123.777344 87.234375 L 120.097656 81.515625 L 114.320312 72.527344 L 48.25 72.527344 L 67.902344 92.972656 Z M 86.695312 91.027344 "/>
<path style=" stroke:none;fill-rule:nonzero;fill:rgb(100%,49.803922%,25.490196%);fill-opacity:1;" d="M 44.234375 72.515625 L 35.527344 72.515625 L 28.375 83.625 L 52.015625 80.609375 Z M 44.234375 72.515625 "/>
<path style=" stroke:none;fill-rule:nonzero;fill:rgb(0%,76.470588%,53.72549%);fill-opacity:1;" d="M 54.515625 83.207031 L 26.332031 86.804688 L 19.167969 97.945312 L 64.25 93.332031 Z M 54.515625 83.207031 "/>
<path style=" stroke:none;fill-rule:nonzero;fill:rgb(96.078431%,71.372549%,80.392157%);fill-opacity:1;" d="M 125.527344 89.957031 L 111.875 91.359375 C 112.667969 97.859375 115.988281 104.554688 122.707031 107.027344 L 89.777344 107.027344 C 87.527344 102.832031 86.417969 98.375 86.472656 93.957031 L 70.429688 95.597656 L 81.417969 107.015625 L 136.5 107.015625 Z M 125.527344 89.957031 "/>
<path style=" stroke:none;fill-rule:nonzero;fill:rgb(56.470588%,38.823529%,80.392157%);fill-opacity:1;" d="M 17.167969 101.054688 L 13.332031 107.015625 L 77.417969 107.015625 L 66.792969 95.972656 Z M 17.167969 101.054688 "/>
<path style=" stroke:none;fill-rule:nonzero;fill:rgb(34.901961%,79.607843%,90.980392%);fill-opacity:1;" d="M 116.945312 76.597656 L 114.320312 72.515625 L 97.640625 72.515625 C 93.042969 76.390625 89.75 80.890625 87.984375 85.75 C 87.359375 87.472656 86.929688 89.234375 86.695312 91.015625 L 111.695312 88.457031 C 111.652344 82.679688 113.609375 77.597656 116.945312 76.597656 Z M 116.945312 76.597656 "/>
<path style=" stroke:none;fill-rule:nonzero;fill:rgb(34.901961%,79.607843%,90.980392%);fill-opacity:1;" d="M 89.777344 107.015625 L 122.707031 107.015625 C 115.984375 104.542969 112.652344 97.847656 111.875 91.347656 L 86.472656 93.945312 C 86.417969 98.375 87.527344 102.820312 89.777344 107.015625 Z M 89.777344 107.015625 "/>
<path style=" stroke:none;fill-rule:nonzero;fill:rgb(100%,100%,100%);fill-opacity:1;" d="M 123.777344 87.222656 L 111.695312 88.472656 L 86.695312 91.027344 L 67.902344 92.957031 L 48.25 72.515625 L 44.238281 72.515625 L 52.015625 80.609375 L 54.875 80.234375 L 55.238281 83.109375 L 54.515625 83.207031 L 64.25 93.332031 L 19.167969 97.945312 L 17.167969 101.054688 L 66.792969 95.972656 L 77.417969 107.015625 L 81.417969 107.015625 L 70.445312 95.597656 L 86.488281 93.957031 L 111.875 91.359375 L 125.527344 89.957031 Z M 123.777344 87.222656 "/>
<path style=" stroke:none;fill-rule:nonzero;fill:rgb(100%,100%,100%);fill-opacity:1;" d="M 28.375 83.625 L 26.332031 86.804688 L 54.515625 83.207031 L 52.015625 80.609375 Z M 28.375 83.625 "/>
<path style=" stroke:none;fill-rule:nonzero;fill:rgb(100%,100%,100%);fill-opacity:1;" d="M 54.875 80.234375 L 52.015625 80.609375 L 54.515625 83.207031 L 55.234375 83.109375 Z M 54.875 80.234375 "/>
<path style=" stroke:none;fill-rule:nonzero;fill:rgb(99.215686%,85.490196%,14.117647%);fill-opacity:1;" d="M 74.957031 39.652344 C 65.515625 39.652344 57.863281 47.304688 57.863281 56.75 C 57.863281 72.515625 74.957031 86.570312 74.957031 86.570312 C 74.957031 86.570312 92.054688 72.515625 92.054688 56.75 C 92.054688 47.304688 84.402344 39.652344 74.957031 39.652344 Z M 74.957031 66.515625 C 69.570312 66.515625 65.195312 62.140625 65.195312 56.75 C 65.195312 51.359375 69.570312 46.984375 74.957031 46.984375 C 80.347656 46.984375 84.722656 51.359375 84.722656 56.75 C 84.722656 62.140625 80.347656 66.515625 74.957031 66.515625 Z M 74.957031 66.515625 "/>
<path style=" stroke:none;fill-rule:nonzero;fill:rgb(99.215686%,85.490196%,14.117647%);fill-opacity:1;" d="M 74.957031 86.667969 L 74.917969 86.625 C 74.875 86.582031 70.582031 83.042969 66.363281 77.609375 C 62.457031 72.597656 57.792969 64.917969 57.792969 56.75 C 57.792969 47.292969 65.488281 39.582031 74.957031 39.582031 C 84.429688 39.582031 92.125 47.292969 92.125 56.75 C 92.125 61.25 90.640625 68.527344 83.554688 77.609375 C 79.320312 83.042969 75.042969 86.582031 75 86.625 Z M 74.957031 39.722656 C 65.570312 39.722656 57.929688 47.359375 57.929688 56.75 C 57.929688 61.234375 59.417969 68.472656 66.457031 77.527344 C 70.445312 82.652344 74.488281 86.097656 74.957031 86.484375 C 75.417969 86.097656 79.457031 82.652344 83.457031 77.527344 C 87.347656 72.527344 91.988281 64.875 91.988281 56.75 C 91.988281 47.359375 84.347656 39.722656 74.957031 39.722656 Z M 74.957031 66.582031 C 69.542969 66.582031 65.125 62.167969 65.125 56.75 C 65.125 51.332031 69.542969 46.917969 74.957031 46.917969 C 80.375 46.917969 84.792969 51.332031 84.792969 56.75 C 84.792969 62.179688 80.375 66.582031 74.957031 66.582031 Z M 74.957031 47.054688 C 69.613281 47.054688 65.265625 51.402344 65.265625 56.75 C 65.265625 62.097656 69.613281 66.445312 74.957031 66.445312 C 80.304688 66.445312 84.652344 62.097656 84.652344 56.75 C 84.652344 51.402344 80.304688 47.054688 74.957031 47.054688 Z M 74.957031 47.054688 "/>
<path style=" stroke:none;fill-rule:nonzero;fill:rgb(0%,76.470588%,53.72549%);fill-opacity:1;" d="M 77.417969 107.015625 L 13.332031 107.015625 L 13.332031 110.515625 L 77.417969 110.515625 Z M 77.417969 107.015625 "/>
<path style=" stroke:none;fill-rule:nonzero;fill:rgb(100%,49.803922%,25.490196%);fill-opacity:1;" d="M 136.640625 107.015625 L 81.667969 107.015625 L 81.667969 110.515625 L 136.640625 110.515625 Z M 136.640625 107.015625 "/>
<path style=" stroke:none;fill-rule:nonzero;fill:rgb(100%,100%,100%);fill-opacity:1;" d="M 81.429688 107.015625 L 77.417969 107.015625 L 77.417969 110.515625 L 81.429688 110.515625 Z M 81.429688 107.015625 "/>
</g>
</svg>
