<svg width="206" height="28" viewBox="0 0 206 28" fill="none" xmlns="http://www.w3.org/2000/svg">
<path fill-rule="evenodd" clip-rule="evenodd" d="M77.0137 10.9258L78.1003 10.8088C78.1636 11.2182 78.2904 11.5009 78.4987 11.6764C78.7069 11.8811 78.9605 11.9591 79.3136 11.9591C79.6758 11.9689 79.9475 11.8811 80.1376 11.7251C80.3187 11.5594 80.4002 11.3742 80.4002 11.1402C80.4002 11.0135 80.364 10.8868 80.3006 10.7893C80.2191 10.6821 80.0924 10.6041 79.8931 10.5261C79.7664 10.4676 79.4495 10.3994 78.9967 10.2531C78.39 10.0874 77.9735 9.89245 77.72 9.64874C77.3759 9.33679 77.2038 8.92736 77.2038 8.45944C77.2038 8.14749 77.2944 7.86479 77.4574 7.59183C77.6022 7.31888 77.8467 7.12391 78.1546 6.98743C78.4534 6.85095 78.8156 6.78271 79.2502 6.78271C79.9565 6.78271 80.4817 6.94844 80.8349 7.28963C81.1789 7.62108 81.3691 8.0695 81.3872 8.60566L80.2644 8.66415C80.2101 8.3522 80.1105 8.12799 79.9565 7.99151C79.7845 7.86479 79.5491 7.7868 79.2412 7.7868C78.9243 7.7868 78.6617 7.86479 78.4715 7.99151C78.3538 8.09875 78.2995 8.21573 78.2995 8.38145C78.2995 8.51793 78.3447 8.63491 78.4534 8.75189C78.5892 8.87862 78.9424 9.01509 79.4947 9.14182C80.0471 9.28805 80.4455 9.42453 80.7081 9.5805C80.9526 9.74622 81.1699 9.94119 81.3238 10.1946C81.4687 10.4481 81.5321 10.7698 81.5321 11.1597C81.5321 11.5009 81.4415 11.8226 81.2695 12.1248C81.0793 12.4173 80.8439 12.6415 80.5089 12.7975C80.1829 12.9242 79.7845 13.0022 79.3136 13.0022C78.5802 12.9924 78.055 12.817 77.6747 12.4758C77.2944 12.1151 77.0771 11.5984 77.0137 10.9258Z" fill="white"/>
<path fill-rule="evenodd" clip-rule="evenodd" d="M82.4046 6.88098H83.5093L83.5002 10.1564C83.5002 10.6731 83.5183 11.0046 83.5545 11.1605C83.6089 11.414 83.7085 11.609 83.8805 11.7552C84.0707 11.9112 84.3152 11.9794 84.623 11.9794C84.949 11.9794 85.1935 11.9209 85.3565 11.7747C85.5195 11.6284 85.61 11.4725 85.6643 11.258C85.6825 11.0533 85.6915 10.7024 85.6915 10.2344L85.7006 6.89073L86.8324 6.89073L86.8234 10.059C86.8234 10.7901 86.7962 11.297 86.7419 11.5992C86.6785 11.8917 86.5608 12.1451 86.3887 12.3596C86.2348 12.5643 85.9994 12.73 85.7368 12.8372C85.4561 12.964 85.112 13.0127 84.6683 13.0127C84.1341 13.0127 83.7356 12.9542 83.4549 12.808C83.1923 12.6715 82.966 12.5156 82.803 12.2913C82.649 12.0866 82.5404 11.8527 82.4861 11.6382C82.4227 11.2775 82.3955 10.7706 82.3955 10.098L82.4046 6.88098Z" fill="white"/>
<path fill-rule="evenodd" clip-rule="evenodd" d="M87.8926 12.9166L87.9107 6.90186H89.7126C90.4008 6.90186 90.8626 6.9311 91.0618 6.98959C91.3878 7.08707 91.6594 7.28204 91.8677 7.58424C92.076 7.89619 92.1846 8.27638 92.1846 8.7638C92.1846 9.13424 92.1303 9.43644 91.9945 9.68015C91.8768 9.9336 91.7047 10.1286 91.5236 10.2748C91.3244 10.4308 91.1343 10.5185 90.935 10.5575C90.6634 10.6257 90.274 10.655 89.7579 10.6452H89.0154V12.9166H87.8926ZM89.0244 7.91571V9.62168H89.6402C90.102 9.62168 90.3917 9.60218 90.5275 9.54369C90.6815 9.4657 90.7901 9.37797 90.8897 9.24149C90.9712 9.10501 91.0256 8.95878 91.0256 8.77357C91.0256 8.5591 90.9622 8.37388 90.8626 8.22766C90.7177 8.09118 90.5819 8.00344 90.4008 7.96445C90.2559 7.9352 89.9842 7.91571 89.5768 7.91571H89.0244Z" fill="white"/>
<path fill-rule="evenodd" clip-rule="evenodd" d="M92.9824 12.9344L93.0005 6.91968L97.1296 6.92943L97.1205 7.94326L94.1052 7.93351V9.25929L96.9213 9.26904V10.2926L94.1052 10.2829L94.0962 11.9206L97.2201 11.9303V12.9442L92.9824 12.9344Z" fill="white"/>
<path fill-rule="evenodd" clip-rule="evenodd" d="M98.0703 12.9464L98.0884 6.93164L100.452 6.94139C101.049 6.94139 101.484 6.99013 101.756 7.10711C102.027 7.2046 102.236 7.39956 102.39 7.68227C102.562 7.96497 102.643 8.26717 102.643 8.63761C102.643 9.08603 102.516 9.46622 102.272 9.74892C102.018 10.0414 101.647 10.2363 101.167 10.3046C101.393 10.4703 101.611 10.6263 101.756 10.8212C101.937 10.9967 102.136 11.3184 102.399 11.7863L103.087 12.9659H101.729L100.932 11.6499C100.633 11.1819 100.434 10.8797 100.325 10.7725C100.225 10.6555 100.108 10.558 99.999 10.5093C99.8722 10.4703 99.6821 10.4411 99.4376 10.4313H99.2022L99.1931 12.9561L98.0703 12.9464ZM99.2022 9.48574H100.035C100.579 9.48574 100.923 9.46624 101.04 9.40775C101.176 9.36876 101.285 9.28102 101.366 9.16404C101.43 9.03731 101.484 8.89109 101.484 8.70587C101.484 8.4914 101.43 8.33543 101.339 8.21845C101.212 8.10147 101.095 8.01373 100.914 7.9723C100.823 7.95524 100.542 7.95524 100.08 7.95524L99.2022 7.94549V9.48574Z" fill="white"/>
<path fill-rule="evenodd" clip-rule="evenodd" d="M103.562 6.95166L103.543 12.9689H104.666L104.684 6.95166H103.562Z" fill="white"/>
<path fill-rule="evenodd" clip-rule="evenodd" d="M105.641 12.9736L105.659 6.95886H106.736L109.027 10.9947L109.036 6.96861L110.096 6.96861L110.087 12.9834H108.937L106.673 9.01577L106.664 12.9736H105.641Z" fill="white"/>
<path fill-rule="evenodd" clip-rule="evenodd" d="M112.413 12.9963L112.431 7.99538L110.765 7.98563V6.9718L115.22 6.98155L115.211 7.99538L113.554 7.99538L113.545 12.9963H112.413Z" fill="white"/>
<path fill-rule="evenodd" clip-rule="evenodd" d="M115.803 13.0069L115.821 6.99219L119.941 7.00194L119.932 8.01577L116.944 8.00602L116.935 9.3318L119.742 9.34155V10.3651L116.935 10.3554L116.926 11.9931L120.032 12.0029V13.0167L115.803 13.0069Z" fill="white"/>
<path fill-rule="evenodd" clip-rule="evenodd" d="M120.878 13.0223L120.896 7.00757H122.001L124.292 11.0434L124.301 7.01732L125.342 7.01732L125.324 13.0321H124.21L121.937 9.06448L121.928 13.0223H120.878Z" fill="white"/>
<path fill-rule="evenodd" clip-rule="evenodd" d="M126.421 7.02734L128.467 7.03709C128.929 7.03709 129.291 7.05659 129.527 7.14432C129.862 7.25156 130.143 7.42703 130.369 7.69023C130.604 7.96319 130.767 8.29463 130.903 8.67482C131.021 9.06476 131.075 9.53268 131.075 10.0981C131.075 10.5953 131.021 11.0242 130.903 11.3751C130.758 11.8138 130.55 12.1745 130.296 12.4474C130.115 12.6522 129.853 12.7984 129.509 12.9251C129.264 12.9934 128.929 13.0518 128.531 13.0421H126.403L126.421 7.02734ZM127.544 8.0412L127.535 12.0283H128.368C128.676 12.0283 128.902 11.999 129.056 11.9698C129.246 11.9113 129.373 11.8431 129.5 11.7163C129.635 11.6091 129.717 11.4044 129.789 11.1412C129.88 10.8585 129.916 10.5075 129.916 10.0396C129.916 9.58144 129.889 9.211 129.798 8.96729C129.726 8.72358 129.626 8.52862 129.481 8.37264C129.346 8.24591 129.174 8.13868 128.974 8.09969C128.811 8.06069 128.504 8.0412 128.042 8.0412H127.544Z" fill="white"/>
<path fill-rule="evenodd" clip-rule="evenodd" d="M131.913 13.0582L131.931 7.04346L136.06 7.06295V8.06704L133.054 8.05729L133.044 9.38307L135.842 9.39282V10.4164L133.044 10.4067L133.035 12.0444L136.168 12.0541V13.068L131.913 13.0582Z" fill="white"/>
<path fill-rule="evenodd" clip-rule="evenodd" d="M136.997 13.0736L137.015 7.05884L138.12 7.06859L140.402 11.0947L140.42 7.06859L141.461 7.07833L141.443 13.0833H140.32L138.056 9.11575L138.038 13.0736H136.997Z" fill="white"/>
<path fill-rule="evenodd" clip-rule="evenodd" d="M146.106 10.8912L147.193 11.2519C147.03 11.9148 146.74 12.4119 146.36 12.7239C145.952 13.0358 145.472 13.2015 144.866 13.2015C144.123 13.2015 143.517 12.9286 143.046 12.3729C142.557 11.8368 142.321 11.0861 142.321 10.1503C142.321 9.13647 142.566 8.36634 143.055 7.81069C143.544 7.26478 144.159 6.98207 144.956 6.99182C145.635 6.99182 146.188 7.21603 146.613 7.64496C146.867 7.90817 147.057 8.26886 147.184 8.74653L146.07 9.02923C146.007 8.72703 145.871 8.47358 145.654 8.2981C145.445 8.11289 145.192 8.02515 144.893 8.02515C144.476 8.02515 144.132 8.17138 143.897 8.50282C143.616 8.80502 143.489 9.33143 143.489 10.0431C143.48 10.8034 143.607 11.3493 143.861 11.6905C144.114 11.9927 144.44 12.1682 144.866 12.1682C145.137 12.1682 145.4 12.0707 145.626 11.8563C145.844 11.6515 145.998 11.3201 146.106 10.8912Z" fill="white"/>
<path fill-rule="evenodd" clip-rule="evenodd" d="M147.99 13.1084H149.131L149.14 7.10338L148.006 7.09363L147.99 13.1084Z" fill="white"/>
<path fill-rule="evenodd" clip-rule="evenodd" d="M155.121 13.133L153.899 13.1233L153.437 11.7488H151.182L150.711 13.1135H149.516L151.698 7.10852H152.885L155.121 13.133ZM153.075 10.7349L152.287 8.5025L151.526 10.7349H153.075Z" fill="white"/>
<path fill-rule="evenodd" clip-rule="evenodd" d="M157.363 13.1378L157.381 7.12305L161.211 7.14254L161.202 8.14663L158.495 8.13688V9.55039L160.84 9.56014L160.831 10.574H158.486L158.477 13.1378H157.363Z" fill="white"/>
<path fill-rule="evenodd" clip-rule="evenodd" d="M161.962 13.1545H163.103L163.121 7.14952L161.981 7.13977L161.962 13.1545Z" fill="white"/>
<path fill-rule="evenodd" clip-rule="evenodd" d="M164.058 13.1605L164.076 7.14575L165.172 7.1555L167.472 11.1816L167.481 7.1555L168.522 7.16525L168.504 13.1703H167.363L165.118 9.20266L165.108 13.1605H164.058Z" fill="white"/>
<path fill-rule="evenodd" clip-rule="evenodd" d="M174.604 13.1937L173.4 13.1839L172.92 11.8094H170.674L170.213 13.1742H169.026L171.181 7.16919H172.395L174.604 13.1937ZM172.567 10.7955L171.77 8.55341L171.018 10.7955H172.567Z" fill="white"/>
<path fill-rule="evenodd" clip-rule="evenodd" d="M175.093 13.1949L175.111 7.18018L176.207 7.18992L178.506 11.216L178.516 7.18992L179.548 7.19967L179.539 13.2047H178.398L176.143 9.23709L176.134 13.1949H175.093Z" fill="white"/>
<path fill-rule="evenodd" clip-rule="evenodd" d="M184.193 11.0113L185.289 11.372C185.117 12.0349 184.827 12.532 184.446 12.844C184.066 13.1559 183.568 13.3217 182.943 13.3217C182.21 13.3217 181.603 13.0487 181.132 12.493C180.643 11.9569 180.417 11.2063 180.417 10.2704C180.417 9.25658 180.671 8.48646 181.141 7.9308C181.621 7.38489 182.255 7.10219 183.052 7.11194C183.722 7.11194 184.283 7.33615 184.7 7.76508C184.981 8.02829 185.153 8.38898 185.289 8.86665L184.166 9.14935C184.111 8.84715 183.967 8.59369 183.758 8.41822C183.541 8.233 183.287 8.14527 182.989 8.14527C182.572 8.14527 182.228 8.30124 181.974 8.62294C181.703 8.92514 181.576 9.4613 181.576 10.1632C181.576 10.9236 181.694 11.4695 181.956 11.8107C182.21 12.1129 182.545 12.2883 182.952 12.2883C183.242 12.2883 183.505 12.1908 183.722 11.9764C183.939 11.7717 184.102 11.45 184.193 11.0113Z" fill="white"/>
<path fill-rule="evenodd" clip-rule="evenodd" d="M186.085 13.229H187.208L187.226 7.22398L186.103 7.21423L186.085 13.229Z" fill="white"/>
<path fill-rule="evenodd" clip-rule="evenodd" d="M188.172 13.2366L188.19 7.2218L192.319 7.2413V8.24538L189.304 8.23563V9.56141L192.12 9.57116L192.111 10.5947L189.295 10.585V12.2227L192.428 12.2325V13.2463L188.172 13.2366Z" fill="white"/>
<path fill-rule="evenodd" clip-rule="evenodd" d="M193.257 13.258L193.266 7.24329L195.647 7.25303C196.245 7.25303 196.671 7.29203 196.951 7.40901C197.214 7.50649 197.44 7.70146 197.594 7.98416C197.757 8.26687 197.839 8.56907 197.839 8.93951C197.839 9.38793 197.703 9.76812 197.467 10.0508C197.205 10.3433 196.852 10.5382 196.363 10.6065C196.598 10.7722 196.806 10.9282 196.96 11.1231C197.114 11.2986 197.323 11.6203 197.603 12.0882L198.264 13.2678H196.924L196.118 11.9518C195.837 11.4838 195.629 11.1914 195.53 11.0744C195.421 10.9574 195.303 10.8599 195.176 10.8112C195.068 10.7722 194.887 10.743 194.624 10.743L194.38 10.7332L194.371 13.258H193.257ZM194.38 9.78764H195.222C195.756 9.78764 196.109 9.76814 196.245 9.70965C196.372 9.67066 196.471 9.58292 196.553 9.46594C196.634 9.33921 196.671 9.19298 196.671 9.00776C196.671 8.8128 196.634 8.63733 196.517 8.52035C196.426 8.40336 196.281 8.31563 196.109 8.27664C196.019 8.25714 195.729 8.25714 195.285 8.25714H194.38V9.78764Z" fill="white"/>
<path fill-rule="evenodd" clip-rule="evenodd" d="M203.818 13.2878L202.595 13.2781L202.116 11.9035H199.879L199.417 13.2683H198.213L200.386 7.26331H201.581L203.818 13.2878ZM201.762 10.8897L200.975 8.65729L200.214 10.8897H201.762Z" fill="white"/>
<path fill-rule="evenodd" clip-rule="evenodd" d="M113.838 16.3115L115.912 16.3213C116.364 16.3213 116.717 16.3505 116.962 16.4285C117.288 16.5357 117.55 16.7307 117.786 16.9842C118.021 17.2571 118.202 17.5788 118.329 17.9785C118.447 18.3587 118.501 18.8266 118.501 19.3823C118.501 19.8892 118.447 20.3181 118.32 20.6691C118.175 21.1077 117.985 21.4684 117.723 21.7414C117.532 21.9363 117.27 22.0923 116.953 22.2093C116.69 22.297 116.346 22.336 115.939 22.336L113.82 22.3263L113.838 16.3115ZM114.961 17.3351L114.952 21.3125H115.794C116.102 21.3125 116.328 21.3027 116.464 21.254C116.645 21.215 116.79 21.1273 116.926 21.0005C117.061 20.8933 117.152 20.6983 117.224 20.4351C117.288 20.1524 117.342 19.7917 117.342 19.3336C117.342 18.8656 117.297 18.5049 117.224 18.2612C117.161 18.0175 117.043 17.8128 116.917 17.6861C116.781 17.5301 116.591 17.4424 116.373 17.3936C116.237 17.3449 115.921 17.3351 115.459 17.3351H114.961Z" fill="white"/>
<path fill-rule="evenodd" clip-rule="evenodd" d="M119.332 22.3447L119.35 16.33L123.479 16.3397V17.3633L120.472 17.3535V18.6696L123.289 18.6793L123.279 19.7029L120.472 19.6932L120.463 21.3309L123.569 21.3406V22.3545L119.332 22.3447Z" fill="white"/>
<path fill-rule="evenodd" clip-rule="evenodd" d="M130.06 20.1566L131.156 20.5367C130.993 21.1899 130.703 21.6773 130.295 21.999C129.915 22.3207 129.435 22.4767 128.81 22.4767C128.077 22.4767 127.479 22.2135 126.99 21.6578C126.51 21.1119 126.275 20.3613 126.275 19.4157C126.275 18.4213 126.519 17.6415 127.008 17.0956C127.497 16.5497 128.122 16.2572 128.91 16.2572C129.589 16.267 130.15 16.4912 130.576 16.9298C130.83 17.1833 131.02 17.5537 131.137 18.0314L130.033 18.3141C129.969 18.0022 129.834 17.7585 129.625 17.5732C129.399 17.388 129.154 17.3003 128.856 17.3003C128.43 17.2905 128.086 17.4563 127.85 17.7877C127.579 18.0899 127.443 18.6163 127.434 19.3279C127.434 20.0981 127.57 20.6342 127.823 20.9559C128.077 21.2776 128.394 21.4336 128.819 21.4336C129.118 21.4336 129.372 21.3459 129.598 21.1411C129.797 20.9364 129.96 20.605 130.06 20.1566Z" fill="white"/>
<path fill-rule="evenodd" clip-rule="evenodd" d="M131.777 19.4284C131.777 18.8142 131.85 18.3073 132.031 17.8784C132.167 17.5859 132.33 17.3032 132.556 17.0693C132.773 16.8256 133.009 16.6404 133.271 16.5234C133.625 16.3577 134.014 16.2797 134.485 16.2797C135.3 16.2797 135.961 16.5721 136.441 17.1278C136.948 17.6639 137.192 18.4438 137.192 19.4089C137.183 20.3935 136.948 21.1539 136.441 21.69C135.961 22.2457 135.309 22.5186 134.467 22.5089C133.634 22.5089 132.982 22.2359 132.502 21.6803C132.013 21.1441 131.777 20.3837 131.777 19.4284ZM132.936 19.3895C132.936 20.0719 133.063 20.5885 133.371 20.9395C133.661 21.2904 134.023 21.4659 134.467 21.4659C134.928 21.4659 135.291 21.3001 135.599 20.959C135.87 20.5983 136.015 20.0816 136.015 19.3895C136.024 18.6876 135.87 18.1904 135.608 17.8297C135.327 17.4885 134.956 17.3131 134.485 17.3131C134.014 17.3131 133.652 17.4788 133.362 17.8297C133.072 18.1904 132.936 18.6973 132.936 19.3895Z" fill="white"/>
<path fill-rule="evenodd" clip-rule="evenodd" d="M137.96 22.4042L137.978 16.4382L139.119 16.448L139.11 21.3904L141.908 21.4002V22.414L137.96 22.4042Z" fill="white"/>
<path fill-rule="evenodd" clip-rule="evenodd" d="M142.36 19.4615C142.36 18.8473 142.451 18.3404 142.623 17.9115C142.75 17.619 142.931 17.3363 143.148 17.1024C143.365 16.8587 143.61 16.6734 143.873 16.5565C144.226 16.3907 144.624 16.3127 145.077 16.3127C145.901 16.3127 146.562 16.6052 147.033 17.1609C147.54 17.697 147.784 18.4769 147.784 19.442C147.784 20.4266 147.531 21.1869 147.042 21.7231C146.553 22.2788 145.892 22.5517 145.077 22.542C144.235 22.542 143.583 22.269 143.103 21.7133C142.614 21.1772 142.36 20.4168 142.36 19.4615ZM143.528 19.4225C143.528 20.1049 143.664 20.6216 143.963 20.9725C144.253 21.3235 144.624 21.499 145.086 21.499C145.511 21.499 145.892 21.3332 146.191 20.992C146.48 20.6313 146.616 20.1147 146.616 19.4225C146.616 18.7207 146.48 18.2235 146.2 17.8628C145.919 17.5216 145.548 17.3461 145.095 17.3461C144.615 17.3461 144.253 17.5119 143.963 17.8628C143.673 18.2235 143.528 18.7304 143.528 19.4225Z" fill="white"/>
<path fill-rule="evenodd" clip-rule="evenodd" d="M148.525 22.4364L148.544 16.4216H150.237L151.224 20.5257L152.229 16.4314L153.931 16.4411L153.922 22.4559L152.872 22.4461L152.881 17.7182L151.776 22.4461H150.69L149.585 17.7084L149.567 22.4364H148.525Z" fill="white"/>
<path fill-rule="evenodd" clip-rule="evenodd" d="M154.939 16.4448H157.176C157.61 16.4546 157.945 16.4643 158.181 16.5033C158.371 16.5521 158.588 16.6398 158.76 16.7568C158.914 16.8835 159.05 17.0492 159.186 17.2734C159.294 17.4879 159.349 17.7219 159.349 17.9753C159.349 18.2775 159.276 18.5212 159.131 18.7649C158.996 18.9989 158.796 19.1841 158.561 19.2914C158.905 19.3986 159.159 19.5741 159.349 19.8373C159.539 20.0907 159.611 20.3929 159.611 20.7341C159.611 21.0071 159.557 21.2703 159.43 21.5237C159.313 21.7772 159.15 22.0014 158.95 22.1476C158.742 22.3036 158.489 22.4011 158.19 22.4303C158 22.4498 157.547 22.4693 156.831 22.4693L154.921 22.4596L154.939 16.4448ZM156.062 17.4684L156.053 18.843H156.795C157.248 18.843 157.511 18.843 157.628 18.8332C157.809 18.804 157.972 18.7357 158.081 18.6188C158.199 18.5115 158.235 18.3555 158.235 18.1508C158.235 17.9656 158.208 17.8194 158.108 17.7024C158.009 17.5757 157.873 17.5172 157.683 17.4977C157.565 17.4782 157.248 17.4684 156.714 17.4684H156.062ZM156.053 19.8665V21.4458H157.103C157.502 21.4458 157.764 21.436 157.873 21.4263C158.027 21.3775 158.181 21.2995 158.28 21.1825C158.389 21.0558 158.434 20.8901 158.434 20.6659C158.434 20.4904 158.389 20.3539 158.316 20.237C158.235 20.1102 158.117 20.0127 157.972 19.9542C157.818 19.8958 157.474 19.8665 156.958 19.8665H156.053Z" fill="white"/>
<path fill-rule="evenodd" clip-rule="evenodd" d="M160.406 16.4622L160.388 22.4769H161.526L161.547 16.4622H160.406Z" fill="white"/>
<path fill-rule="evenodd" clip-rule="evenodd" d="M167.521 22.495H166.317L165.837 21.1204H163.582L163.12 22.4852L161.916 22.4755L164.08 16.4705H165.294L167.521 22.495ZM165.484 20.0969L164.687 17.8742L163.935 20.0969H165.484Z" fill="white"/>
<path fill-rule="evenodd" clip-rule="evenodd" d="M6.82792 19.1853L3.55908 9.15417L5.58739 9.16392L7.92357 16.5727L10.1964 9.17367L12.2066 9.18342L8.85623 19.195L6.82792 19.1853Z" fill="white"/>
<path fill-rule="evenodd" clip-rule="evenodd" d="M13.7344 19.2082L15.6268 19.218L15.654 9.1942L13.7615 9.18689L13.7344 19.2082Z" fill="white"/>
<path fill-rule="evenodd" clip-rule="evenodd" d="M22.392 15.5632L22.4011 13.8669L26.4486 13.8767L26.4396 17.8833C26.0502 18.2927 25.4707 18.6534 24.7191 18.9751C23.9766 19.2675 23.216 19.4235 22.4464 19.4235C21.4775 19.4138 20.6354 19.1993 19.8929 18.7509C19.1866 18.3122 18.6433 17.6883 18.2811 16.8597C17.9189 16.0408 17.7378 15.1342 17.7378 14.1886C17.7378 13.1456 17.9551 12.2 18.3626 11.3908C18.7519 10.572 19.3677 9.95783 20.1374 9.52891C20.744 9.18771 21.4775 9.03174 22.3739 9.03174C23.542 9.03174 24.4475 9.29494 25.0904 9.82136C25.7424 10.3478 26.1498 11.0692 26.3219 11.9855L24.4566 12.3657C24.3388 11.8685 24.0853 11.4786 23.7231 11.1959C23.37 10.9132 22.8991 10.767 22.3739 10.767C21.559 10.767 20.898 11.0399 20.3999 11.5956C19.92 12.161 19.6755 12.9993 19.6755 14.1106C19.6665 15.2902 19.9019 16.1968 20.409 16.7915C20.907 17.3764 21.5409 17.6981 22.3468 17.6981C22.718 17.6981 23.1164 17.6006 23.533 17.4543C23.9133 17.2789 24.2573 17.0839 24.5471 16.8402L24.5562 15.5729L22.392 15.5632Z" fill="white"/>
<path fill-rule="evenodd" clip-rule="evenodd" d="M28.7656 19.2543L30.6309 19.2664L30.6558 9.24266L28.7928 9.23535L28.7656 19.2543Z" fill="white"/>
<path fill-rule="evenodd" clip-rule="evenodd" d="M33.1162 19.2687L33.1434 9.32532L35.0449 9.33507L35.0177 17.5822L39.672 17.6017L39.6629 19.2882L33.1162 19.2687Z" fill="white"/>
<path fill-rule="evenodd" clip-rule="evenodd" d="M50.0666 19.3222L48.0383 19.3125L47.2324 17.0411L43.4927 17.0216L42.714 19.3027L40.731 19.293L44.3529 9.28137L46.3269 9.29112L50.0666 19.3222ZM46.6257 15.3546L45.3309 11.6209L44.0632 15.3448L46.6257 15.3546Z" fill="white"/>
<path fill-rule="evenodd" clip-rule="evenodd" d="M51.7376 9.31091L55.1513 9.32066C55.9391 9.32066 56.5277 9.37915 56.9351 9.51563C57.4694 9.6911 57.9312 10.003 58.3296 10.4417C58.7099 10.8804 59.0087 11.4361 59.2079 12.0795C59.4071 12.7131 59.5067 13.5125 59.4977 14.4386C59.4977 15.2672 59.4071 15.9788 59.217 16.5637C58.9815 17.2948 58.6556 17.8797 58.2209 18.3477C57.895 18.6791 57.4603 18.9423 56.8899 19.1373C56.4824 19.2738 55.93 19.342 55.2419 19.342L51.7104 19.3225L51.7376 9.31091ZM53.6029 11.0071L53.5848 17.6458H54.9883C55.5135 17.6458 55.8848 17.6068 56.1293 17.5678C56.4371 17.4703 56.6816 17.3436 56.8718 17.1388C57.0891 16.9536 57.2521 16.6222 57.3788 16.1737C57.5056 15.7253 57.569 15.1209 57.569 14.3508C57.5781 13.5709 57.5147 12.9665 57.3879 12.5668C57.2611 12.1379 57.0891 11.826 56.8627 11.592C56.6273 11.358 56.3466 11.1923 55.9934 11.1143C55.7218 11.0461 55.2147 11.0169 54.445 11.0071H53.6029Z" fill="white"/>
<path fill-rule="evenodd" clip-rule="evenodd" d="M61.3874 14.4113C61.3874 13.3779 61.5232 12.5323 61.8039 11.8377C62.0303 11.321 62.3291 10.8726 62.6913 10.4632C63.0535 10.0537 63.4609 9.75153 63.8956 9.55656C64.4751 9.29336 65.1361 9.16663 65.8877 9.16663C67.264 9.17881 68.3778 9.6248 69.1927 10.5606C70.0167 11.477 70.4242 12.754 70.4151 14.3918C70.4151 16.0197 69.9986 17.2773 69.1837 18.2034C68.3597 19.11 67.264 19.5584 65.9058 19.5584C64.5023 19.5584 63.4066 19.1002 62.6007 18.1936C61.7767 17.2675 61.3783 16.01 61.3874 14.4113ZM63.3251 14.3527C63.3251 15.4835 63.5605 16.3511 64.0404 16.9482C64.5294 17.5209 65.1451 17.8329 65.9057 17.8329C66.6573 17.8426 67.264 17.5307 67.7439 16.9653C68.2329 16.3804 68.4774 15.503 68.4774 14.343C68.4864 13.1927 68.251 12.3275 67.7711 11.7499C67.3183 11.1845 66.6935 10.9115 65.9239 10.9042C65.1361 10.9042 64.5113 11.1845 64.0314 11.7596C63.5514 12.3275 63.3251 13.2024 63.3251 14.3527Z" fill="white"/>
<path fill-rule="evenodd" clip-rule="evenodd" d="M1.13086 6.1181L73.3689 6.36181L73.3803 4.23666L1.13991 4.01245L1.13086 6.1181Z" fill="white"/>
<path fill-rule="evenodd" clip-rule="evenodd" d="M1.08008 24.2816L73.3204 24.5253L73.3318 22.4221L1.0914 22.1881L1.08008 24.2816Z" fill="white"/>
</svg>
