<svg version="1.1" xmlns="http://www.w3.org/2000/svg" width="4" height="32" viewBox="0 0 4 32">
<title>brand-vigilado</title>
<path d="M1.916 0.529l-0.198 0.075v0.347l0.197 0.072v0.187l-0-0v0.2l-0.19 0.125c-0.068 0.044-0.11 0.076-0.127 0.091-0.017 0.017-0.031 0.035-0.038 0.055-0.006 0.017-0.010 0.045-0.010 0.086l-0.001 0.038 0.364 0.001v0.173l-0.868-0.001 0.001-0.37c0-0.093 0.006-0.159 0.022-0.203 0.014-0.041 0.042-0.076 0.083-0.1 0.041-0.025 0.084-0.038 0.138-0.038 0.065 0 0.12 0.021 0.16 0.058 0.042 0.041 0.070 0.096 0.080 0.172 0.024-0.037 0.046-0.069 0.075-0.093 0.025-0.024 0.072-0.056 0.139-0.1l0.162-0.098-0.858-0.334v-0.186l0.869-0.347-0.001 0.19zM1.249 0.781l0.322 0.118v-0.241l-0.322 0.122zM1.412 1.805v-0.131c0-0.083-0.003-0.138-0.011-0.159-0.006-0.020-0.018-0.035-0.035-0.048-0.018-0.013-0.039-0.018-0.066-0.018-0.028 0-0.053 0.006-0.070 0.024-0.017 0.014-0.030 0.037-0.035 0.063-0.003 0.014-0.003 0.059-0.003 0.128v0.141h0.221zM1.042 2.767l0.868 0.003 0.001-0.661h-0.146l-0.001 0.487h-0.236l0.001-0.437-0.148-0.001-0.001 0.437h-0.191l0.001-0.468h-0.145l-0.003 0.641zM1.909 3.094v-0.174l-0.866-0.003-0.001 0.174 0.868 0.003zM1.641 3.217l-0.052 0.17c0.063 0.014 0.11 0.039 0.139 0.073 0.031 0.034 0.045 0.075 0.045 0.12 0 0.063-0.025 0.115-0.069 0.155-0.049 0.041-0.128 0.059-0.238 0.059-0.101 0-0.179-0.020-0.222-0.062-0.046-0.039-0.069-0.093-0.069-0.158 0-0.046 0.013-0.086 0.039-0.12 0.025-0.032 0.062-0.055 0.105-0.063l-0.041-0.174c-0.069 0.021-0.121 0.048-0.159 0.091-0.062 0.065-0.094 0.152-0.094 0.256-0.001 0.124 0.039 0.222 0.118 0.297 0.080 0.073 0.191 0.113 0.338 0.113 0.135 0 0.243-0.035 0.321-0.111 0.080-0.073 0.12-0.167 0.12-0.281 0-0.097-0.024-0.174-0.069-0.233s-0.117-0.104-0.212-0.131zM1.904 4.801l-0.868-0.003 0.001-0.17 0.581-0.357-0.581-0.001 0.001-0.16 0.866 0.001v0.177l-0.572 0.35 0.571 0.001v0.162zM1.902 5.064l0.001-0.187-0.869 0.343v0.189l0.866 0.335v-0.184l-0.197-0.072v-0.349l0.198-0.075zM1.234 5.317l0.324-0.124v0.241l-0.324-0.117zM1.899 6.515l-0.868-0.003 0.001-0.17 0.581-0.357-0.581-0.001 0.001-0.162 0.866 0.003v0.177l-0.572 0.349 0.571 0.001v0.163zM1.898 6.664v0.177l-0.868-0.003 0.001-0.177 0.866 0.003zM1.896 7.555l-0.868-0.003 0.003-0.595 0.145 0.001-0.001 0.421h0.204l0.001-0.364 0.146 0.001v0.364l0.37 0.001v0.173zM1.894 8.093l0.001-0.19-0.869 0.347v0.184l0.866 0.339v-0.186l-0.197-0.073v-0.35l0.198-0.072zM1.227 8.344l0.322-0.122v0.241l-0.322-0.118zM1.891 9.011v-0.177l-0.866-0.001-0.001 0.176 0.868 0.002zM1.624 9.135l-0.052 0.169c0.062 0.017 0.11 0.041 0.139 0.075 0.031 0.035 0.045 0.076 0.045 0.118 0 0.066-0.025 0.117-0.069 0.156-0.049 0.039-0.128 0.059-0.238 0.058-0.103 0-0.179-0.020-0.222-0.063-0.048-0.037-0.069-0.090-0.069-0.155 0-0.046 0.013-0.086 0.039-0.118 0.025-0.034 0.062-0.055 0.105-0.065l-0.041-0.173c-0.069 0.020-0.121 0.049-0.159 0.089-0.062 0.066-0.094 0.152-0.094 0.257-0.001 0.124 0.039 0.219 0.118 0.295 0.080 0.076 0.191 0.114 0.338 0.114 0.135 0 0.243-0.037 0.321-0.113 0.080-0.073 0.12-0.167 0.12-0.283 0-0.094-0.024-0.169-0.069-0.232-0.045-0.059-0.117-0.104-0.212-0.129zM1.886 10.719l-0.868-0.003 0.001-0.172 0.581-0.354-0.581-0.003 0.001-0.162 0.866 0.003v0.174l-0.572 0.352 0.571 0.003v0.162zM1.016 11.506l0.868 0.003 0.001-0.661h-0.146l-0.001 0.487-0.236-0.001 0.001-0.435h-0.148l-0.001 0.435-0.191-0.001 0.001-0.467h-0.145l-0.003 0.641zM1.014 12.362l0.001-0.318c0-0.072 0.003-0.128 0.015-0.165 0.015-0.052 0.041-0.096 0.079-0.131 0.039-0.037 0.087-0.062 0.142-0.083 0.056-0.018 0.124-0.027 0.205-0.027 0.072 0 0.134 0.008 0.184 0.027 0.063 0.023 0.115 0.055 0.155 0.094 0.030 0.028 0.051 0.069 0.069 0.122 0.010 0.038 0.018 0.090 0.017 0.152v0.331l-0.868-0.003zM1.16 12.187l0.575 0.001v-0.129c0-0.048-0.004-0.083-0.008-0.107-0.008-0.030-0.018-0.049-0.037-0.069-0.015-0.021-0.045-0.034-0.083-0.045-0.041-0.014-0.091-0.020-0.159-0.020-0.066 0-0.12 0.004-0.155 0.018-0.035 0.011-0.063 0.027-0.086 0.049-0.018 0.021-0.034 0.048-0.039 0.079-0.006 0.025-0.008 0.073-0.008 0.145v0.077zM1.011 13.22l0.868 0.003v-0.163l-0.571-0.001 0.572-0.353v-0.173l-0.868-0.003v0.162l0.581 0.001-0.582 0.356v0.172zM1.877 14.011l-0.868-0.003 0.001-0.64 0.146 0.001-0.001 0.464 0.191 0.001 0.001-0.436h0.148l-0.001 0.436 0.236 0.001 0.001-0.482h0.146l-0.001 0.657zM1.154 14.535l0.722 0.003v-0.176l-0.722-0.001v-0.257l-0.146-0.001-0.001 0.692h0.146l0.001-0.259zM1.872 15.59l-0.868-0.003v-0.167l0.582-0.356-0.581-0.001v-0.165l0.868 0.001v0.179l-0.572 0.352 0.571 0.001v0.159zM1.871 15.916l-0.868-0.003v-0.174l0.868 0.003v0.174zM1.868 16.766l-0.868-0.003 0.001-0.367c0-0.093 0.007-0.16 0.024-0.203 0.014-0.042 0.042-0.075 0.083-0.098 0.041-0.027 0.084-0.039 0.138-0.039 0.065 0 0.12 0.020 0.16 0.058 0.042 0.039 0.070 0.097 0.080 0.172l0.002-0.003c0.023-0.034 0.045-0.066 0.072-0.088 0.025-0.028 0.072-0.059 0.139-0.1l0.17-0.107v0.211l-0.19 0.124c-0.068 0.046-0.111 0.077-0.127 0.094-0.017 0.015-0.031 0.034-0.038 0.051-0.006 0.020-0.010 0.049-0.011 0.087v0.037l0.364 0.001-0.001 0.174zM1.369 16.59v-0.129c0-0.084-0.003-0.138-0.011-0.156-0.006-0.021-0.018-0.038-0.035-0.051-0.018-0.010-0.039-0.018-0.066-0.018-0.031 0-0.053 0.008-0.070 0.023-0.017 0.020-0.030 0.038-0.036 0.066-0.002 0.014-0.002 0.058-0.002 0.129l-0.001 0.136h0.222zM0.998 17.553l0.868 0.003 0.001-0.658h-0.146l-0.001 0.485-0.236-0.001 0.001-0.437h-0.148l-0.001 0.437h-0.191l0.001-0.468-0.146-0.001-0.001 0.641zM1.864 18.347l-0.868-0.003v-0.28c0-0.107 0.004-0.179 0.013-0.21 0.014-0.051 0.042-0.093 0.086-0.125 0.045-0.032 0.1-0.049 0.17-0.049 0.053 0 0.097 0.008 0.132 0.030 0.037 0.018 0.065 0.045 0.086 0.073 0.022 0.031 0.035 0.061 0.041 0.091 0.010 0.042 0.014 0.103 0.013 0.183v0.115h0.328v0.174zM1.142 18.171h0.246v-0.096c0-0.072-0.003-0.117-0.011-0.138-0.011-0.024-0.024-0.041-0.044-0.056-0.020-0.013-0.041-0.021-0.068-0.021-0.031 0-0.058 0.010-0.079 0.025-0.020 0.023-0.032 0.044-0.038 0.072-0.004 0.023-0.007 0.065-0.007 0.128v0.086zM0.993 19.028v0.172l0.464 0.001c0.097 0 0.17-0.004 0.222-0.014 0.031-0.008 0.065-0.025 0.094-0.049 0.032-0.025 0.055-0.061 0.075-0.101 0.021-0.044 0.030-0.105 0.030-0.188 0-0.069-0.007-0.122-0.025-0.166-0.015-0.041-0.039-0.077-0.069-0.101-0.031-0.027-0.068-0.045-0.11-0.055-0.044-0.008-0.117-0.013-0.222-0.013l-0.457-0.001v0.176l0.482 0.001c0.068 0 0.118 0.001 0.148 0.004 0.031 0.008 0.053 0.023 0.075 0.048s0.030 0.063 0.030 0.114c0 0.048-0.010 0.086-0.032 0.115-0.021 0.027-0.049 0.042-0.086 0.051-0.022 0.006-0.070 0.008-0.145 0.008l-0.473-0.001zM1.56 19.868l0.017 0.169c0.097-0.010 0.172-0.044 0.224-0.103 0.049-0.059 0.075-0.141 0.076-0.255 0-0.073-0.011-0.135-0.030-0.186-0.022-0.052-0.055-0.089-0.097-0.118-0.044-0.027-0.090-0.041-0.139-0.041-0.056 0-0.103 0.010-0.139 0.032-0.037 0.024-0.065 0.058-0.089 0.096-0.022 0.041-0.042 0.103-0.063 0.189-0.018 0.086-0.038 0.141-0.056 0.162-0.017 0.017-0.034 0.024-0.053 0.024-0.024 0-0.041-0.008-0.056-0.027-0.018-0.030-0.030-0.070-0.030-0.12 0-0.048 0.011-0.084 0.030-0.111 0.020-0.024 0.052-0.039 0.097-0.048l-0.008-0.174c-0.077 0.003-0.142 0.032-0.19 0.086-0.049 0.055-0.073 0.136-0.073 0.246 0 0.067 0.010 0.124 0.030 0.17 0.020 0.048 0.048 0.086 0.087 0.108 0.039 0.025 0.080 0.039 0.125 0.039 0.068 0 0.127-0.027 0.172-0.080 0.035-0.039 0.063-0.104 0.087-0.198 0.010-0.034 0.018-0.062 0.024-0.085v-0c0.007-0.025 0.011-0.044 0.016-0.054 0.011-0.031 0.022-0.051 0.038-0.063 0.014-0.010 0.032-0.015 0.051-0.015 0.034 0 0.060 0.013 0.084 0.041 0.022 0.030 0.035 0.072 0.034 0.128 0 0.055-0.011 0.094-0.041 0.127-0.025 0.032-0.066 0.052-0.125 0.062zM2.354 14.316l0.001-0.322c0-0.070 0.004-0.125 0.015-0.163 0.015-0.051 0.044-0.091 0.080-0.128 0.039-0.037 0.086-0.065 0.143-0.084 0.055-0.018 0.122-0.027 0.203-0.027 0.073 0 0.135 0.008 0.186 0.028 0.063 0.023 0.115 0.052 0.155 0.093 0.028 0.030 0.051 0.070 0.067 0.12 0.013 0.041 0.018 0.094 0.018 0.158l-0.001 0.329-0.868-0.003zM2.501 14.142l0.574 0.001v-0.131c0-0.048-0.001-0.083-0.008-0.104-0.006-0.028-0.018-0.051-0.037-0.072-0.015-0.021-0.044-0.035-0.082-0.046-0.041-0.010-0.093-0.018-0.159-0.018-0.068 0-0.12 0.007-0.155 0.018-0.035 0.010-0.065 0.028-0.083 0.048-0.022 0.021-0.035 0.051-0.042 0.084-0.007 0.021-0.008 0.070-0.008 0.142v0.077zM2.356 13.46l0.868 0.003 0.001-0.658h-0.146l-0.001 0.482-0.236-0.001 0.001-0.436-0.148-0.001-0.001 0.437h-0.19l0.001-0.467h-0.148l-0.001 0.641zM2.908 11.797l0.055-0.17c0.094 0.025 0.165 0.070 0.211 0.134 0.046 0.059 0.069 0.134 0.069 0.231 0 0.114-0.038 0.207-0.118 0.283-0.079 0.075-0.187 0.111-0.324 0.111-0.143 0-0.256-0.038-0.335-0.114s-0.121-0.173-0.121-0.295c0.001-0.105 0.034-0.193 0.097-0.259 0.037-0.039 0.090-0.069 0.159-0.087l0.041 0.172c-0.045 0.010-0.080 0.031-0.107 0.063-0.027 0.035-0.039 0.073-0.039 0.12-0.001 0.066 0.022 0.12 0.070 0.156 0.044 0.042 0.12 0.063 0.222 0.065 0.111 0 0.188-0.021 0.235-0.060s0.069-0.089 0.069-0.155c0-0.046-0.013-0.086-0.042-0.121-0.030-0.031-0.077-0.056-0.142-0.072zM2.58 11.49c0.062 0.028 0.135 0.039 0.224 0.039 0.138 0 0.248-0.037 0.325-0.113 0.080-0.075 0.12-0.176 0.12-0.305 0.001-0.131-0.038-0.232-0.118-0.307-0.077-0.079-0.187-0.115-0.329-0.117-0.139 0-0.252 0.038-0.329 0.117-0.080 0.075-0.122 0.177-0.122 0.304 0 0.073 0.011 0.134 0.035 0.188 0.017 0.041 0.044 0.077 0.079 0.111 0.034 0.035 0.075 0.060 0.117 0.082zM3.021 11.282c-0.051 0.048-0.125 0.068-0.224 0.068-0.1 0-0.173-0.021-0.225-0.066-0.051-0.045-0.075-0.101-0.075-0.174s0.025-0.131 0.075-0.174c0.052-0.041 0.124-0.065 0.225-0.063 0.1 0 0.174 0.023 0.226 0.065 0.049 0.048 0.073 0.104 0.073 0.176 0 0.069-0.025 0.125-0.076 0.17zM3.233 10.569l-0.861-0.003 0.001-0.177 0.713 0.001 0.001-0.435h0.146l-0.001 0.613zM2.584 9.845c0.062 0.027 0.135 0.041 0.224 0.041 0.138 0 0.248-0.039 0.325-0.115 0.080-0.075 0.12-0.176 0.12-0.307 0.001-0.127-0.038-0.229-0.118-0.305-0.077-0.076-0.187-0.115-0.329-0.115-0.139 0-0.252 0.038-0.329 0.117-0.080 0.073-0.122 0.176-0.122 0.304 0 0.070 0.011 0.132 0.035 0.187 0.017 0.041 0.044 0.079 0.079 0.113 0.034 0.034 0.075 0.062 0.117 0.082zM3.026 9.637c-0.051 0.046-0.125 0.068-0.224 0.068-0.1 0-0.173-0.023-0.225-0.068-0.051-0.045-0.075-0.101-0.075-0.176 0-0.070 0.025-0.128 0.075-0.172 0.052-0.044 0.124-0.065 0.225-0.065 0.1 0 0.174 0.021 0.226 0.066 0.049 0.046 0.073 0.105 0.073 0.172 0 0.072-0.025 0.129-0.076 0.174zM3.237 8.928l-0.868-0.003v-0.263l0.592-0.153-0.591-0.156 0.001-0.264 0.868 0.001-0.001 0.163-0.682-0.001 0.682 0.172v0.169l-0.684 0.172 0.682 0.003v0.162zM2.373 7.584v0.347l0.868 0.003 0.001-0.297c0-0.111-0.003-0.181-0.006-0.211-0.004-0.046-0.018-0.086-0.041-0.118-0.021-0.031-0.053-0.056-0.090-0.075-0.037-0.020-0.075-0.028-0.114-0.028-0.049 0-0.093 0.011-0.129 0.041-0.038 0.030-0.063 0.069-0.079 0.122-0.015-0.037-0.042-0.067-0.076-0.089-0.035-0.022-0.070-0.034-0.114-0.034-0.037 0-0.070 0.008-0.101 0.025-0.032 0.021-0.056 0.042-0.075 0.066-0.017 0.027-0.030 0.061-0.037 0.090-0.006 0.037-0.007 0.089-0.008 0.156zM2.719 7.759l-0.198-0.001v-0.101c0-0.083 0.001-0.132 0.004-0.151 0.003-0.030 0.011-0.051 0.030-0.066 0.017-0.016 0.038-0.020 0.065-0.020 0.030 0 0.052 0.006 0.068 0.024 0.017 0.017 0.027 0.042 0.031 0.070 0.001 0.018 0.001 0.059 0.001 0.129v0.115zM3.094 7.759h-0.228v-0.141c0-0.080 0.004-0.134 0.013-0.158 0.008-0.022 0.022-0.041 0.041-0.053 0.017-0.011 0.037-0.018 0.062-0.018 0.032 0 0.056 0.007 0.075 0.024 0.017 0.015 0.028 0.039 0.035 0.063 0.001 0.017 0.003 0.058 0.003 0.12v0.163zM2.375 7.083l0.868 0.003v-0.177l-0.868-0.003v0.177zM3.246 6.164v-0.187l-0.869 0.346v0.188l0.866 0.336 0.001-0.187-0.197-0.072v-0.35l0.198-0.075zM2.579 6.418l0.321-0.124v0.24l-0.321-0.117zM2.768 30.939l-1.447 0.508 0.001-0.315 1.069-0.363-1.068-0.353 0.001-0.312 1.445 0.52-0.001 0.315zM2.773 29.573l-0.001 0.294-1.446-0.004 0.001-0.294 1.446 0.004zM2.246 28.522l-0.245-0.001 0.001-0.629 0.578 0.001c0.059 0.061 0.111 0.151 0.158 0.267 0.042 0.115 0.065 0.233 0.065 0.353-0.001 0.151-0.032 0.282-0.097 0.397-0.063 0.11-0.153 0.194-0.273 0.25-0.118 0.056-0.249 0.084-0.385 0.084-0.151 0-0.287-0.034-0.404-0.097-0.118-0.060-0.207-0.156-0.269-0.276-0.049-0.094-0.072-0.208-0.072-0.347 0-0.182 0.038-0.322 0.114-0.422 0.076-0.101 0.18-0.165 0.312-0.191l0.055 0.29c-0.072 0.018-0.128 0.058-0.169 0.114-0.041 0.055-0.062 0.128-0.062 0.21 0 0.127 0.039 0.229 0.12 0.307 0.082 0.074 0.203 0.112 0.363 0.112 0.17 0.001 0.301-0.035 0.387-0.114 0.084-0.077 0.131-0.176 0.131-0.301 0-0.058-0.014-0.119-0.035-0.184-0.025-0.059-0.053-0.112-0.089-0.157l-0.183-0.001-0.001 0.336zM2.78 27.242l-0.002 0.29-1.446-0.004 0.001-0.289 1.446 0.004zM2.78 26.856l-1.435-0.004 0.001-0.295 1.19 0.004 0.003-0.723 0.243 0.001-0.003 1.017zM2.787 24.538l0.001-0.315-1.447 0.581-0.001 0.307 1.445 0.563 0.001-0.308-0.329-0.121 0.003-0.581 0.328-0.125zM1.677 24.958l0.539-0.201-0.001 0.398-0.537-0.197zM1.343 23.963l0.001-0.53c0-0.122 0.008-0.214 0.028-0.277 0.025-0.083 0.070-0.155 0.134-0.217 0.063-0.059 0.143-0.105 0.236-0.136 0.091-0.031 0.207-0.046 0.34-0.045 0.12 0 0.222 0.014 0.307 0.044 0.106 0.037 0.19 0.087 0.257 0.155 0.048 0.051 0.086 0.118 0.114 0.207 0.020 0.063 0.030 0.149 0.030 0.256l-0.003 0.549-1.445-0.004zM1.588 23.673l0.958 0.003v-0.218c0-0.082-0.006-0.139-0.011-0.177-0.014-0.048-0.032-0.086-0.062-0.115-0.027-0.034-0.075-0.059-0.139-0.079s-0.152-0.030-0.263-0.030c-0.113-0.001-0.2 0.008-0.257 0.028-0.062 0.020-0.107 0.046-0.141 0.082-0.034 0.037-0.058 0.080-0.069 0.135-0.010 0.042-0.014 0.121-0.015 0.241v0.131zM1.708 22.399c0.1 0.044 0.222 0.065 0.371 0.065 0.231 0.001 0.412-0.060 0.546-0.188 0.131-0.125 0.197-0.295 0.197-0.513 0-0.211-0.065-0.381-0.196-0.509-0.134-0.127-0.315-0.191-0.55-0.191-0.236-0.001-0.421 0.062-0.553 0.19-0.135 0.127-0.199 0.3-0.201 0.513 0 0.117 0.018 0.219 0.056 0.309 0.028 0.067 0.072 0.131 0.131 0.187s0.124 0.103 0.198 0.138zM2.445 22.052c-0.086 0.075-0.211 0.111-0.374 0.111-0.166 0-0.292-0.035-0.374-0.11-0.083-0.075-0.123-0.172-0.123-0.294 0.001-0.12 0.040-0.217 0.122-0.287 0.083-0.075 0.208-0.111 0.374-0.11 0.167 0 0.294 0.038 0.378 0.114 0.082 0.075 0.127 0.169 0.125 0.286 0 0.118-0.045 0.214-0.128 0.29zM0.883 31.824l0.035-11.222-0.307-0.002-0.032 11.222 0.304 0.001zM3.539 20.61l-0.035 11.222-0.302-0.002 0.034-11.222 0.303 0.002z"></path>
</svg>
