<svg width="1366" height="747" viewBox="0 0 1366 747" fill="none" xmlns="http://www.w3.org/2000/svg">
<path d="M1195.85 98.3063L1200.85 91.8706L1206.12 85.6675C1207.84 83.5683 1209.7 81.5987 1211.56 79.6167L1214.33 76.6428C1215.24 75.6426 1216.17 74.6588 1217.16 73.7244L1222.95 68.0256C1224.89 66.1362 1226.96 64.3807 1228.95 62.5511L1231.98 59.8364L1235.11 57.2474C1237.21 55.5412 1239.27 53.7815 1241.4 52.1207C1249.96 45.4771 1258.97 39.4305 1268.3 33.8921C1277.71 28.4938 1287.48 23.7169 1297.56 19.6193C1307.7 15.6533 1318.17 12.4633 1328.86 10.1356C1339.57 7.84493 1350.56 6.6924 1361.59 6.5257C1372.62 6.30137 1383.73 7.55474 1394.57 9.93595C1400.03 11 1405.33 12.7679 1410.63 14.4432L1418.41 17.483C1419.72 17.9563 1420.98 18.5655 1422.23 19.1788L1425.99 20.9941" stroke="#9062CD" stroke-width="12" stroke-linecap="round"/>
<path d="M1085.78 293.919L1193.26 149.641L1220.12 113.653C1228.73 102.296 1238.62 91.8308 1249.44 82.3904C1271.1 63.5218 1296.44 48.6603 1323.51 38.9688" stroke="#FDDA23" stroke-width="25" stroke-linecap="round"/>
<path d="M-60.5273 346.353C2.09119 253.284 140.475 207.092 246.083 245.424C292.71 262.348 333.515 292.015 371.297 323.559" stroke="#FF7E41" stroke-width="25" stroke-linecap="round"/>
<path d="M152.605 213.708C172.683 211.389 192.995 211.708 212.879 214.764L216.61 215.31C217.855 215.493 219.082 215.769 220.318 215.995L227.725 217.425L235.057 219.179L238.72 220.074L242.344 221.122C252.053 223.746 261.494 227.29 270.792 231.122C275.387 233.176 280.016 235.156 284.475 237.51C289.019 239.692 293.373 242.242 297.762 244.722C299.962 245.948 302.05 247.379 304.199 248.7C306.328 250.054 308.49 251.357 310.53 252.851L316.729 257.206C318.755 258.655 320.63 260.081 322.588 261.518L369.111 295.962L462.154 364.849L508.677 399.293L520.308 407.902C524.179 410.738 528.08 413.743 531.908 416.354L543.431 424.447L555.342 431.94" stroke="#FDDA23" stroke-width="14.981" stroke-linecap="round"/>
<path d="M870.003 458.937C877.633 456.204 884.951 452.712 892.388 449.511C896.043 447.774 899.642 445.916 903.274 444.127L908.71 441.417L914.006 438.447C917.527 436.451 921.094 434.528 924.58 432.474L934.874 426.031C938.354 423.954 941.632 421.577 944.958 419.27L949.939 415.802C951.603 414.647 953.279 413.511 954.854 412.239L964.463 404.818L966.868 402.966L969.177 400.998L973.791 397.053L978.406 393.111C979.171 392.449 979.957 391.811 980.705 391.129L982.91 389.045L991.733 380.709C1003.15 369.26 1014.19 357.366 1023.97 344.466C1028.96 338.224 1033.9 331.41 1038.86 324.752L1053.71 304.718L1083.42 264.652L1142.84 184.516" stroke="#FF7E41" stroke-width="15" stroke-linecap="round"/>
<path d="M451.381 384.27L504.469 423.886L511.106 428.837L518.022 433.752C522.668 436.996 527.203 440.406 532.057 443.337L539.233 447.887L542.824 450.159C544.011 450.931 545.276 451.575 546.497 452.287C551.442 455.049 556.326 457.92 561.32 460.584C601.385 481.735 645.293 495.306 690.115 500.679" stroke="#9062CD" stroke-width="25" stroke-linecap="round"/>
</svg>
